<svg width="44" height="44" viewBox="0 0 44 44" fill="none" xmlns="http://www.w3.org/2000/svg">
<path d="M40.546 19.7883L40.4264 19.25H37.125C35.0563 19.25 33.0055 18.5666 31.35 17.325L30.9375 17.0156L30.525 17.325C29.8107 17.8612 29.0194 18.2861 28.1875 18.6038V16.4519C30.8962 16.1116 33 13.7988 33 10.9993C33 8.19981 30.8962 5.88706 28.1875 5.54675V2.75C28.1875 1.61287 27.2621 0.6875 26.125 0.6875H5.5C4.36287 0.6875 3.4375 1.61287 3.4375 2.75V21.3125H0.6875V22.6875H20.702C20.6546 22.9109 20.6058 23.1419 20.5556 23.3819C18.6931 23.4197 17.1875 24.9411 17.1875 26.8125C17.1875 28.1916 18.0283 29.4222 19.2576 29.9599C19.1978 30.2919 19.14 30.6192 19.085 30.9375H0.6875V32.3125H2.0625V37.8125H0.6875V39.1875H22.264C24.3176 40.5384 26.9301 41.8626 29.3232 42.9612C29.8306 43.1942 30.3738 43.3125 30.9375 43.3125C31.5012 43.3125 32.0444 43.1942 32.5524 42.9612C37.4612 40.7069 43.3125 37.5073 43.3125 35.0625C43.3125 32.2692 40.6594 20.2964 40.546 19.7883ZM31.625 11C31.625 13.2749 29.7749 15.125 27.5 15.125C25.2251 15.125 23.375 13.2749 23.375 11C23.375 8.72506 25.2251 6.875 27.5 6.875C29.7749 6.875 31.625 8.72506 31.625 11ZM11.6875 2.0625H19.9375V6.96575L18.4752 5.99019L17.1875 7.27788L15.8125 5.90288L14.4375 7.27788L13.1498 5.99019L11.6875 6.96575V2.0625ZM4.8125 21.3125V2.75C4.8125 2.3705 5.12119 2.0625 5.5 2.0625H10.3125V9.53425L12.9752 7.75981L14.4375 9.22213L15.8125 7.84712L17.1875 9.22213L18.6498 7.75981L21.3125 9.53425V2.0625H26.125C26.5038 2.0625 26.8125 2.3705 26.8125 2.75V5.54744C24.1038 5.88775 22 8.2005 22 11C22 13.7995 24.1038 16.1122 26.8125 16.4526V19.0176C26.136 19.1661 25.4451 19.25 24.75 19.25H21.4486L21.329 19.7883C21.3063 19.8901 21.1805 20.4566 20.9963 21.3125H4.8125ZM18.5625 26.8125C18.5625 25.7991 19.2988 24.9583 20.2641 24.7864C20.0186 25.9827 19.7587 27.28 19.5181 28.5498C18.9399 28.1786 18.5625 27.5282 18.5625 26.8125ZM11.6875 32.3125H13.0625V37.8125H11.6875V32.3125ZM10.3125 37.8125H6.1875V32.3125H10.3125V37.8125ZM3.4375 32.3125H4.8125V37.8125H3.4375V32.3125ZM14.4375 37.8125V32.3125H18.8609C18.678 33.5012 18.5625 34.4816 18.5625 35.0625C18.5625 35.9116 19.2789 36.8521 20.4057 37.8125H14.4375ZM31.9791 41.7113C31.3252 42.0124 30.5497 42.0124 29.8966 41.7113C23.0539 38.5694 19.9375 36.0621 19.9375 35.0625C19.9375 32.7388 22.0282 23.0278 22.5527 20.625H24.75C26.9452 20.625 29.1232 19.9519 30.9375 18.7199C32.7518 19.9519 34.9298 20.625 37.125 20.625H39.3223C39.8468 23.0278 41.9375 32.7388 41.9375 35.0625C41.9375 36.0621 38.8211 38.5694 31.9791 41.7113Z" fill="#0C3360"/>
<path d="M30.9375 24.75C27.9049 24.75 25.4375 27.2174 25.4375 30.25C25.4375 33.2826 27.9049 35.75 30.9375 35.75C33.9701 35.75 36.4375 33.2826 36.4375 30.25C36.4375 27.2174 33.9701 24.75 30.9375 24.75ZM30.9375 34.375C28.6626 34.375 26.8125 32.5249 26.8125 30.25C26.8125 27.9751 28.6626 26.125 30.9375 26.125C33.2124 26.125 35.0625 27.9751 35.0625 30.25C35.0625 32.5249 33.2124 34.375 30.9375 34.375Z" fill="#0C3360"/>
<path d="M30.9375 27.5C29.4209 27.5 28.1875 28.7334 28.1875 30.25C28.1875 31.7666 29.4209 33 30.9375 33C32.4541 33 33.6875 31.7666 33.6875 30.25C33.6875 28.7334 32.4541 27.5 30.9375 27.5ZM30.9375 31.625C30.1792 31.625 29.5625 31.0083 29.5625 30.25C29.5625 29.4917 30.1792 28.875 30.9375 28.875C31.6958 28.875 32.3125 29.4917 32.3125 30.25C32.3125 31.0083 31.6958 31.625 30.9375 31.625Z" fill="#0C3360"/>
<path d="M38.5509 27.0889C38.5261 27.0304 38.4938 26.9156 38.5447 26.8077C38.8527 26.1649 38.7207 25.3942 38.2161 24.8896L36.2966 22.9707C35.7926 22.4682 35.0219 22.3334 34.3771 22.6421C34.2987 22.6799 34.1962 22.6779 34.0842 22.6304C34.0258 22.6057 33.9213 22.5479 33.8821 22.4359C33.6456 21.7642 33.0076 21.3125 32.2946 21.3125H29.5811C28.8681 21.3125 28.2294 21.7642 27.9922 22.4366C27.9524 22.5486 27.8486 22.6064 27.7757 22.6366C27.6767 22.6786 27.5749 22.6799 27.4945 22.6421C26.8517 22.3362 26.0817 22.4668 25.5771 22.9714L23.6576 24.8902C23.1536 25.3949 23.0216 26.1656 23.3289 26.8077C23.3805 26.9163 23.3475 27.0311 23.3173 27.1033C23.276 27.203 23.2052 27.2759 23.1227 27.3054C22.4517 27.5419 22 28.1799 22 28.8929V31.6064C22 32.3194 22.4517 32.9581 23.1248 33.1959C23.2066 33.2248 23.2774 33.2977 23.3241 33.4111C23.3489 33.4696 23.3812 33.5844 23.3303 33.6923C23.0223 34.3351 23.1543 35.1058 23.6589 35.6104L25.5784 37.5293C26.0817 38.0318 26.8524 38.1652 27.4979 37.8579C27.5756 37.8194 27.6781 37.8214 27.7908 37.8696C27.8493 37.8943 27.9537 37.9521 27.9929 38.0641C28.2294 38.7358 28.8674 39.1875 29.5804 39.1875H32.2939C33.0069 39.1875 33.6456 38.7358 33.8828 38.0634C33.9226 37.9514 34.0264 37.8936 34.0993 37.8634C34.199 37.8228 34.3001 37.8208 34.3805 37.8579C35.0233 38.1638 35.794 38.0332 36.2979 37.5286L38.2174 35.6098C38.7214 35.1051 38.8534 34.3344 38.5461 33.6923C38.4945 33.5837 38.5275 33.4689 38.5578 33.3967C38.599 33.297 38.6698 33.2241 38.7523 33.1946C39.4233 32.9581 39.875 32.3201 39.875 31.6071V28.8936C39.875 28.1806 39.4233 27.5419 38.7502 27.3041C38.6684 27.2752 38.5983 27.2016 38.5509 27.0889ZM38.5 31.6071C38.5 31.7377 38.4168 31.8553 38.2938 31.8993C37.8448 32.0574 37.4777 32.4115 37.2818 32.8824C37.0899 33.3424 37.0982 33.8539 37.3044 34.2863C37.3608 34.4046 37.3361 34.5462 37.2439 34.639L35.3251 36.5578C35.2323 36.6499 35.0886 36.6754 34.9731 36.619C34.5414 36.4107 34.0285 36.4024 33.5562 36.6011C33.0976 36.7916 32.7442 37.1587 32.5854 37.6069C32.5428 37.7293 32.4252 37.8125 32.2946 37.8125H29.5811C29.4504 37.8125 29.3329 37.7293 29.2889 37.6056C29.1308 37.1573 28.7767 36.7902 28.3064 36.5943C28.0851 36.5014 27.8513 36.4561 27.621 36.4561C27.3721 36.4561 27.1267 36.5097 26.9032 36.6169C26.7836 36.6733 26.642 36.6486 26.5492 36.5564L24.6304 34.6376C24.5376 34.5448 24.5135 34.4032 24.5699 34.2843C24.7761 33.8525 24.7844 33.341 24.5871 32.8687C24.3966 32.4101 24.0295 32.0561 23.5812 31.8986C23.4582 31.8553 23.375 31.7377 23.375 31.6071V28.8936C23.375 28.7629 23.4582 28.6454 23.5812 28.6014C24.0302 28.4433 24.3973 28.0892 24.5932 27.6183C24.7851 27.1583 24.7768 26.6468 24.5706 26.2144C24.5142 26.0961 24.5389 25.9545 24.6311 25.8617L26.5499 23.9429C26.6434 23.8508 26.7857 23.8253 26.9019 23.8817C27.3336 24.0893 27.8458 24.0983 28.3188 23.8996C28.7774 23.7091 29.1308 23.342 29.2896 22.8937C29.3322 22.7707 29.4498 22.6875 29.5804 22.6875H32.2939C32.4246 22.6875 32.5421 22.7707 32.5861 22.8944C32.7442 23.3427 33.0983 23.7098 33.5686 23.9057C34.0299 24.0982 34.5421 24.09 34.9718 23.8831C35.0914 23.8274 35.233 23.8514 35.3258 23.9436L37.2446 25.8624C37.3374 25.9552 37.3615 26.0968 37.3051 26.2157C37.0989 26.6475 37.0906 27.159 37.2879 27.6313C37.4784 28.0899 37.8455 28.4439 38.2938 28.6014C38.4168 28.6447 38.5 28.7623 38.5 28.8929V31.6071Z" fill="#0C3360"/>
<path d="M7.5625 26.8125C7.5625 24.9171 6.02044 23.375 4.125 23.375C2.22956 23.375 0.6875 24.9171 0.6875 26.8125C0.6875 28.7079 2.22956 30.25 4.125 30.25C6.02044 30.25 7.5625 28.7079 7.5625 26.8125ZM2.0625 26.8125C2.0625 25.6754 2.98787 24.75 4.125 24.75C5.26213 24.75 6.1875 25.6754 6.1875 26.8125C6.1875 27.9496 5.26213 28.875 4.125 28.875C2.98787 28.875 2.0625 27.9496 2.0625 26.8125Z" fill="#0C3360"/>
<path d="M4.125 27.5C4.5047 27.5 4.8125 27.1922 4.8125 26.8125C4.8125 26.4328 4.5047 26.125 4.125 26.125C3.7453 26.125 3.4375 26.4328 3.4375 26.8125C3.4375 27.1922 3.7453 27.5 4.125 27.5Z" fill="#0C3360"/>
<path d="M15.8125 26.8125C15.8125 24.9171 14.2704 23.375 12.375 23.375C10.4796 23.375 8.9375 24.9171 8.9375 26.8125C8.9375 28.7079 10.4796 30.25 12.375 30.25C14.2704 30.25 15.8125 28.7079 15.8125 26.8125ZM10.3125 26.8125C10.3125 25.6754 11.2379 24.75 12.375 24.75C13.5121 24.75 14.4375 25.6754 14.4375 26.8125C14.4375 27.9496 13.5121 28.875 12.375 28.875C11.2379 28.875 10.3125 27.9496 10.3125 26.8125Z" fill="#0C3360"/>
<path d="M12.375 27.5C12.7547 27.5 13.0625 27.1922 13.0625 26.8125C13.0625 26.4328 12.7547 26.125 12.375 26.125C11.9953 26.125 11.6875 26.4328 11.6875 26.8125C11.6875 27.1922 11.9953 27.5 12.375 27.5Z" fill="#0C3360"/>
<path d="M25.9238 11.2014L24.9517 12.1735L26.8127 14.0346L30.7363 10.111L29.7642 9.13892L26.8127 12.0904L25.9238 11.2014Z" fill="#0C3360"/>
<path d="M6.1875 18.5625H7.5625V19.9375H6.1875V18.5625Z" fill="#0C3360"/>
<path d="M11.6875 18.5625H13.0625V19.9375H11.6875V18.5625Z" fill="#0C3360"/>
<path d="M8.9375 18.5625H10.3125V19.9375H8.9375V18.5625Z" fill="#0C3360"/>
<path d="M6.1875 15.8125H13.0625V17.1875H6.1875V15.8125Z" fill="#0C3360"/>
</svg>
