<svg width="44" height="44" viewBox="0 0 44 44" fill="none" xmlns="http://www.w3.org/2000/svg">
<path d="M43.3125 1.375H35.75C34.8418 1.375 34.0773 1.969 33.803 2.78644L32.4974 1.74144C31.647 1.06219 30.5793 0.6875 29.491 0.6875H20.625C19.8667 0.6875 19.25 1.30419 19.25 2.0625C19.25 2.56575 19.3958 3.03119 19.6322 3.4375H16.5C15.3629 3.4375 14.4375 4.36287 14.4375 5.5C14.4375 5.742 14.487 5.97162 14.564 6.1875H13.75C12.8549 6.1875 12.0986 6.76431 11.814 7.5625H6.875C4.97956 7.5625 3.4375 9.10456 3.4375 11V16.1707C1.75931 17.5594 0.6875 19.657 0.6875 22C0.6875 24.343 1.75931 26.4406 3.4375 27.8293V31.625C3.4375 33.5204 4.97956 35.0625 6.875 35.0625H16.4746C16.3591 36.1591 15.7891 37.1532 14.8961 37.8125H14.4375C12.5421 37.8125 11 39.3546 11 41.25C11 42.3871 11.9254 43.3125 13.0625 43.3125H30.9375C32.0746 43.3125 33 42.3871 33 41.25C33 39.3546 31.4579 37.8125 29.5625 37.8125H29.1046C28.2116 37.1532 27.6416 36.1591 27.5261 35.0625H37.125C39.0204 35.0625 40.5625 33.5204 40.5625 31.625V15.125H43.3125V1.375ZM24.75 11.6875H20.6477H19.3449H17.875H16.5C16.1205 11.6875 15.8125 11.3795 15.8125 11C15.8125 10.6205 16.1205 10.3125 16.5 10.3125H24.75V11.6875ZM18.9331 14.4375H17.875C17.4955 14.4375 17.1875 14.1295 17.1875 13.75C17.1875 13.3705 17.4955 13.0625 17.875 13.0625H19.1393L18.9331 14.4375ZM14.564 11.6875C14.7895 12.3193 15.3106 12.8061 15.9637 12.9828C15.8682 13.2206 15.8125 13.4784 15.8125 13.75C15.8125 14.8871 16.7379 15.8125 17.875 15.8125H18.7268L17.2184 25.8692C17.1978 26.0047 17.1875 26.1422 17.1875 26.279V26.8125C17.1875 27.3158 17.3333 27.7812 17.5697 28.1875H12.5847C14.5331 26.818 15.8125 24.5575 15.8125 22C15.8125 17.8303 12.4197 14.4375 8.25 14.4375C8.01762 14.4375 7.78937 14.4519 7.5625 14.4726V11.6875H14.564ZM18.5625 26.8125V26.279C18.5625 26.2109 18.5673 26.1436 18.5776 26.0748L20.5294 13.0625H20.6477H25.4375H30.3456L32.2981 26.0762C32.3077 26.1429 32.3125 26.2109 32.3125 26.279V26.8125C32.3125 27.5708 31.6958 28.1875 30.9375 28.1875H19.9375C19.1792 28.1875 18.5625 27.5708 18.5625 26.8125ZM33.6572 25.8706L32.0389 15.0817C32.1977 14.9827 32.351 14.8754 32.4974 14.7586L33.803 13.7136C34.0773 14.531 34.8418 15.125 35.75 15.125H36.4375V28.1875H33.3053C33.5418 27.7812 33.6875 27.3158 33.6875 26.8125V26.279C33.6875 26.1422 33.6772 26.0047 33.6572 25.8706ZM15.8125 5.5C15.8125 5.1205 16.1205 4.8125 16.5 4.8125H22H27.2154L27.8678 5.46494C28.7767 6.37381 29.9853 6.875 31.2709 6.875H32.3125V5.5H31.2709C30.3524 5.5 29.4889 5.14181 28.8399 4.49281L27.7846 3.4375H27.5H22C21.2417 3.4375 20.625 2.82081 20.625 2.0625H29.491C30.2686 2.0625 31.031 2.32994 31.6381 2.816L33.6875 4.45569V12.0443L31.8086 13.5479L31.5294 11.6875H26.125V7.15962C26.125 6.71619 26.2976 6.29956 26.6111 5.98606L25.6389 5.01394C25.3041 5.34875 25.0697 5.75231 24.9219 6.1875H16.5C16.1205 6.1875 15.8125 5.8795 15.8125 5.5ZM13.75 7.5625H16.5H24.75V8.9375H16.5H13.75C13.3705 8.9375 13.0625 8.6295 13.0625 8.25C13.0625 7.8705 13.3705 7.5625 13.75 7.5625ZM4.8125 11C4.8125 9.86287 5.73787 8.9375 6.875 8.9375H11.814C12.0986 9.73569 12.8549 10.3125 13.75 10.3125H7.5625C6.80419 10.3125 6.1875 10.9292 6.1875 11.6875V14.7304C5.70762 14.8665 5.24837 15.0487 4.8125 15.2721V11ZM2.0625 22C2.0625 18.5879 4.83794 15.8125 8.25 15.8125C11.6621 15.8125 14.4375 18.5879 14.4375 22C14.4375 25.4121 11.6621 28.1875 8.25 28.1875C4.83794 28.1875 2.0625 25.4121 2.0625 22ZM31.625 41.25C31.625 41.6295 31.317 41.9375 30.9375 41.9375H13.0625C12.683 41.9375 12.375 41.6295 12.375 41.25C12.375 40.1129 13.3004 39.1875 14.4375 39.1875H29.5625C30.6996 39.1875 31.625 40.1129 31.625 41.25ZM27.1762 37.8125H16.8238C17.4137 37.0184 17.7712 36.069 17.8496 35.0625H26.1511C26.2295 36.069 26.587 37.0184 27.1762 37.8125ZM39.1875 31.625C39.1875 32.7621 38.2621 33.6875 37.125 33.6875H6.875C5.73787 33.6875 4.8125 32.7621 4.8125 31.625V28.7279C5.84513 29.2572 7.01181 29.5625 8.25 29.5625H36.4375C37.1958 29.5625 37.8125 28.9458 37.8125 28.1875V15.125H39.1875V31.625ZM41.9375 13.75H35.75C35.3705 13.75 35.0625 13.442 35.0625 13.0625V3.4375C35.0625 3.058 35.3705 2.75 35.75 2.75H41.9375V13.75Z" fill="#0C3360"/>
<path d="M8.9375 30.9375H10.3125V32.3125H8.9375V30.9375Z" fill="#0C3360"/>
<path d="M11.6875 30.9375H13.0625V32.3125H11.6875V30.9375Z" fill="#0C3360"/>
<path d="M6.1875 30.9375H7.5625V32.3125H6.1875V30.9375Z" fill="#0C3360"/>
<path d="M7.5625 24.0625C7.183 24.0625 6.875 23.7545 6.875 23.375H5.5C5.5 24.5121 6.42537 25.4375 7.5625 25.4375V26.8125H8.9375V25.4375H11V23.375C11 22.2379 10.0746 21.3125 8.9375 21.3125H7.5625C7.183 21.3125 6.875 21.0045 6.875 20.625V19.9375H8.9375C9.317 19.9375 9.625 20.2455 9.625 20.625H11C11 19.4879 10.0746 18.5625 8.9375 18.5625V17.1875H7.5625V18.5625H5.5V20.625C5.5 21.7621 6.42537 22.6875 7.5625 22.6875H8.9375C9.317 22.6875 9.625 22.9955 9.625 23.375V24.0625H7.5625Z" fill="#0C3360"/>
<path d="M27.5 17.875C27.5 19.0121 26.5746 19.9375 25.4375 19.9375C24.3004 19.9375 23.375 19.0121 23.375 17.875V14.4375H22V17.875C22 19.7704 23.5421 21.3125 25.4375 21.3125C27.3329 21.3125 28.875 19.7704 28.875 17.875V14.4375H27.5V17.875Z" fill="#0C3360"/>
</svg>
