<svg width="44" height="44" viewBox="0 0 44 44" fill="none" xmlns="http://www.w3.org/2000/svg">
<path d="M39.7815 24.2605C40.8258 23.6541 41.9375 22.4991 41.9375 20.625C41.9375 18.4965 40.9798 17.6653 40.2105 16.9984C39.5945 16.4629 39.1875 16.1102 39.1875 15.125V14.4375H38.5C38.4904 14.4375 38.1459 14.4471 37.7059 14.6314C37.3883 12.7304 36.3261 11.3953 35.0625 10.4974V6.875C35.0625 4.97956 33.5204 3.4375 31.625 3.4375H30.9375V2.75C30.9375 1.61287 30.0121 0.6875 28.875 0.6875H27.5C26.3629 0.6875 25.4375 1.61287 25.4375 2.75V3.4375H20.625V2.75C20.625 1.61287 19.6996 0.6875 18.5625 0.6875H17.1875C16.0504 0.6875 15.125 1.61287 15.125 2.75V3.4375H10.3125V2.75C10.3125 1.61287 9.38713 0.6875 8.25 0.6875H6.875C5.73787 0.6875 4.8125 1.61287 4.8125 2.75V3.4375H4.125C2.22956 3.4375 0.6875 4.97956 0.6875 6.875V28.875C0.6875 30.7704 2.22956 32.3125 4.125 32.3125H21.3125C21.3125 38.3776 26.2474 43.3125 32.3125 43.3125C38.3776 43.3125 43.3125 38.3776 43.3125 32.3125C43.3125 29.1314 41.9471 26.2707 39.7815 24.2605ZM41.9024 33C41.7505 35.1367 40.9021 37.0796 39.578 38.6059L37.6599 36.6877L36.6877 37.6599L38.6059 39.578C37.0796 40.9021 35.1361 41.7505 33 41.9024V39.1875H31.625V41.9024C29.4883 41.7505 27.5454 40.9021 26.0191 39.578L27.9373 37.6599L26.9651 36.6877L25.047 38.6059C23.7229 37.0796 22.8745 35.1361 22.7226 33H25.4375V31.625H22.7226C22.8745 29.4883 23.7229 27.5454 25.047 26.0191L26.9651 27.9373L27.9373 26.9651L26.0191 25.047C27.5454 23.7229 29.4889 22.8745 31.625 22.7226V25.4375H33V22.7226C35.1367 22.8745 37.0796 23.7229 38.6059 25.047L36.6877 26.9651L37.6599 27.9373L39.578 26.0191C40.9021 27.5454 41.7505 29.4889 41.9024 31.625H39.1875V33H41.9024ZM14.4375 19.9375H10.3125V17.1875H14.4375V19.9375ZM15.8125 17.1875H19.9375V19.9375H15.8125V17.1875ZM14.4375 21.3125V24.0625H10.3125V21.3125H14.4375ZM15.8125 21.3125H19.9375V24.0625H15.8125V21.3125ZM21.3125 21.3125H22.7459C22.9522 22.6167 23.7243 23.5091 24.5307 24.0625H21.3125V21.3125ZM22.7274 19.9375H21.3125V17.1875H24.1993C23.5703 17.7478 22.891 18.4772 22.7274 19.9375ZM26.8125 14.4664V13.0625H27.8809C27.5 13.4241 27.1274 13.8737 26.8125 14.4664ZM25.4375 14.4375V15.125C25.4375 15.3979 25.4038 15.6193 25.3454 15.8125H21.3125V13.0625H25.4375V14.4375ZM19.9375 15.8125H15.8125V13.0625H19.9375V15.8125ZM14.4375 15.8125H10.3125V13.0625H14.4375V15.8125ZM8.9375 15.8125H4.8125V13.0625H8.9375V15.8125ZM4.8125 17.1875H8.9375V19.9375H4.8125V17.1875ZM4.8125 21.3125H8.9375V24.0625H4.8125V21.3125ZM4.8125 25.4375H8.9375V28.1875H4.8125V25.4375ZM10.3125 25.4375H14.4375V28.1875H10.3125V25.4375ZM15.8125 25.4375H19.9375V28.1875H15.8125V25.4375ZM21.3125 25.4375H23.7394C23.0746 26.2652 22.528 27.1899 22.1224 28.1875H21.3125V25.4375ZM36.4327 15.7259C36.0415 16.3364 35.75 17.2322 35.75 18.5625H37.125C37.125 17.0514 37.5437 16.3701 37.9211 16.0634C38.1679 17.0459 38.7887 17.5842 39.3099 18.0359C39.9816 18.6202 40.5625 19.1235 40.5625 20.625C40.5625 22.3527 39.2019 23.0704 38.6045 23.3035C36.8198 22.0529 34.6528 21.3125 32.3125 21.3125C29.9722 21.3125 27.8053 22.0529 26.0205 23.3035C25.4231 23.0704 24.0625 22.3527 24.0625 20.625C24.0625 19.1235 24.6434 18.6202 25.3151 18.0359C25.8362 17.5842 26.4557 17.0466 26.7032 16.0648C27.0827 16.3728 27.5 17.0548 27.5 18.5625H28.875C28.875 16.9228 28.4336 15.9418 27.9049 15.3464C28.3312 14.399 28.9465 13.9212 29.5941 13.4207C30.4205 12.7827 31.3424 12.0718 31.5707 10.4363C33.0674 10.7807 36.3804 11.9701 36.4327 15.7259ZM26.8125 2.75C26.8125 2.3705 27.1205 2.0625 27.5 2.0625H28.875C29.2545 2.0625 29.5625 2.3705 29.5625 2.75V5.5C29.5625 5.8795 29.2545 6.1875 28.875 6.1875H27.5C27.1205 6.1875 26.8125 5.8795 26.8125 5.5V2.75ZM16.5 2.75C16.5 2.3705 16.808 2.0625 17.1875 2.0625H18.5625C18.942 2.0625 19.25 2.3705 19.25 2.75V5.5C19.25 5.8795 18.942 6.1875 18.5625 6.1875H17.1875C16.808 6.1875 16.5 5.8795 16.5 5.5V2.75ZM6.1875 2.75C6.1875 2.3705 6.4955 2.0625 6.875 2.0625H8.25C8.6295 2.0625 8.9375 2.3705 8.9375 2.75V5.5C8.9375 5.8795 8.6295 6.1875 8.25 6.1875H6.875C6.4955 6.1875 6.1875 5.8795 6.1875 5.5V2.75ZM4.125 4.8125H4.8125V5.5C4.8125 6.63713 5.73787 7.5625 6.875 7.5625H8.25C9.38713 7.5625 10.3125 6.63713 10.3125 5.5V4.8125H15.125V5.5C15.125 6.63713 16.0504 7.5625 17.1875 7.5625H18.5625C19.6996 7.5625 20.625 6.63713 20.625 5.5V4.8125H25.4375V5.5C25.4375 6.63713 26.3629 7.5625 27.5 7.5625H28.875C30.0121 7.5625 30.9375 6.63713 30.9375 5.5V4.8125H31.625C32.7621 4.8125 33.6875 5.73787 33.6875 6.875V8.9375H2.0625V6.875C2.0625 5.73787 2.98787 4.8125 4.125 4.8125ZM4.125 30.9375C2.98787 30.9375 2.0625 30.0121 2.0625 28.875V10.3125H30.195C30.0974 10.9361 29.8588 11.3403 29.5157 11.6875H3.4375V29.5625H21.6748C21.5586 30.0114 21.4672 30.4686 21.4081 30.9375H4.125Z" fill="#0C3360"/>
<path d="M34.375 32.3125C34.375 31.4174 33.7982 30.6611 33 30.3765V26.8125H31.625V30.3765C30.8268 30.6611 30.25 31.4174 30.25 32.3125C30.25 33.4496 31.1754 34.375 32.3125 34.375C32.6301 34.375 32.9271 34.2973 33.1959 34.1681L34.5764 35.5486L35.5486 34.5764L34.1681 33.1959C34.2973 32.9271 34.375 32.6301 34.375 32.3125ZM32.3125 33C31.933 33 31.625 32.692 31.625 32.3125C31.625 31.933 31.933 31.625 32.3125 31.625C32.692 31.625 33 31.933 33 32.3125C33 32.692 32.692 33 32.3125 33Z" fill="#0C3360"/>
</svg>
