<svg width="174" height="173" viewBox="0 0 174 173" fill="none" xmlns="http://www.w3.org/2000/svg">
<g clip-path="url(#clip0)">
<mask id="mask0" mask-type="alpha" maskUnits="userSpaceOnUse" x="35" y="6" width="98" height="140">
<path d="M114.076 6.31627L64.5399 125.351L35.7912 123.939L114.076 6.31627Z" fill="#0C3160"/>
<path d="M114.075 6.31624L132.565 124.992L98.8393 127.017L84.1862 127.888L114.075 6.31624Z" fill="#0C3160"/>
<path d="M114.076 6.31626L84.1865 127.888L94.0912 145.043L64.5399 125.351L114.076 6.31626Z" fill="#072A55"/>
<path d="M98.8396 127.017L94.0913 145.043L84.1865 127.888L98.8396 127.017Z" fill="#052042"/>
</mask>
<g mask="url(#mask0)">
<path d="M114.076 6.31627L64.5399 125.351L35.7912 123.939L114.076 6.31627Z" fill="#265592"/>
<path d="M114.075 6.31623L132.565 124.992L98.8393 127.017L84.1862 127.888L114.075 6.31623Z" fill="#265592"/>
<path d="M114.076 6.31626L84.1865 127.888L94.0912 145.043L64.5399 125.351L114.076 6.31626Z" fill="#143C6F"/>
<path d="M98.8396 127.017L94.0913 145.043L84.1865 127.888L98.8396 127.017Z" fill="#0B2D57"/>
<path fill-rule="evenodd" clip-rule="evenodd" d="M113.102 36.3021L111.993 36.9424L112.75 38.2548L113.861 37.6136L113.102 36.3021Z" fill="#0C1232"/>
<path fill-rule="evenodd" clip-rule="evenodd" d="M114.641 44.6128C115.586 45.0281 116.585 44.4328 117.736 43.5416C117.427 43.4407 117.159 43.2426 116.971 42.9769C115.955 43.8196 115.08 43.7863 114.611 44.1751C114.579 44.0213 114.597 43.8614 114.662 43.7182C114.726 43.5751 114.834 43.4559 114.971 43.3779C113.615 42.458 113.492 44.9745 114.068 45.6493C114.174 45.6198 114.273 45.5694 114.36 45.5011C114.446 45.4328 114.518 45.3479 114.572 45.2514C114.625 45.1549 114.659 45.0487 114.671 44.939C114.683 44.8294 114.673 44.7185 114.641 44.6128Z" fill="#0C1232"/>
<path fill-rule="evenodd" clip-rule="evenodd" d="M89.8296 36.9264L90.3341 37.8003L91.4406 37.1614L90.9361 36.2875L89.8296 36.9264Z" fill="#0C1232"/>
<path fill-rule="evenodd" clip-rule="evenodd" d="M129.478 110.715L128.371 111.354L128.877 112.23L129.984 111.591L129.478 110.715Z" fill="#0C1232"/>
<path fill-rule="evenodd" clip-rule="evenodd" d="M127.767 112.87C128.374 112.423 127.776 111.804 127.564 111.238C126.601 111.634 126.849 112.201 126.155 112.633C126.563 113.033 127.425 112.298 127.767 112.87Z" fill="#0C1232"/>
<path fill-rule="evenodd" clip-rule="evenodd" d="M128.524 114.181C127.781 111.813 126.161 118.31 127.97 114.501C127.997 114.448 128.533 114.216 128.524 114.181Z" fill="#0C1232"/>
<path fill-rule="evenodd" clip-rule="evenodd" d="M123.938 113.914C124.257 114.227 123.959 114.452 123.637 114.672C124.024 115.131 124.859 114.459 125.554 114.148C125.328 113.287 124.644 113.576 123.938 113.914Z" fill="#0C1232"/>
<path fill-rule="evenodd" clip-rule="evenodd" d="M94.4397 69.2109C92.9041 69.922 92.9709 70.862 93.7869 71.9161C94.3798 71.0668 95.1631 70.2525 94.4397 69.2109Z" fill="#0C1232"/>
<path fill-rule="evenodd" clip-rule="evenodd" d="M76.588 49.8114C75.1065 49.1146 73.6593 51.7471 74.5802 52.7198L76.793 51.4422C75.8101 51.1705 75.5805 50.7212 76.588 49.8114Z" fill="#0C1232"/>
<path fill-rule="evenodd" clip-rule="evenodd" d="M77.1511 55.8969C75.9424 54.8845 75.5171 57.1871 74.3822 57.4956C76.1536 58.8386 75.8505 56.7699 77.1511 55.8969Z" fill="#0C1232"/>
<path fill-rule="evenodd" clip-rule="evenodd" d="M110.193 119.521C110.42 119.187 110.543 118.793 110.546 118.389C110.902 118.166 111.429 117.107 111.717 118.186C112.047 117.678 112.516 117.275 113.069 117.028C112.243 116.812 111.714 116.048 110.423 116.857C110.11 117.171 110.473 117.55 110.495 117.881C110.432 117.458 110.277 117.054 110.04 116.698C109.085 117.492 107.746 118.23 108.579 119.288C109.096 119.096 109.005 118.813 108.881 118.531C110.272 118.054 108.603 119.6 110.193 119.521Z" fill="#0C1232"/>
<path fill-rule="evenodd" clip-rule="evenodd" d="M63.2854 38.2755C62.7871 37.0269 61.688 37.282 60.3145 38.2415C61.1648 38.6043 61.9413 39.1478 63.2854 38.2755Z" fill="#0C1232"/>
<path fill-rule="evenodd" clip-rule="evenodd" d="M118.366 137.518C117.826 137.972 118.493 138.602 117.761 139.03C118.978 140.023 118.877 139.042 120.231 138.189C119.979 137.042 118.813 138.178 118.366 137.518Z" fill="#0C1232"/>
<path fill-rule="evenodd" clip-rule="evenodd" d="M114.089 142.9C115.278 143.794 115.773 141.332 116.606 140.864C115.417 139.969 114.921 142.431 114.089 142.9Z" fill="#0C1232"/>
<path fill-rule="evenodd" clip-rule="evenodd" d="M89.7269 98.1408C91.2272 96.6033 87.9537 98.5029 87.2582 98.9836C85.7561 100.521 89.0301 98.618 89.7269 98.1408Z" fill="#0C1232"/>
<path fill-rule="evenodd" clip-rule="evenodd" d="M66.3808 67.9376C66.4532 68.0548 66.5551 68.1507 66.6765 68.2157C66.2525 68.1744 65.8284 68.2924 65.4867 68.5467C65.6859 69.5019 65.5228 69.2195 66.2225 69.8212C67.0137 69.3644 66.3018 68.8953 67.438 68.4259L67.2061 68.3462C67.7772 68.2591 68.3211 68.0437 68.7969 67.716C69.2726 67.3884 69.668 66.9569 69.9529 66.4544C69.3295 65.5319 67.498 67.6262 66.3808 67.9376Z" fill="#0C1232"/>
<path fill-rule="evenodd" clip-rule="evenodd" d="M112.281 147.438C114.055 146.894 113.355 145.995 114.797 145.402C114.485 144.634 110.663 146.612 112.281 147.438Z" fill="#0C1232"/>
<path fill-rule="evenodd" clip-rule="evenodd" d="M104.063 137.04C104.196 137.668 106.532 137.623 105.975 136.517C106.701 136.476 107.127 137.19 108.138 136.433C107.827 135.617 106.542 135.846 107.382 135.124C106.591 134.283 104.247 136.475 104.063 137.04Z" fill="#0C1232"/>
<path fill-rule="evenodd" clip-rule="evenodd" d="M101.543 139.075L102.651 138.435L102.147 137.563L101.039 138.203L101.543 139.075Z" fill="#0C1232"/>
<path fill-rule="evenodd" clip-rule="evenodd" d="M54.6839 56.6344C55.3919 53.0351 50.319 56.7997 53.5775 57.2731L54.6839 56.6344Z" fill="#0C1232"/>
<path fill-rule="evenodd" clip-rule="evenodd" d="M56.553 63.7104C55.2183 65.1323 58.0787 64.723 58.9753 64.0618C58.5616 62.9586 57.0897 64.5006 56.553 63.7104Z" fill="#0C1232"/>
<path fill-rule="evenodd" clip-rule="evenodd" d="M59.8832 68.1948C59.5753 67.9017 59.0757 68.0805 58.8217 67.6405L57.7173 68.2781L58.7273 70.0275C59.1247 69.4172 58.7169 68.6927 59.8832 68.1948Z" fill="#0C1232"/>
<path fill-rule="evenodd" clip-rule="evenodd" d="M47.1865 67.9528C47.6433 68.9507 49.2657 67.0145 50.2097 66.7899C49.6525 66.5621 49.0293 66.5555 48.4674 66.7717C47.9055 66.9878 47.4474 67.4103 47.1865 67.9528Z" fill="#0C1232"/>
<path fill-rule="evenodd" clip-rule="evenodd" d="M87.4903 139.037C89.2015 142.672 86.436 136.792 87.4903 139.037V139.037Z" fill="#0C1232"/>
<path fill-rule="evenodd" clip-rule="evenodd" d="M82.5004 135.509C84.1959 134.955 83.1152 133.996 84.2108 133.357C83.5 132.534 81.5308 134.778 82.5004 135.509Z" fill="#0C1232"/>
<path fill-rule="evenodd" clip-rule="evenodd" d="M39.9327 66.8995C41.3023 66.4306 40.2418 65.6114 41.0927 65.0646C42.122 65.1716 42.0629 64.7341 42.7531 64.106C42.4794 64.0382 42.2223 63.9157 41.9972 63.7458C41.7721 63.576 41.5837 63.3624 41.4433 63.1179C39.9537 64.2322 39.4502 65.4927 39.9327 66.8995Z" fill="#0C1232"/>
<path fill-rule="evenodd" clip-rule="evenodd" d="M77.7162 133.614C77.2016 133.119 76.1166 134.052 75.2461 134.456C75.984 135.379 77.3029 134.605 77.7162 133.614Z" fill="#0C1232"/>
<path fill-rule="evenodd" clip-rule="evenodd" d="M70.8075 130.612C71.905 131.071 73.4912 130.301 74.5902 130.758C75.8283 130.14 73.9422 129.065 73.8791 128.256C72.4845 128.985 71.1757 129.73 70.8075 130.612Z" fill="#0C1232"/>
<path fill-rule="evenodd" clip-rule="evenodd" d="M57.946 101.929L56.8369 102.57L57.3415 103.444L58.4505 102.803L57.946 101.929Z" fill="#0C1232"/>
<path fill-rule="evenodd" clip-rule="evenodd" d="M72.3321 146.041C75.0173 146.957 75.5925 140.951 72.1818 143.215C71.4887 144.489 74.2131 144.494 72.3321 146.041Z" fill="#0C1232"/>
<path fill-rule="evenodd" clip-rule="evenodd" d="M61.8912 124.113C61.039 123.153 59.7307 125.325 60.7303 125.946L62.3949 124.985C61.8277 124.794 61.2744 124.591 61.8912 124.113Z" fill="#0C1232"/>
<path fill-rule="evenodd" clip-rule="evenodd" d="M56.1443 119.275C57.6808 118.566 57.6117 117.623 56.7977 116.57C55.258 117.28 55.8937 118.306 56.1443 119.275Z" fill="#0C1232"/>
<path fill-rule="evenodd" clip-rule="evenodd" d="M60.9367 127.576L62.0436 126.937L61.539 126.063L60.4321 126.703L60.9367 127.576Z" fill="#0C1232"/>
<path fill-rule="evenodd" clip-rule="evenodd" d="M56 129.26C57.1392 129.741 59.5559 129.838 60.3825 127.895C59.189 127.684 57.6936 128.223 56 129.26Z" fill="#0C1232"/>
<path fill-rule="evenodd" clip-rule="evenodd" d="M40.7148 100.229L39.9583 98.9189C39.6316 99.5083 39.1435 99.9925 38.5514 100.314C39.0982 100.714 39.7769 100.801 40.7148 100.229Z" fill="#0C1232"/>
<path fill-rule="evenodd" clip-rule="evenodd" d="M55.7007 130.018C54.8642 128.809 52.4591 130.484 53.7377 131.733C54.9988 131.25 55.0283 130.584 55.7007 130.018Z" fill="#0C1232"/>
<path fill-rule="evenodd" clip-rule="evenodd" d="M50.7091 126.489C51.0964 126.947 51.9292 126.276 52.6209 125.968C52.4001 125.105 51.714 125.392 51.0095 125.732C51.3277 126.048 51.0325 126.273 50.7091 126.489Z" fill="#0C1232"/>
<path fill-rule="evenodd" clip-rule="evenodd" d="M62.1074 144.952C61.9075 144.825 61.6822 144.743 61.4474 144.712C61.2126 144.681 60.974 144.701 60.7478 144.772L60.2943 143.986C58.8581 144.578 59.5487 145.479 57.776 146.02C58.6078 146.392 59.6827 146.148 60.9901 145.325C61.3883 145.299 61.7731 145.17 62.1074 144.952Z" fill="#0C1232"/>
<path fill-rule="evenodd" clip-rule="evenodd" d="M54.5474 138.254L55.0507 139.126L56.1578 138.487L55.6544 137.615L54.5474 138.254Z" fill="#0C1232"/>
<path fill-rule="evenodd" clip-rule="evenodd" d="M42.643 118.915C41.0802 119.887 38.8799 120.772 38.4669 121.911C40.489 122.029 43.5863 121.58 42.643 118.915Z" fill="#0C1232"/>
<path fill-rule="evenodd" clip-rule="evenodd" d="M49.3532 133.098C48.6497 132.72 47.7005 132.966 46.6328 133.501C47.6335 135.082 48.0759 134.136 49.3532 133.098Z" fill="#0C1232"/>
<path fill-rule="evenodd" clip-rule="evenodd" d="M45.7751 128.175C46.9009 127.28 44.8685 125.606 44.2621 125.554C42.4206 127.084 44.8385 127.621 45.7751 128.175Z" fill="#0C1232"/>
<path fill-rule="evenodd" clip-rule="evenodd" d="M43.0551 128.579C42.9452 128.667 42.9274 128.768 42.8316 128.858C42.4591 128.828 42.0888 128.939 41.7948 129.17C42.468 129.725 41.3056 130.146 41.138 130.619C41.2307 130.718 41.3523 130.785 41.4856 130.81C41.6188 130.836 41.7568 130.818 41.8796 130.761C41.8171 131.038 41.806 131.325 41.8467 131.607C43.6979 130.808 44.1007 129.799 43.0551 128.579Z" fill="#0C1232"/>
<path fill-rule="evenodd" clip-rule="evenodd" d="M41.0905 130.297C40.8394 129.502 40.1361 129.845 39.7826 129.305C38.1754 130.276 36.7517 131.263 38.022 132.651C39.313 131.071 40.1086 131.92 41.0905 130.297Z" fill="#0C1232"/>
<path fill-rule="evenodd" clip-rule="evenodd" d="M36.4043 126.016C37.2556 126.974 38.5654 124.8 37.5599 124.183C36.9231 124.754 37.1348 125.454 36.4043 126.016Z" fill="#0C1232"/>
<path fill-rule="evenodd" clip-rule="evenodd" d="M43.169 145.407C41.8455 143.648 40.2164 147.724 43.169 145.407V145.407Z" fill="#0C1232"/>
<path fill-rule="evenodd" clip-rule="evenodd" d="M117.006 10.4583L118.67 9.4973C118.749 7.75524 115.457 9.65567 117.006 10.4583Z" fill="#0C1232"/>
<path fill-rule="evenodd" clip-rule="evenodd" d="M129.748 74.7402C129.863 74.5888 130.233 73.2087 129.549 73.1065C128.993 73.0269 129.02 75.7134 129.748 74.7402Z" fill="#0C1232"/>
<path fill-rule="evenodd" clip-rule="evenodd" d="M126.02 73.3982C125.752 72.4221 123.132 74.2155 124.614 74.7929L125.72 74.1541C125.404 73.8411 125.699 73.6155 126.02 73.3982Z" fill="#0C1232"/>
<path fill-rule="evenodd" clip-rule="evenodd" d="M116.895 58.8687C112.23 59.0336 115.919 62.3904 116.895 58.8687V58.8687Z" fill="#0C1232"/>
<path fill-rule="evenodd" clip-rule="evenodd" d="M86.1343 11.976L85.6306 11.1037L84.52 11.7449L85.0237 12.6172L86.1343 11.976Z" fill="#0C1232"/>
<path fill-rule="evenodd" clip-rule="evenodd" d="M119.573 72.4621C118.587 73.517 118.337 74.6822 116.202 75.5729C117.778 77.2017 121.612 74.4691 119.573 72.4621Z" fill="#0C1232"/>
<path fill-rule="evenodd" clip-rule="evenodd" d="M109.797 67.0403C110.182 67.4997 111.02 66.8237 111.714 66.5157C111.488 65.6563 110.808 65.942 110.101 66.2837C110.415 66.5947 110.122 66.82 109.797 67.0403Z" fill="#0C1232"/>
<path fill-rule="evenodd" clip-rule="evenodd" d="M117.063 80.9002C117.642 80.3649 116.838 79.4786 116.306 79.5894C114.879 79.8855 115.947 81.9279 117.063 80.9002Z" fill="#0C1232"/>
<path fill-rule="evenodd" clip-rule="evenodd" d="M112.026 78.5652C112.409 79.3907 113.238 79.0949 113.589 79.9942C114.614 79.4765 114.449 78.7844 115.552 78.278C114.688 77.3113 112.498 77.3668 112.026 78.5652Z" fill="#0C1232"/>
<path fill-rule="evenodd" clip-rule="evenodd" d="M89.2489 73.6598L90.3594 73.0187L89.6031 71.7089L88.4927 72.35L89.2489 73.6598Z" fill="#0C1232"/>
<path fill-rule="evenodd" clip-rule="evenodd" d="M94.5628 102.046L93.4548 102.686C94.1292 105.134 96.8679 101.788 94.5628 102.046Z" fill="#0C1232"/>
<path fill-rule="evenodd" clip-rule="evenodd" d="M38.2229 7.02039C38.6073 7.48439 39.445 6.80787 40.1406 6.49782C39.9126 5.63692 39.2341 5.92121 38.5283 6.26281C38.8435 6.57678 38.5462 6.80319 38.2229 7.02039Z" fill="#0C1232"/>
<path fill-rule="evenodd" clip-rule="evenodd" d="M112.925 141.53L113.429 142.403L115.094 141.442C114.82 141.374 114.563 141.251 114.338 141.08C114.113 140.91 113.925 140.696 113.785 140.451C113.384 140.795 113.487 141.208 112.925 141.53Z" fill="#0C1232"/>
<path fill-rule="evenodd" clip-rule="evenodd" d="M79.6497 96.6761C78.364 99.1822 82.1798 97.1768 79.6497 96.6761V96.6761Z" fill="#0C1232"/>
<path fill-rule="evenodd" clip-rule="evenodd" d="M89.8491 130.973C90.158 131.267 90.6538 131.092 90.9045 131.53L92.0167 130.888C91.7366 129.808 90.7441 130.514 89.8491 130.973Z" fill="#0C1232"/>
<path fill-rule="evenodd" clip-rule="evenodd" d="M79.9668 115.13C80.572 114.686 79.9719 114.066 79.7633 113.502C78.7963 113.894 79.0463 114.466 78.3491 114.897C78.7636 115.293 79.626 114.558 79.9668 115.13Z" fill="#0C1232"/>
<path fill-rule="evenodd" clip-rule="evenodd" d="M74.6244 113.557C74.3247 113.8 74.2957 113.914 74.3944 113.954L73.9973 114.107C74.2094 114.054 74.4208 114.007 74.6332 113.959C74.7415 113.94 74.8483 113.913 74.9527 113.878C75.3986 113.778 75.8136 113.571 76.1621 113.275L76.0008 113.337C76.9061 112.589 75.3032 113.007 74.6244 113.557Z" fill="#0C1232"/>
<path fill-rule="evenodd" clip-rule="evenodd" d="M77.9071 125.637L76.8028 126.275L77.092 126.776C76.2727 126.998 75.8455 128.643 77.159 128.425C77.6971 127.97 77.0328 127.34 77.7605 126.911C77.7518 126.905 77.7433 126.907 77.7348 126.901L78.4111 126.51L77.9071 125.637Z" fill="#0C1232"/>
<path fill-rule="evenodd" clip-rule="evenodd" d="M72.9186 122.113C72.3925 120.58 70.1909 123.25 69.3908 122.402C68.1726 124.169 71.7417 122.828 72.9186 122.113Z" fill="#0C1232"/>
<path fill-rule="evenodd" clip-rule="evenodd" d="M66.3342 143.968C62.3684 142.538 63.2065 147.175 66.3342 143.968V143.968Z" fill="#0C1232"/>
<path fill-rule="evenodd" clip-rule="evenodd" d="M123.811 7.13904C123.15 6.6607 122.352 6.51419 121.693 6.03063C121.151 6.48698 121.817 7.11656 121.088 7.5435C121.663 8.23531 122.615 7.99175 123.811 7.13904Z" fill="#0C1232"/>
<path fill-rule="evenodd" clip-rule="evenodd" d="M117.162 4.57075C115.838 2.80849 114.212 6.88825 117.162 4.57075V4.57075Z" fill="#0C1232"/>
<path fill-rule="evenodd" clip-rule="evenodd" d="M117.58 33.4485C118.539 32.6741 116.909 33.0954 116.221 33.6504C115.263 34.4261 116.896 34.0036 117.58 33.4485Z" fill="#0C1232"/>
<path fill-rule="evenodd" clip-rule="evenodd" d="M98.1193 7.40974C99.3835 6.92886 99.4117 6.2655 100.081 5.69436C99.8137 4.82105 96.5297 6.70592 98.1193 7.40974Z" fill="#0C1232"/>
<path fill-rule="evenodd" clip-rule="evenodd" d="M110.832 33.2698C109.492 34.131 111.52 34.8432 111.84 35.0161C113.4 33.7201 112.004 33.1481 110.832 33.2698Z" fill="#0C1232"/>
<path fill-rule="evenodd" clip-rule="evenodd" d="M130.705 68.9721C132.002 68.493 131.4 67.7387 131.055 67.021C130.488 67.6043 130.242 68.2367 130.705 68.9721Z" fill="#0C1232"/>
<path fill-rule="evenodd" clip-rule="evenodd" d="M115.371 41.1314C113.846 39.3421 112.222 43.4175 115.371 41.1314V41.1314Z" fill="#0C1232"/>
<path fill-rule="evenodd" clip-rule="evenodd" d="M100.247 21.3255C99.6187 20.4001 97.786 22.4972 96.6686 22.8094C98.0418 24.0959 98.0662 22.0718 100.247 21.3255Z" fill="#0C1232"/>
<path fill-rule="evenodd" clip-rule="evenodd" d="M132.074 81.5754L132.832 82.8888L134.497 81.9278C134.044 80.9144 133.236 80.7987 132.074 81.5754Z" fill="#0C1232"/>
<path fill-rule="evenodd" clip-rule="evenodd" d="M121.434 64.4223C121.55 64.1311 122.787 65.3973 122.745 65.4138C123.694 65.0272 122.162 62.6044 121.434 64.4223Z" fill="#0C1232"/>
<path fill-rule="evenodd" clip-rule="evenodd" d="M111.948 45.4369C111.748 43.8017 110.271 45.3748 109.23 45.8444C109.807 46.535 110.759 46.287 111.948 45.4369Z" fill="#0C1232"/>
<path fill-rule="evenodd" clip-rule="evenodd" d="M89.2009 7.31664C89.1147 7.24151 89.0466 7.14799 89.0014 7.04296C88.9563 6.93793 88.9352 6.82409 88.94 6.70987C88.9448 6.59564 88.9751 6.48404 89.0289 6.38313C89.0826 6.28223 89.1585 6.19462 89.2506 6.12694C88.7246 5.66282 87.8801 5.99985 87.3863 5.45334C85.7629 6.44125 87.4127 8.91292 89.2009 7.31664Z" fill="#0C1232"/>
<path fill-rule="evenodd" clip-rule="evenodd" d="M90.1613 10.2577C88.946 9.2663 89.0504 10.245 87.6952 11.0968C88.4313 12.0222 89.7508 11.2513 90.1613 10.2577Z" fill="#0C1232"/>
<path fill-rule="evenodd" clip-rule="evenodd" d="M87.091 12.6145L85.9846 13.2532C86.0713 13.3286 86.1399 13.4223 86.1853 13.5278C86.2307 13.6332 86.2518 13.7475 86.247 13.8622C86.2422 13.9769 86.2116 14.0891 86.1576 14.1904C86.1035 14.2916 86.0273 14.3794 85.9347 14.4472C86.4464 14.9418 87.5327 14.0101 88.4039 13.6042C88.1496 12.8092 87.445 13.1543 87.091 12.6145Z" fill="#0C1232"/>
<path fill-rule="evenodd" clip-rule="evenodd" d="M116.803 71.7529L119.02 70.473C118.345 68.1578 114.794 69.9306 116.803 71.7529Z" fill="#0C1232"/>
<path fill-rule="evenodd" clip-rule="evenodd" d="M95.6205 35.0631C94.2825 36.4841 97.1471 36.0724 98.0418 35.413C98.002 33.3643 96.0052 36.2365 95.6205 35.0631Z" fill="#0C1232"/>
<path fill-rule="evenodd" clip-rule="evenodd" d="M118.216 76.7637C119.159 77.2337 120.432 77.7287 120.94 76.3589C120.738 74.7197 119.258 76.2942 118.216 76.7637Z" fill="#0C1232"/>
<path fill-rule="evenodd" clip-rule="evenodd" d="M121.4 84.8261C121.652 85.6231 122.355 85.278 122.709 85.8183C123.112 85.475 123.006 85.062 123.566 84.7411C123.012 84.3446 122.341 84.254 121.4 84.8261Z" fill="#0C1232"/>
<path fill-rule="evenodd" clip-rule="evenodd" d="M103.392 49.7954C100.78 49.1483 102.29 52.1978 103.392 49.7954V49.7954Z" fill="#0C1232"/>
<path fill-rule="evenodd" clip-rule="evenodd" d="M95.6772 40.2717C96.5919 39.6048 96.5044 38.7947 95.7713 37.889C94.8631 38.5528 94.9468 39.3658 95.6772 40.2717Z" fill="#0C1232"/>
<path fill-rule="evenodd" clip-rule="evenodd" d="M129.723 99.2403C128.514 101.352 132.467 100.44 129.723 99.2403V99.2403Z" fill="#0C1232"/>
<path fill-rule="evenodd" clip-rule="evenodd" d="M114.891 72.2765C112.078 73.088 113.05 76.0129 115.348 74.3429C114.822 73.6022 115.49 73.0333 114.891 72.2765Z" fill="#0C1232"/>
<path fill-rule="evenodd" clip-rule="evenodd" d="M105.308 55.6787L104.803 54.8032C103.503 55.2816 104.11 56.0353 104.453 56.7528C104.853 56.411 104.753 55.9973 105.308 55.6787Z" fill="#0C1232"/>
<path fill-rule="evenodd" clip-rule="evenodd" d="M106.823 64.7024C107.137 64.9968 107.635 64.8186 107.886 65.254L108.992 64.6152C108.714 63.5337 107.72 64.2392 106.823 64.7024Z" fill="#0C1232"/>
<path fill-rule="evenodd" clip-rule="evenodd" d="M69.5545 5.26107C71.582 6.18511 71.212 3.87827 73.4319 3.02248C72.729 1.94198 71.0752 3.22697 69.6033 4.07123C69.6894 4.14636 69.7577 4.23977 69.8029 4.34477C69.8481 4.44978 69.869 4.56364 69.8643 4.67786C69.8596 4.79208 69.8294 4.90375 69.7758 5.0047C69.7222 5.10565 69.6465 5.19325 69.5545 5.26107Z" fill="#0C1232"/>
<path fill-rule="evenodd" clip-rule="evenodd" d="M85.3873 27.5742C85.4127 27.522 85.9551 27.2866 85.9455 27.2519C85.2035 24.8845 83.5804 31.3833 85.3873 27.5742Z" fill="#0C1232"/>
<path fill-rule="evenodd" clip-rule="evenodd" d="M72.9823 7.36371L74.0929 6.72251L73.5886 5.84916L72.478 6.49036L72.9823 7.36371Z" fill="#0C1232"/>
<path fill-rule="evenodd" clip-rule="evenodd" d="M79.392 22.2999C79.792 21.9573 79.6886 21.544 80.2482 21.2231C79.694 20.8266 79.0219 20.734 78.0828 21.3081C78.3329 22.1042 79.0398 21.7584 79.392 22.2999Z" fill="#0C1232"/>
<path fill-rule="evenodd" clip-rule="evenodd" d="M85.599 35.6071L85.0945 34.7332C83.7949 35.2103 84.399 35.967 84.7429 36.6839C85.1417 36.3427 85.0429 35.9268 85.599 35.6071Z" fill="#0C1232"/>
<path fill-rule="evenodd" clip-rule="evenodd" d="M95.8943 61.1136C96.6591 60.6207 97.4196 60.1372 97.806 60.5904C98.4823 60.021 97.6364 59.2319 97.3517 58.5237C96.8373 59.8264 94.802 59.1399 95.8943 61.1136Z" fill="#0C1232"/>
<path fill-rule="evenodd" clip-rule="evenodd" d="M121.623 112.072C122.075 113.076 123.7 111.135 124.645 110.91C123.946 109.833 121.984 111.07 121.623 112.072Z" fill="#0C1232"/>
<path fill-rule="evenodd" clip-rule="evenodd" d="M101.8 75.1775C101.548 74.3804 100.84 74.7264 100.485 74.1888C99.312 74.6344 100.826 76.6444 101.8 75.1775Z" fill="#0C1232"/>
<path fill-rule="evenodd" clip-rule="evenodd" d="M95.1415 66.2051L96.25 65.5651L95.7466 64.6933L94.6382 65.3333L95.1415 66.2051Z" fill="#0C1232"/>
<path fill-rule="evenodd" clip-rule="evenodd" d="M63.2651 13.5532C63.5397 13.621 63.7979 13.7437 64.0237 13.9141C64.2496 14.0845 64.4384 14.299 64.5789 14.5446C65.2171 13.9681 65.0069 13.2738 65.7352 12.7118C65.5187 12.6 65.282 12.5331 65.039 12.515C64.796 12.497 64.5518 12.5282 64.3212 12.6068C64.0905 12.6853 63.878 12.8097 63.6966 12.9723C63.5151 13.1349 63.3683 13.3325 63.2651 13.5532Z" fill="#0C1232"/>
<path fill-rule="evenodd" clip-rule="evenodd" d="M68.0082 23.048C68.4705 22.289 69.1544 21.6901 69.9678 21.3319C68.2308 20.7631 67.0378 20.8423 68.0082 23.048Z" fill="#0C1232"/>
<path fill-rule="evenodd" clip-rule="evenodd" d="M98.6755 78.7269L99.1794 79.5997C99.6063 79.2471 99.8032 79.4691 99.9892 79.7169C101.164 79.2701 99.6475 77.2606 98.6755 78.7269Z" fill="#0C1232"/>
<path fill-rule="evenodd" clip-rule="evenodd" d="M116.433 113.322C117.954 113.554 117.129 114.381 117.695 115.507C119.784 115.188 117.752 111.668 116.433 113.322Z" fill="#0C1232"/>
<path fill-rule="evenodd" clip-rule="evenodd" d="M79.41 47.913C78.2251 49.9717 82.3771 48.558 79.41 47.913V47.913Z" fill="#0C1232"/>
<path fill-rule="evenodd" clip-rule="evenodd" d="M92.5261 70.6308C91.2257 71.1077 91.8342 71.8626 92.1756 72.5775C92.5762 72.2359 92.4733 71.8223 93.0289 71.5015L92.5261 70.6308Z" fill="#0C1232"/>
<path fill-rule="evenodd" clip-rule="evenodd" d="M86.8306 64.5981C84.1841 65.8154 86.9628 67.8197 86.6341 69.373C88.2676 68.2753 88.5755 66.9851 89.7517 65.8232C87.9362 65.3372 87.7534 65.7438 86.8306 64.5981Z" fill="#0C1232"/>
<path fill-rule="evenodd" clip-rule="evenodd" d="M135.096 145.647C132.486 145 133.998 148.045 135.096 145.647V145.647Z" fill="#0C1232"/>
<path fill-rule="evenodd" clip-rule="evenodd" d="M78.5618 55.3934C78.6557 55.5355 78.759 55.6712 78.8712 55.7995C78.2165 56.4868 77.8728 57.2199 77.2009 57.9026C77.8667 58.6161 79.979 57.1788 79.4319 56.2046C80.0307 56.3229 80.5288 55.3501 81.8358 54.6683C80.9911 54.2925 79.6862 55.0667 78.5618 55.3934Z" fill="#0C1232"/>
<path fill-rule="evenodd" clip-rule="evenodd" d="M55.3558 8.80352C55.1052 8.0091 54.402 8.35271 54.0451 7.81386C52.8701 8.26059 54.3859 10.2734 55.3558 8.80352Z" fill="#0C1232"/>
<path fill-rule="evenodd" clip-rule="evenodd" d="M114.169 115.794C114.247 114.049 110.955 115.949 112.505 116.755L114.169 115.794Z" fill="#0C1232"/>
<path fill-rule="evenodd" clip-rule="evenodd" d="M60.9549 23.6244C59.6535 24.1045 60.2609 24.8573 60.6005 25.5789C61.0021 25.234 60.9025 24.8177 61.4603 24.4998L60.9549 23.6244Z" fill="#0C1232"/>
<path fill-rule="evenodd" clip-rule="evenodd" d="M49.8128 5.59867C49.4325 3.71947 46.9716 6.20357 46.7887 6.76002C47.2414 7.76163 48.8689 5.82459 49.8128 5.59867Z" fill="#0C1232"/>
<path fill-rule="evenodd" clip-rule="evenodd" d="M49.3586 9.93692L50.469 9.2958L49.9645 8.42187L48.854 9.06299L49.3586 9.93692Z" fill="#0C1232"/>
<path fill-rule="evenodd" clip-rule="evenodd" d="M54.3027 21.0588L55.4108 20.419L54.9059 19.5446L53.7979 20.1843L54.3027 21.0588Z" fill="#0C1232"/>
<path fill-rule="evenodd" clip-rule="evenodd" d="M74.7823 55.2468L73.6753 55.886L74.1796 56.7594L75.2866 56.1203L74.7823 55.2468Z" fill="#0C1232"/>
<path fill-rule="evenodd" clip-rule="evenodd" d="M113.17 126.851C113.83 127.333 114.624 127.482 115.288 127.96C116.409 127.076 114.549 124.972 113.17 126.851Z" fill="#0C1232"/>
<path fill-rule="evenodd" clip-rule="evenodd" d="M92.2392 90.5979C92.6242 91.0581 93.4616 90.3811 94.1503 90.0772C93.3257 90.0088 93.0492 88.5628 91.7341 89.7229C92.3 89.9164 92.8555 90.1193 92.2392 90.5979Z" fill="#0C1232"/>
<path fill-rule="evenodd" clip-rule="evenodd" d="M88.0014 81.9786C86.7253 82.9505 88.9465 83.6899 89.8622 82.65C89.3381 82.189 88.497 82.5234 88.0014 81.9786Z" fill="#0C1232"/>
<path fill-rule="evenodd" clip-rule="evenodd" d="M122.606 147.031C123.882 148.306 124.439 146.361 125.375 145.432C124.165 144.423 124.31 146.805 122.606 147.031Z" fill="#0C1232"/>
<path fill-rule="evenodd" clip-rule="evenodd" d="M77.968 69.7151C78.4642 70.9662 79.5641 70.7065 80.9401 69.7477C80.4399 68.4994 79.3469 68.7567 77.968 69.7151Z" fill="#0C1232"/>
<path fill-rule="evenodd" clip-rule="evenodd" d="M53.6073 31.3622C53.6942 31.4372 53.7631 31.5309 53.8087 31.6363C53.8543 31.7416 53.8755 31.8559 53.8707 31.9706C53.8659 32.0853 53.8351 32.1975 53.7809 32.2987C53.7266 32.3998 53.6502 32.4874 53.5573 32.5549C54.9358 33.2391 55.6482 30.4954 57.183 29.879C56.2883 29.6327 55.7095 28.5797 54.8162 28.3359C53.9165 30.1412 53.5891 30.5148 52.2462 31.5634C52.5099 31.9792 53.1258 31.5085 53.6073 31.3622Z" fill="#0C1232"/>
<path fill-rule="evenodd" clip-rule="evenodd" d="M63.6909 42.4312C61.7605 42.0524 61.3298 45.2709 63.5944 44.8193C65.2762 44.2617 62.0076 42.9862 63.6909 42.4312Z" fill="#0C1232"/>
<path fill-rule="evenodd" clip-rule="evenodd" d="M44.7277 10.8616L43.063 11.8228L43.8204 13.1346C44.7868 12.7411 44.5355 12.171 45.2322 11.7355L44.7277 10.8616Z" fill="#0C1232"/>
<path fill-rule="evenodd" clip-rule="evenodd" d="M53.5055 27.345C52.9349 27.9269 52.6884 28.5629 53.1538 29.2957C53.7256 28.7111 53.9664 28.0797 53.5055 27.345Z" fill="#0C1232"/>
<path fill-rule="evenodd" clip-rule="evenodd" d="M81.9541 77.8955C80.9391 78.5509 82.4029 79.5618 81.0473 80.169C82.4771 81.0983 83.4328 78.7016 81.9541 77.8955Z" fill="#0C1232"/>
<path fill-rule="evenodd" clip-rule="evenodd" d="M111.158 129.762C110.606 129.364 109.931 129.275 108.989 129.849C109.385 131.641 110.709 130.855 111.158 129.762Z" fill="#0C1232"/>
<path fill-rule="evenodd" clip-rule="evenodd" d="M79.3816 74.7235C78.0162 74.002 77.4443 74.011 76.1111 75.4487C76.3846 75.5163 76.6415 75.6389 76.8662 75.8089C77.0908 75.9789 77.2786 76.1929 77.418 76.4378C78.4441 75.9217 78.2804 75.2296 79.3816 74.7235Z" fill="#0C1232"/>
<path fill-rule="evenodd" clip-rule="evenodd" d="M77.8754 78.5046C78.123 79.3022 78.8299 78.9564 79.1833 79.4952C79.5871 79.1532 79.4822 78.7421 80.0392 78.4226C79.4842 78.0224 78.8168 77.9306 77.8754 78.5046Z" fill="#0C1232"/>
<path fill-rule="evenodd" clip-rule="evenodd" d="M61.4313 51.3081L62.5399 50.6681L62.0353 49.7942L60.9268 50.4342L61.4313 51.3081Z" fill="#0C1232"/>
<path fill-rule="evenodd" clip-rule="evenodd" d="M40.8024 14.2927C39.2756 12.506 37.6482 16.5792 40.8024 14.2927V14.2927Z" fill="#0C1232"/>
<path fill-rule="evenodd" clip-rule="evenodd" d="M82.5168 90.3844C83.7743 88.1561 79.056 90.9745 82.5168 90.3844V90.3844Z" fill="#0C1232"/>
<path fill-rule="evenodd" clip-rule="evenodd" d="M77.1283 90.0019C78.3995 89.8263 78.2211 87.6266 79.3411 88.7243C80.9229 86.3802 75.0615 88.1989 77.1283 90.0019Z" fill="#0C1232"/>
<path fill-rule="evenodd" clip-rule="evenodd" d="M69.4154 80.4774C70.7914 79.8695 71.8873 79.9706 73.5399 78.6766C72.4794 76.6367 73.01 76.6993 71.5235 75.1841C70.7158 76.9301 68.6017 78.4926 69.4154 80.4774Z" fill="#0C1232"/>
<path fill-rule="evenodd" clip-rule="evenodd" d="M50.1438 43.2633C50.8651 44.7889 53.2192 45.0436 53.9194 43.4118C52.7572 43.1215 51.6357 42.7252 50.1438 43.2633Z" fill="#0C1232"/>
<path fill-rule="evenodd" clip-rule="evenodd" d="M88.4205 104.45C85.8094 103.804 87.3225 106.853 88.4205 104.45V104.45Z" fill="#0C1232"/>
<path fill-rule="evenodd" clip-rule="evenodd" d="M46.6125 37.1472C47.6326 36.6317 47.472 35.938 48.573 35.4327C48.3037 34.5603 45.0234 36.4431 46.6125 37.1472Z" fill="#0C1232"/>
<path fill-rule="evenodd" clip-rule="evenodd" d="M99.1677 125.619C98.5893 124.927 97.6378 125.175 96.4483 126.025C97.0226 126.716 97.9764 126.471 99.1677 125.619Z" fill="#0C1232"/>
<path fill-rule="evenodd" clip-rule="evenodd" d="M51.7619 49.9008C53.124 50.6215 53.6975 50.6108 55.0331 49.176C54.5474 47.4422 52.1869 48.7316 51.7619 49.9008Z" fill="#0C1232"/>
<path fill-rule="evenodd" clip-rule="evenodd" d="M59.2746 64.2004C59.8099 65.7127 61.266 64.9095 62.8008 63.9124C61.6104 64.049 60.9642 62.8192 59.2746 64.2004Z" fill="#0C1232"/>
<path fill-rule="evenodd" clip-rule="evenodd" d="M77.5324 93.2622C75.5881 94.3154 75.5959 95.6502 76.1291 97.0589C76.1034 97.0896 76.0873 97.1271 76.0825 97.1668C76.0777 97.2065 76.0845 97.2467 76.1021 97.2826C75.455 97.53 76.0435 96.876 75.6657 96.5268L74.5452 97.1737L75.1459 98.2141C75.855 98.0557 76.4988 97.684 76.9905 97.1491C76.9566 97.1291 76.9213 97.1118 76.8848 97.0971C77.1735 96.7646 77.0552 96.3745 76.8825 95.9721C77.7712 95.9514 78.6319 95.6578 79.348 95.1312C78.9147 94.9937 78.5222 94.751 78.2054 94.4249C77.8886 94.0988 77.6573 93.6993 77.5324 93.2622Z" fill="#0C1232"/>
<path fill-rule="evenodd" clip-rule="evenodd" d="M75.0116 88.8958C74.5601 87.8831 73.7542 87.7657 72.5939 88.5438C73.4206 88.6075 73.6925 90.0541 75.0116 88.8958Z" fill="#0C1232"/>
<path fill-rule="evenodd" clip-rule="evenodd" d="M62.559 76.283C64.1802 77.2495 64.4307 76.6658 66.389 75.2356C65.998 73.3571 63.8517 75.8876 62.559 76.283Z" fill="#0C1232"/>
<path fill-rule="evenodd" clip-rule="evenodd" d="M41.0707 33.9437L42.1797 33.3034L41.674 32.4274L40.5649 33.0677L41.0707 33.9437Z" fill="#0C1232"/>
<path fill-rule="evenodd" clip-rule="evenodd" d="M81.7268 109.482C82.6611 111.284 83.8138 109.818 84.998 108.757C84.1549 108.378 83.0645 108.62 81.7268 109.482Z" fill="#0C1232"/>
<path fill-rule="evenodd" clip-rule="evenodd" d="M34.3129 27.3592C34.9292 27.5977 35.8459 27.0761 36.176 28.0299C37.8539 26.7386 36.0471 25.8509 34.3129 27.3592Z" fill="#0C1232"/>
<path fill-rule="evenodd" clip-rule="evenodd" d="M98.1735 143.083C98.7267 143.48 99.3987 143.572 100.336 142.998C99.7883 142.598 99.1145 142.507 98.1735 143.083Z" fill="#0C1232"/>
<path fill-rule="evenodd" clip-rule="evenodd" d="M71.3351 92.7663C70.8795 91.7622 69.2556 93.7005 68.3171 93.9261C69.5222 95.4969 70.8853 94.0005 71.3351 92.7663Z" fill="#0C1232"/>
<path fill-rule="evenodd" clip-rule="evenodd" d="M50.9636 62.5936C51.7035 63.5147 53.0226 62.7435 53.4283 61.7511C52.6925 60.8263 51.3714 61.6001 50.9636 62.5936Z" fill="#0C1232"/>
<path fill-rule="evenodd" clip-rule="evenodd" d="M46.3242 57.117C47.027 57.4936 47.9769 57.2468 49.0452 56.7112C48.8426 55.0762 47.3642 56.6504 46.3242 57.117Z" fill="#0C1232"/>
<path fill-rule="evenodd" clip-rule="evenodd" d="M93.1357 140.75C92.1192 142.668 95.1057 141.785 95.8545 140.344C95.5642 138.932 93.4234 142.164 93.1357 140.75Z" fill="#0C1232"/>
<path fill-rule="evenodd" clip-rule="evenodd" d="M91.8179 133.356C90.9685 132.994 90.1896 132.45 88.847 133.325C87.9906 135.368 90.1373 134.621 90.9137 135.624C92.268 135.023 90.8022 134.009 91.8179 133.356Z" fill="#0C1232"/>
<path fill-rule="evenodd" clip-rule="evenodd" d="M71.4476 103.185L73.6626 101.906L73.6572 101.896C74.0595 101.653 74.5023 101.484 74.9644 101.398C74.4413 101.373 73.9172 101.389 73.3965 101.445L72.9051 100.594C71.3838 101.309 70.6133 102.13 71.4476 103.185Z" fill="#0C1232"/>
<path fill-rule="evenodd" clip-rule="evenodd" d="M57.4727 75.1435C57.0698 75.7527 57.4792 76.4762 56.3118 76.9768C56.7211 77.3723 57.5809 76.638 57.9232 77.2116C58.3262 76.8694 58.2212 76.4534 58.7782 76.134C58.5047 76.0663 58.2479 75.9435 58.0234 75.7732C57.7989 75.6029 57.6115 75.3886 57.4727 75.1435Z" fill="#0C1232"/>
<path fill-rule="evenodd" clip-rule="evenodd" d="M49.7576 65.6162C52.379 64.7963 49.6841 63.2062 50.7112 62.1527C48.5813 61.7587 48.0466 65.2114 49.7576 65.6162Z" fill="#0C1232"/>
<path fill-rule="evenodd" clip-rule="evenodd" d="M82.2387 123.163C82.818 123.853 83.7666 123.609 84.961 122.755C84.4355 121.245 82.6675 121.999 82.2387 123.163Z" fill="#0C1232"/>
<path fill-rule="evenodd" clip-rule="evenodd" d="M81.3309 119.026C83.6283 119.704 81.3714 116.007 81.3309 119.026V119.026Z" fill="#0C1232"/>
<path fill-rule="evenodd" clip-rule="evenodd" d="M65.7429 90.7513C64.5737 90.4082 61.0896 90.3716 62.421 92.6692C63.8766 92.9163 63.6244 91.5028 65.7429 90.7513Z" fill="#0C1232"/>
<path fill-rule="evenodd" clip-rule="evenodd" d="M73.821 111.134C75.0855 110.653 75.1142 109.99 75.7836 109.418C74.8088 107.762 71.9792 109.492 73.821 111.134Z" fill="#0C1232"/>
<path fill-rule="evenodd" clip-rule="evenodd" d="M79.1636 119.112C78.5019 118.633 77.7097 118.486 77.049 118.005C75.9247 118.889 77.7853 120.992 79.1636 119.112Z" fill="#0C1232"/>
<path fill-rule="evenodd" clip-rule="evenodd" d="M58.0826 86.4385C57.6133 87.514 58.9973 88.6812 60.7553 87.2237C60.249 85.9922 59.4669 85.4617 58.0826 86.4385Z" fill="#0C1232"/>
<path fill-rule="evenodd" clip-rule="evenodd" d="M66.9599 100.53C66.2187 101.093 67.5194 101.946 66.6101 102.481C66.9962 102.94 67.8324 102.267 68.5229 101.957C68.1397 101.137 67.3131 101.429 66.9599 100.53Z" fill="#0C1232"/>
<path fill-rule="evenodd" clip-rule="evenodd" d="M56.62 82.6213C55.4497 81.5193 56.268 80.7036 55.6623 79.6821C53.2012 80.2582 55.2916 81.4989 53.3944 82.1532C54.1704 83.0611 54.9379 83.994 56.62 82.6213Z" fill="#0C1232"/>
<path fill-rule="evenodd" clip-rule="evenodd" d="M37.3564 51.8113C36.2484 52.8956 38.2358 53.3476 38.8122 52.5224C38.9915 52.4882 39.1584 52.4675 39.2428 52.6136C39.6768 52.2999 39.2991 51.952 39.2023 51.6306C39.0209 51.6956 38.8645 51.8163 38.7555 51.9752C38.3106 51.8666 37.6456 52.3039 37.3564 51.8113Z" fill="#0C1232"/>
<path fill-rule="evenodd" clip-rule="evenodd" d="M76.2472 124.292C76.6325 124.752 77.469 124.079 78.1643 123.768C77.8897 123.701 77.6316 123.578 77.4058 123.408C77.18 123.238 76.9913 123.023 76.8511 122.778C76.3123 123.234 76.974 123.865 76.2472 124.292Z" fill="#0C1232"/>
<path fill-rule="evenodd" clip-rule="evenodd" d="M59.5526 96.656C61.6373 97.3153 62.0814 92.55 58.7954 95.3446C59.386 95.4773 60.3476 96.0437 59.5526 96.656Z" fill="#0C1232"/>
<path fill-rule="evenodd" clip-rule="evenodd" d="M46.6899 74.3771C45.8362 74.0217 45.2751 72.9392 43.7209 74.3449C44.2183 75.5933 45.3138 75.3381 46.6899 74.3771Z" fill="#0C1232"/>
<path fill-rule="evenodd" clip-rule="evenodd" d="M35.0944 60.6877C35.7681 60.6993 36.4314 60.5195 37.0071 60.1694C37.621 58.7233 36.2533 58.4685 35.492 57.5452C33.8997 58.3791 34.5193 59.5355 35.0944 60.6877Z" fill="#0C1232"/>
<path fill-rule="evenodd" clip-rule="evenodd" d="M78.3218 139.399C78.777 140.4 80.3985 138.462 81.3421 138.236C80.2123 136.804 79.1938 138.885 78.3218 139.399Z" fill="#0C1232"/>
<path fill-rule="evenodd" clip-rule="evenodd" d="M68.841 120.413C70.8492 119.712 66.289 118.963 67.076 117.356C65.8607 118.911 62.879 120.216 63.9049 122.1C66.0662 122.537 67.7448 118.621 68.841 120.413Z" fill="#0C1232"/>
<path fill-rule="evenodd" clip-rule="evenodd" d="M37.4673 68.6377C38.3218 69.594 39.6299 67.4246 38.6271 66.8023C37.2584 67.2728 38.321 68.0922 37.4673 68.6377Z" fill="#0C1232"/>
<path fill-rule="evenodd" clip-rule="evenodd" d="M32.9655 58.7062C32.6431 58.4444 32.1808 58.5351 31.9197 58.131C30.9025 58.5171 31.9006 60.0667 32.817 59.5265C32.8366 61.6459 35.8377 60.6261 33.0268 58.3858C33.0007 58.4915 32.9802 58.5984 32.9655 58.7062Z" fill="#0C1232"/>
<path fill-rule="evenodd" clip-rule="evenodd" d="M81.4502 142.253C81.0546 140.044 78.6686 142.819 77.6721 142.105C76.2277 144.664 81.1069 143.941 81.4502 142.253Z" fill="#0C1232"/>
<path fill-rule="evenodd" clip-rule="evenodd" d="M81.9055 144.322C79.2917 143.681 80.8028 146.726 81.9055 144.322V144.322Z" fill="#0C1232"/>
<path fill-rule="evenodd" clip-rule="evenodd" d="M62.5387 115.898C62.785 115.132 64.5037 114.583 63.4429 113.629C62.1919 114.248 61.8871 115.004 62.5387 115.898Z" fill="#0C1232"/>
<path fill-rule="evenodd" clip-rule="evenodd" d="M58.1023 112.055L58.6069 112.928C59.0326 112.574 59.2297 112.795 59.4122 113.043C60.5888 112.595 59.0759 110.587 58.1023 112.055Z" fill="#0C1232"/>
<path fill-rule="evenodd" clip-rule="evenodd" d="M33.2441 79.2291C34.6199 80.5849 35.729 78.2751 36.568 77.31C35.7734 76.4732 33.432 78.6643 33.2441 79.2291Z" fill="#0C1232"/>
<path fill-rule="evenodd" clip-rule="evenodd" d="M46.564 103.572C45.6513 104.238 45.7354 105.051 46.4625 105.961C47.9935 104.668 47.35 105.039 49.2334 104.361C48.9087 102.677 47.0624 104.815 46.564 103.572Z" fill="#0C1232"/>
<path fill-rule="evenodd" clip-rule="evenodd" d="M37.4852 87.8466C37.9345 88.8555 38.7402 88.9729 39.9024 88.1988C39.0733 88.1323 38.8002 86.6873 37.4852 87.8466Z" fill="#0C1232"/>
<path fill-rule="evenodd" clip-rule="evenodd" d="M58.8683 126.17C58.6168 125.374 57.9113 125.72 57.5574 125.18C56.3842 125.627 57.9014 127.636 58.8683 126.17Z" fill="#0C1232"/>
<path fill-rule="evenodd" clip-rule="evenodd" d="M54.79 126.778C53.4899 127.257 54.096 128.011 54.4359 128.729C54.6404 128.533 54.8089 128.302 54.9338 128.047C55.6924 128.025 56.4152 126.505 55.5941 126.001C55.2988 126.308 55.0853 126.684 54.9732 127.095L54.79 126.778Z" fill="#0C1232"/>
<path fill-rule="evenodd" clip-rule="evenodd" d="M50.3538 122.933C49.4635 123.873 52.1917 124.642 53.2799 124.157C53.026 122.658 51.846 123.476 51.4639 122.292C51.1268 122.845 50.7759 123.393 50.3538 122.933Z" fill="#0C1232"/>
<path fill-rule="evenodd" clip-rule="evenodd" d="M44.0007 113.205C44.0873 113.28 44.1558 113.374 44.2012 113.479C44.2466 113.585 44.2677 113.699 44.2628 113.813C44.258 113.928 44.2273 114.04 44.1733 114.141C44.1192 114.242 44.043 114.33 43.9504 114.397C44.661 115.439 45.9004 113.443 46.1649 113.119C45.8575 112.827 45.358 113.005 45.1051 112.567L44.0007 113.205Z" fill="#0C1232"/>
<path fill-rule="evenodd" clip-rule="evenodd" d="M37.7436 101.092C37.0321 100.053 35.7983 102.047 35.5287 102.371C36.6509 103.469 36.4722 101.27 37.7436 101.092Z" fill="#0C1232"/>
<path fill-rule="evenodd" clip-rule="evenodd" d="M53.5914 136.207C50.9761 135.563 52.4874 138.614 53.5914 136.207V136.207Z" fill="#0C1232"/>
<path fill-rule="evenodd" clip-rule="evenodd" d="M37.6012 111.077L38.7123 110.436L38.2078 109.562L37.0967 110.203L37.6012 111.077Z" fill="#0C1232"/>
<path fill-rule="evenodd" clip-rule="evenodd" d="M39.918 113.814C39.2864 112.904 37.9839 113.683 36.6452 114.54C37.2795 115.447 38.5823 114.672 39.918 113.814Z" fill="#0C1232"/>
<path fill-rule="evenodd" clip-rule="evenodd" d="M45.5177 134.862C45.5519 134.875 45.5924 134.862 45.6228 134.888C45.6853 134.814 45.7324 134.728 45.7612 134.636C45.7901 134.543 45.8 134.446 45.7906 134.35C45.8062 134.318 45.8117 134.314 45.8282 134.28C45.8555 134.233 46.3972 133.995 46.3822 133.96C46.1058 133.072 45.7049 133.431 45.4066 134.026C44.696 133.954 43.9817 134.117 43.3721 134.489C44.2538 134.797 43.5795 134.998 44.5029 135.534C44.6395 135.281 44.842 135.07 45.0891 134.923C44.9504 135.495 45.0318 135.742 45.5177 134.862Z" fill="#0C1232"/>
<path fill-rule="evenodd" clip-rule="evenodd" d="M123.037 116.184C123.339 114.784 122.008 120.945 123.037 116.184V116.184Z" fill="#0C1232"/>
<path fill-rule="evenodd" clip-rule="evenodd" d="M64.0562 58.796C67.4064 55.9385 64.5049 55.5164 64.0562 58.796V58.796Z" fill="#0C1232"/>
<path fill-rule="evenodd" clip-rule="evenodd" d="M69.4999 129.621L68.9003 130.065L68.694 129.501C68.1478 129.803 67.9578 129.216 67.6375 128.946L66.9813 128.454L66.0222 128.715C64.9979 129.233 65.1652 129.923 64.061 130.432L64.1863 130.529C63.9579 130.606 63.734 130.679 63.5024 130.753L64.2216 130.557L64.7138 130.929L64.0064 131.626C64.6716 132.105 65.465 132.254 66.1263 132.731L66.834 132.035L67.4864 132.529C67.8697 132.051 68.2575 131.573 68.0912 131.017C68.6359 130.717 68.8294 131.301 69.1514 131.568C69.7212 130.986 69.9626 130.354 69.4999 129.621Z" fill="#0C1232"/>
<path fill-rule="evenodd" clip-rule="evenodd" d="M72.5692 127.264L72.9764 127.323C72.7676 127.123 72.4718 127.158 72.168 127.207L72.3201 126.826C72.2447 126.755 72.1595 126.696 72.0671 126.651C72.9614 125.96 74.2253 124.983 72.0671 126.651C71.4823 126.25 70.6401 126.49 69.6032 127.234L70.2518 127.733L69.5476 128.428L69.7995 128.864L70.5041 128.169L70.6117 128.981C71.9267 130.005 71.7975 127.63 72.5692 127.264Z" fill="#0C1232"/>
<path fill-rule="evenodd" clip-rule="evenodd" d="M72.9273 131.718C71.5521 130.583 72.112 132.839 71.5156 133.117C72.5583 134.201 71.9959 131.947 72.9273 131.718Z" fill="#0C1232"/>
<path fill-rule="evenodd" clip-rule="evenodd" d="M64.1706 125.946C63.5286 126.334 62.9888 126.87 62.5969 127.51C63.1535 127.739 63.777 127.747 64.3391 127.531C64.9012 127.315 65.3593 126.892 65.6194 126.349C65.5271 125.887 65.309 125.692 65.0268 125.665C65.2768 124.832 64.3219 124.825 64.1706 125.946Z" fill="#0C1232"/>
<path fill-rule="evenodd" clip-rule="evenodd" d="M60.8817 122.365C60.5735 122.071 60.0769 122.25 59.8252 121.809C60.7854 121.182 61.3003 121.672 62.2917 120.967C61.9976 119.92 61.2438 120.032 60.7289 119.541C60.1483 120.207 58.1797 123.755 60.8817 122.365Z" fill="#0C1232"/>
<path fill-rule="evenodd" clip-rule="evenodd" d="M55.0471 132.723L55.556 133.108C55.5721 133.132 55.5922 133.152 55.6153 133.169L55.6378 133.208L53.2838 132.866C54.0058 133.258 54.8423 133.386 55.6483 133.227L55.7186 133.348L55.803 134.033C56.0268 134.389 56.5043 134.105 56.9417 133.92L53.0874 137.641C54.5597 136.485 56.2744 135.78 57.7774 134.746C57.7173 134.354 57.6799 133.959 57.6654 133.562C57.6416 133.474 57.6159 133.379 57.5901 133.29L58.2684 133.189C58.2387 132.907 58.2782 132.622 58.3833 132.359C58.4883 132.095 58.6559 131.861 58.8715 131.677C57.9682 130.818 55.6868 131.106 55.0471 132.723Z" fill="#0C1232"/>
<path fill-rule="evenodd" clip-rule="evenodd" d="M55.359 144.774C56.9068 143.8 55.317 142.371 54.6995 141.077C53.9339 141.57 53.1709 142.057 52.7884 141.598C51.7056 142.393 54.2909 142.308 52.4346 143.55L53.0911 144.042C52.137 144.488 51.9392 145.226 51.6972 145.952L52.48 144.88C53.0358 145.85 54.7203 144.001 55.359 144.774Z" fill="#0C1232"/>
<path fill-rule="evenodd" clip-rule="evenodd" d="M47.2403 131.989C46.855 131.165 46.0288 131.46 45.6727 130.562C45.0398 131.074 45.6182 131.752 46.1767 131.435C46.4092 131.87 45.6971 132.166 45.3255 132.511C45.7126 132.97 46.5462 132.296 47.2403 131.989Z" fill="#0C1232"/>
<path fill-rule="evenodd" clip-rule="evenodd" d="M109.544 60.196C109.943 59.8567 109.841 59.4417 110.396 59.1216C110.943 58.821 111.135 59.4076 111.458 59.6765L113.119 58.7175C112.82 57.4585 108.245 58.7011 109.544 60.196Z" fill="#0C1232"/>
<path fill-rule="evenodd" clip-rule="evenodd" d="M72.4092 114.836C72.0809 115.424 71.5932 115.907 71.0023 116.229C71.3536 118.192 73.3589 116.01 74.2251 116.699C75.2549 116.045 72.8402 115.327 72.4092 114.836Z" fill="#0C1232"/>
<path fill-rule="evenodd" clip-rule="evenodd" d="M49.751 126.751C52.1342 128.603 53.1621 126.024 49.751 126.751V126.751Z" fill="#0C1232"/>
<path fill-rule="evenodd" clip-rule="evenodd" d="M115.761 25.1827C114.155 25.3084 114.329 27.5081 113.546 26.4615C112.66 27.3892 115.734 27.293 116.768 26.9274L115.761 25.1827Z" fill="#0C1232"/>
<path fill-rule="evenodd" clip-rule="evenodd" d="M131.409 65.0701C130.089 63.6545 129.753 66.4564 128.435 65.0391C127.181 66.5688 130.261 66.0459 131.409 65.0701Z" fill="#0C1232"/>
<path fill-rule="evenodd" clip-rule="evenodd" d="M134.899 85.1893C137.145 85.7652 135.334 83.4765 134.444 83.1179C132.569 84.3628 136.775 83.9421 134.899 85.1893Z" fill="#0C1232"/>
<path fill-rule="evenodd" clip-rule="evenodd" d="M109.002 77.4246C109.766 76.9342 110.529 76.4465 110.919 76.9005C111.775 76.0442 108.908 75.6289 107.694 76.4318C107.968 76.4999 108.225 76.6231 108.45 76.7938C108.675 76.9644 108.862 77.1791 109.002 77.4246Z" fill="#0C1232"/>
<path fill-rule="evenodd" clip-rule="evenodd" d="M57.7437 35.9618C60.1086 34.7553 59.5721 34.1433 61.6175 33.7253C60.3728 33.5263 56.2508 33.8878 57.7437 35.9618Z" fill="#0C1232"/>
<path fill-rule="evenodd" clip-rule="evenodd" d="M120.541 144.729C125.498 141.027 118.182 146.091 120.541 144.729V144.729Z" fill="#0C1232"/>
<path fill-rule="evenodd" clip-rule="evenodd" d="M106.567 123.092C107.807 122.213 105.258 122.292 105.004 121.664C104.667 122.216 104.32 122.762 103.898 122.302C102.441 124.339 105.952 122.731 106.567 123.092Z" fill="#0C1232"/>
<path fill-rule="evenodd" clip-rule="evenodd" d="M75.1494 72.5083C74.3116 73.4935 75.9019 72.4207 76.2055 73.0617C77.706 73.9945 76.2134 71.3829 75.1494 72.5083Z" fill="#0C1232"/>
<path fill-rule="evenodd" clip-rule="evenodd" d="M77.6327 90.8759C76.1771 92.301 79.2447 90.9051 79.4967 91.5482C81.1616 89.5931 77.8784 91.5213 77.6327 90.8759Z" fill="#0C1232"/>
<path fill-rule="evenodd" clip-rule="evenodd" d="M62.6473 61.0893C61.9311 60.393 60.6104 61.2118 60.2775 59.5445C59.2898 60.4393 59.9525 61.4862 58.3199 61.2594C57.5961 61.9866 58.5446 61.7365 59.124 61.3777C59.2099 61.453 59.278 61.5465 59.323 61.6515C59.3681 61.7565 59.389 61.8702 59.3843 61.9844C59.3796 62.0985 59.3494 62.2102 59.2959 62.3111C59.2424 62.4121 59.167 62.4996 59.0752 62.5676C59.462 63.008 59.7691 62.495 59.627 62.249C60.8548 61.3002 61.2917 62.3512 62.6473 61.0893Z" fill="#0C1232"/>
<path fill-rule="evenodd" clip-rule="evenodd" d="M56.9082 62.6549C57.7878 61.7434 55.9155 62.3208 56.352 62.976C55.5235 63.272 55.2647 62.1473 54.7899 61.5496C53.0643 62.9683 55.1804 63.074 56.0513 63.7344C56.4479 63.3895 56.3475 62.9752 56.9082 62.6549Z" fill="#0C1232"/>
<path fill-rule="evenodd" clip-rule="evenodd" d="M38.1938 31.5243C38.1078 31.4485 38.0399 31.3544 37.995 31.2489C37.9501 31.1433 37.9293 31.0292 37.9343 30.9146C37.9392 30.8 37.9697 30.688 38.0235 30.5867C38.0773 30.4855 38.1532 30.3976 38.2454 30.3294C37.4645 30.1373 36.8314 30.7442 36.0268 31.6103C36.3399 31.904 36.8338 31.7249 37.0869 32.1634L38.1938 31.5243Z" fill="#0C1232"/>
<path fill-rule="evenodd" clip-rule="evenodd" d="M80.7212 114.135C79.1342 115.622 81.8391 114.643 82.0334 115.127C83.4936 113.957 80.7903 114.936 80.7212 114.135Z" fill="#0C1232"/>
<path fill-rule="evenodd" clip-rule="evenodd" d="M46.9846 60.8128L46.8101 60.84L47.1085 60.7926L46.9846 60.8128Z" fill="#0C1232"/>
<path fill-rule="evenodd" clip-rule="evenodd" d="M45.6494 61.0237L46.81 60.8392L45.6494 61.0237Z" fill="#0C1232"/>
<path fill-rule="evenodd" clip-rule="evenodd" d="M43.2437 111.894C41.7683 110.955 41.8599 113.342 43.1939 113.087C43.7783 112.641 43.2504 112.473 42.9429 112.653C42.6285 112.338 42.9218 112.114 43.2437 111.894Z" fill="#0C1232"/>
<path fill-rule="evenodd" clip-rule="evenodd" d="M42.8762 124L42.9778 123.966C42.9515 123.972 42.9214 123.958 42.8944 123.962C42.9518 123.764 42.9897 123.561 43.0078 123.355L43.2875 123.839L44.4079 123.192C44.3749 123.11 44.321 123.039 44.2517 122.984C44.1824 122.929 44.1 122.893 44.0127 122.88L44.0451 122.882C43.8281 122.747 43.5987 122.564 43.364 122.397C43.0679 122.494 42.7849 122.627 42.5218 122.794L43.3833 122.845C43.2982 123.02 43.1719 123.172 43.0151 123.288C43.0228 123.21 43.0427 123.159 43.0467 123.074L42.5192 122.796L42.5437 122.203C40.2246 122.16 39.6871 123.212 37.6092 123.886C39.0335 124.222 37.88 124.467 38.6168 125.631C40.8345 124.79 42.38 125.39 42.8762 124Z" fill="#0C1232"/>
<path fill-rule="evenodd" clip-rule="evenodd" d="M34.7272 108.658L36.3877 107.7C36.3074 107.607 36.1928 107.592 36.1004 107.526C36.3248 107.185 36.5232 106.788 36.6998 107.255C37.0552 107.112 36.9739 106.971 36.9585 106.79L36.6581 106.27C36.3313 106.597 36.026 106.945 35.7439 107.311C34.8536 107.009 33.6615 107.455 32.6088 107.549C32.7416 109.357 34.5971 106.85 34.7272 108.658Z" fill="#0C1232"/>
<path fill-rule="evenodd" clip-rule="evenodd" d="M130.741 18.2535C131.356 17.8632 131.989 17.4745 131.999 17.2366L130.741 18.2535Z" fill="#0C1232"/>
<path fill-rule="evenodd" clip-rule="evenodd" d="M80.2383 54.2089C80.7545 53.8462 81.2946 53.5186 81.8549 53.2285C82.3136 52.7257 81.9771 52.1272 82.0979 51.6073L80.2383 54.2089Z" fill="#0C1232"/>
<path fill-rule="evenodd" clip-rule="evenodd" d="M72.4121 85.4208L72.6376 86.4552C72.675 86.2766 72.6742 86.0922 72.6353 85.914C72.5965 85.7357 72.5204 85.5676 72.4121 85.4208Z" fill="#0C1232"/>
<path fill-rule="evenodd" clip-rule="evenodd" d="M82.3931 59.6863C82.7675 60.0838 83.2353 60.3816 83.754 60.5526L82.3931 59.6863Z" fill="#0C1232"/>
<path fill-rule="evenodd" clip-rule="evenodd" d="M75.5921 58.5656C75.0825 58.4545 74.5811 58.3086 74.0915 58.1288C73.6257 58.3009 73.1743 58.5098 72.7417 58.7534L75.5921 58.5656Z" fill="#0C1232"/>
<path fill-rule="evenodd" clip-rule="evenodd" d="M83.89 76.7778L85.1266 76.3587C84.6835 76.381 84.2554 76.5261 83.89 76.7778Z" fill="#0C1232"/>
<path fill-rule="evenodd" clip-rule="evenodd" d="M67.674 47.4141C67.238 47.1533 66.7512 46.9885 66.2464 46.9309C65.6725 47.3772 65.0237 47.7179 64.3305 47.9372C64.2597 48.1031 64.2459 48.2879 64.2913 48.4624C64.3368 48.637 64.4389 48.7916 64.5816 48.9019C64.6874 48.9373 64.7982 48.9732 64.9049 49.0101L67.674 47.4141Z" fill="#0C1232"/>
<path fill-rule="evenodd" clip-rule="evenodd" d="M67.6054 55.5822L66.8772 56.0026L67.3814 56.876L68.4915 56.2351L67.9873 55.3617L67.618 55.5749L68.0589 54.4672C67.7917 54.8213 67.3869 55.2194 67.6054 55.5822Z" fill="#0C1232"/>
<path fill-rule="evenodd" clip-rule="evenodd" d="M114.722 144.885C114.88 145.117 115.102 145.299 115.361 145.408C115.62 145.517 115.905 145.548 116.182 145.499L114.722 144.885Z" fill="#0C1232"/>
<path fill-rule="evenodd" clip-rule="evenodd" d="M41.3169 27.9749C41.7223 28.0272 42.0712 28.2218 42.5242 28.1511L41.3169 27.9749Z" fill="#0C1232"/>
<path fill-rule="evenodd" clip-rule="evenodd" d="M67.2294 85.9592C66.8921 86.0055 66.0697 86.2896 65.54 85.9164L67.6566 87.0269C67.5417 86.4219 67.4507 86.1262 67.2294 85.9592Z" fill="#0C1232"/>
<path fill-rule="evenodd" clip-rule="evenodd" d="M50.5543 56.1307L49.0966 58.72C49.6047 58.5998 50.0906 58.4007 50.5369 58.1298C50.156 57.4509 51.7061 56.361 50.5543 56.1307Z" fill="#0C1232"/>
<path fill-rule="evenodd" clip-rule="evenodd" d="M65.9601 97.6798C65.2445 98.1661 64.4003 98.4283 63.5352 98.4327L66.2049 99.2224C66.2985 99.1684 66.3942 99.1131 66.492 99.0567C66.6879 98.8471 66.8125 98.581 66.8479 98.2963C66.6278 97.9987 66.3158 97.782 65.9601 97.6798Z" fill="#0C1232"/>
<path fill-rule="evenodd" clip-rule="evenodd" d="M40.085 67.4171C40.3451 68.0826 40.4469 68.6744 40.9931 68.3493L40.085 67.4171Z" fill="#0C1232"/>
<path fill-rule="evenodd" clip-rule="evenodd" d="M70.8048 121.9C70.1152 121.915 69.4302 122.018 68.7666 122.206L70.8048 121.9Z" fill="#0C1232"/>
<path fill-rule="evenodd" clip-rule="evenodd" d="M57.1903 104.719C56.9799 104.507 56.751 104.314 56.5062 104.143C56.6061 104.058 56.7178 103.989 56.8378 103.937C56.5598 103.153 56.051 102.881 55.1156 103.544C55.0094 104.008 55.4464 104.084 55.7415 104.154C55.0135 104.38 54.3755 104.831 53.9184 105.441L57.1903 104.719Z" fill="#0C1232"/>
<path fill-rule="evenodd" clip-rule="evenodd" d="M44.7835 117.122C44.0568 117.427 43.4605 117.978 43.0987 118.678L44.7835 117.122Z" fill="#0C1232"/>
<path fill-rule="evenodd" clip-rule="evenodd" d="M87.2596 69.5705L86.9309 70.9234C87.2721 70.4621 87.575 70.005 87.2596 69.5705Z" fill="#0C1232"/>
<path fill-rule="evenodd" clip-rule="evenodd" d="M79.8033 132.117L79.4266 134.664C79.46 134.271 80.1083 133.792 80.4999 133.301C80.309 132.883 80.0756 132.486 79.8033 132.117Z" fill="#0C1232"/>
<path fill-rule="evenodd" clip-rule="evenodd" d="M68.9004 130.066C69.4978 129.49 70.0348 128.854 70.503 128.169L68.9004 130.066Z" fill="#0C1232"/>
<path fill-rule="evenodd" clip-rule="evenodd" d="M66.9813 128.454L66.903 127.043C66.8156 127.513 66.8425 127.997 66.9813 128.454Z" fill="#0C1232"/>
<path fill-rule="evenodd" clip-rule="evenodd" d="M63.0552 131.886L64.714 130.928C63.9608 131.161 63.2509 131.466 63.0552 131.886Z" fill="#0C1232"/>
<path fill-rule="evenodd" clip-rule="evenodd" d="M66.2274 134.09C65.8722 134.231 65.5481 134.44 65.2735 134.706C65.3317 135.528 65.7504 135.452 66.1974 135.3C66.3276 135.5 66.5038 135.667 66.7113 135.785C66.9188 135.904 67.1517 135.972 67.3905 135.982L67.3361 135.597C67.3611 135.666 67.3791 135.738 67.3898 135.811C68.5287 134.965 68.0703 134.006 67.101 133.926L66.834 132.035C66.9099 132.773 66.692 133.511 66.2274 134.09Z" fill="#0C1232"/>
<path fill-rule="evenodd" clip-rule="evenodd" d="M66.9814 128.454C67.7062 128.427 68.42 128.269 69.0887 127.988L66.9814 128.454Z" fill="#0C1232"/>
<path fill-rule="evenodd" clip-rule="evenodd" d="M70.7213 142.604L73.3343 138.182C72.002 139.613 71.019 140.973 70.7213 142.604Z" fill="#0C1232"/>
<path fill-rule="evenodd" clip-rule="evenodd" d="M50.0299 129.794L48.5479 129.779C49.0378 129.863 49.5383 129.869 50.0299 129.794Z" fill="#0C1232"/>
<path fill-rule="evenodd" clip-rule="evenodd" d="M48.5591 142.586L51.1844 143.428C50.408 142.876 49.7213 142.223 48.5591 142.586Z" fill="#0C1232"/>
<path fill-rule="evenodd" clip-rule="evenodd" d="M53.0906 144.042L51.1812 143.429C51.4407 143.656 51.7442 143.828 52.0725 143.933C52.4009 144.039 52.7473 144.076 53.0906 144.042Z" fill="#0C1232"/>
<path fill-rule="evenodd" clip-rule="evenodd" d="M30.5824 122.279C31.0408 122.079 31.4389 121.763 31.7377 121.361C32.5914 121.615 32.2391 123.125 33.6696 122.604L34.338 124.61C34.6233 124.333 34.8463 124 34.9925 123.63C34.6501 123.175 34.2364 122.376 33.4964 122.084L34.1847 121.783C34.4183 121.716 34.6353 121.601 34.8224 121.446C35.1657 121.414 35.4972 121.304 35.7918 121.125C35.5862 120.998 35.3552 120.919 35.1153 120.891C35.1446 120.304 34.6731 119.645 35.6417 119.193C35.3669 119.127 35.1086 119.005 34.8828 118.835C34.6571 118.665 34.4686 118.45 34.3294 118.204L34.2841 118.23C34.3108 118.1 34.0806 118.076 33.9401 118.157C33.9206 117.665 34.9901 117.236 34.1301 116.66C33.5653 117.05 33.0373 117.355 32.8081 117.109C32.1103 117.575 33.0227 118.243 32.2882 118.796C32.319 118.824 32.363 118.791 32.3984 118.802C32.3773 118.927 32.3471 118.995 32.3231 119.103C32.247 118.987 32.1558 118.882 32.0521 118.79C31.5229 118.979 30.9879 119.15 30.4624 119.353C30.1989 119.222 29.8119 119.417 29.4496 119.73L28.2354 117.627C27.9831 118.427 27.8094 119.007 28.0602 119.365C28.5303 119.546 29.0354 119.451 29.4071 119.767C29.1642 119.966 28.9493 120.198 28.7682 120.455C28.9484 120.67 29.3626 120.409 29.7097 120.284C29.8439 120.798 29.5764 121.153 29.4812 121.509C29.7571 121.876 30.1428 122.146 30.5824 122.279ZM33.9949 118.415C33.438 118.762 32.9244 118.997 32.5797 118.808C32.9433 118.671 33.4396 118.131 33.9949 118.415Z" fill="#0C1232"/>
<path fill-rule="evenodd" clip-rule="evenodd" d="M91.3764 54.9597L92.1096 53.6638C91.8106 54.0625 91.5642 54.4981 91.3764 54.9597Z" fill="#0C1232"/>
<path fill-rule="evenodd" clip-rule="evenodd" d="M87.9059 96.2742L88.3896 97.7428C88.3279 97.2259 88.1634 96.7266 87.9059 96.2742Z" fill="#0C1232"/>
<path fill-rule="evenodd" clip-rule="evenodd" d="M86.2492 62.3127C86.3922 63.6416 87.919 63.2213 88.8943 63.6986L86.2492 62.3127Z" fill="#0C1232"/>
<path fill-rule="evenodd" clip-rule="evenodd" d="M61.4827 53.3168C61.3825 53.1291 61.2282 52.9757 61.0398 52.8767C60.8515 52.7777 60.6377 52.7376 60.4263 52.7616L61.4827 53.3168Z" fill="#0C1232"/>
<path fill-rule="evenodd" clip-rule="evenodd" d="M46.7619 42.2724C47.3604 42.2867 48.2949 41.5891 49.0317 40.7018L45.0815 40.8275C45.9508 40.9443 46.638 41.3215 46.7619 42.2724Z" fill="#0C1232"/>
<path fill-rule="evenodd" clip-rule="evenodd" d="M42.9899 40.8919C42.753 40.5362 42.4182 40.2566 42.0259 40.087L42.9899 40.8919Z" fill="#0C1232"/>
<path fill-rule="evenodd" clip-rule="evenodd" d="M42.0642 42.1771C42.5075 41.8652 42.8329 41.4129 42.9878 40.8934L42.0642 42.1771Z" fill="#0C1232"/>
<path fill-rule="evenodd" clip-rule="evenodd" d="M41.0777 43.5498L42.0657 42.1798C41.5844 42.5991 41.1017 42.9943 41.0777 43.5498Z" fill="#0C1232"/>
<path fill-rule="evenodd" clip-rule="evenodd" d="M61.9631 87.4011L61.1044 88.4773C61.4488 88.1692 61.7391 87.8054 61.9631 87.4011Z" fill="#0C1232"/>
<path fill-rule="evenodd" clip-rule="evenodd" d="M56.1104 96.6977C56.0688 96.917 56.0711 97.1424 56.1172 97.3608C56.1634 97.5791 56.2525 97.7862 56.3793 97.9698C56.7147 97.3351 57.6381 96.8019 58.0585 97.3776C58.4926 97.0639 58.0923 96.9808 57.8951 97.0947C57.5795 96.3954 58.1564 95.8737 57.1597 95.8207C56.8299 96.0112 57.0583 96.2566 57.0646 96.5692C56.646 96.3607 56.4089 96.4185 56.2547 96.5658L55.5753 94.8773C55.5437 95.5271 55.7323 96.1684 56.1104 96.6977Z" fill="#0C1232"/>
<path fill-rule="evenodd" clip-rule="evenodd" d="M55.5741 94.8759L57.4319 92.3467C56.6372 93.1038 55.8403 93.8906 55.5741 94.8759Z" fill="#0C1232"/>
<path fill-rule="evenodd" clip-rule="evenodd" d="M53.9272 94.0846C54.1139 94.3435 54.3625 94.5515 54.6502 94.6897C54.9378 94.8279 55.2556 94.892 55.5743 94.8759L53.9272 94.0846Z" fill="#0C1232"/>
<path fill-rule="evenodd" clip-rule="evenodd" d="M51.9948 93.1564L53.9269 94.0848C53.5708 93.5764 53.398 92.9622 53.4365 92.3427C52.9323 92.1913 52.4185 92.7384 51.9948 93.1564Z" fill="#0C1232"/>
<path fill-rule="evenodd" clip-rule="evenodd" d="M50.9932 89.3449C51.9505 89.5426 52.935 89.5726 53.9027 89.4337L50.5552 88.7461C50.6907 88.9531 50.8369 89.1529 50.9932 89.3449Z" fill="#0C1232"/>
<path fill-rule="evenodd" clip-rule="evenodd" d="M47.3203 108.085C47.0942 107.622 46.7779 107.209 46.39 106.87C45.5944 107.013 44.8221 107.264 44.0947 107.617L47.3203 108.085Z" fill="#0C1232"/>
<path fill-rule="evenodd" clip-rule="evenodd" d="M45.2583 110.052C45.9531 109.796 46.3037 109.167 46.7468 108.632L45.2583 110.052Z" fill="#0C1232"/>
<path fill-rule="evenodd" clip-rule="evenodd" d="M51.4151 105.494C51.6077 104.507 50.0456 103.827 50.9205 102.805L47.3204 108.085C47.5446 107.951 47.7932 107.863 48.0516 107.826C48.3101 107.789 48.5733 107.804 48.826 107.869C50.043 107.58 50.5801 106.271 51.4151 105.494Z" fill="#0C1232"/>
<path fill-rule="evenodd" clip-rule="evenodd" d="M35.439 94.754L37.2857 95.824C37.3432 95.3386 36.3515 94.9388 35.439 94.754Z" fill="#0C1232"/>
<path fill-rule="evenodd" clip-rule="evenodd" d="M44.8161 122.927L44.0454 122.882C44.333 123.061 44.6004 123.149 44.8161 122.927Z" fill="#0C1232"/>
<path fill-rule="evenodd" clip-rule="evenodd" d="M37.0209 111.995C36.5919 112.245 36.1759 112.518 35.7747 112.811L37.0209 111.995Z" fill="#0C1232"/>
<path fill-rule="evenodd" clip-rule="evenodd" d="M41.1408 126.798L38.4189 127.203C39.5688 127.315 40.2208 127.4 41.1408 126.798Z" fill="#0C1232"/>
<path fill-rule="evenodd" clip-rule="evenodd" d="M79.154 43.3806L76.8154 44.4402C77.6678 44.2179 78.5465 44.0365 79.154 43.3806Z" fill="#0C1232"/>
<path fill-rule="evenodd" clip-rule="evenodd" d="M79.5766 82.7561C79.5212 82.8489 79.4499 82.9314 79.3662 82.9997C79.4814 83.0178 79.5987 83.0185 79.7142 83.0019C80.0231 83.5444 80.4307 84.0244 80.9158 84.4174L79.864 82.9896C80.1503 82.963 80.4222 82.9642 80.5266 83.3361C81.0491 82.7202 81.0408 82.0945 80.3212 82.0674C80.0341 82.1958 79.7945 82.411 79.6362 82.6828L79.209 82.1027C79.3146 82.3337 79.455 82.5384 79.5766 82.7561Z" fill="#0C1232"/>
<path fill-rule="evenodd" clip-rule="evenodd" d="M129.388 7.11264C129.635 6.78001 129.457 6.3176 130.208 5.94584C129.886 5.69039 129.331 5.94756 128.981 5.64754C127.906 6.52073 128.93 6.62185 129.388 7.11264Z" fill="#0C1232"/>
<path fill-rule="evenodd" clip-rule="evenodd" d="M131.295 12.2412L130.695 11.2008C130.365 11.7094 129.896 12.1118 129.343 12.3592C129.615 12.8305 130.105 12.613 130.339 13.1713C130.577 12.7881 130.905 12.4687 131.295 12.2412Z" fill="#0C1232"/>
<path fill-rule="evenodd" clip-rule="evenodd" d="M124.982 5.56601C125.156 5.71648 124.921 5.91547 124.722 6.0302C124.979 6.32289 125.517 5.88617 126.006 5.66629C125.866 5.11873 125.443 5.29962 124.982 5.56601Z" fill="#0C1232"/>
<path fill-rule="evenodd" clip-rule="evenodd" d="M122.324 15.7223C120.625 16.891 123.34 16.2671 122.529 16.9912C122.949 17.5669 123.808 16.3155 124.044 16.1161C123.611 15.6715 122.843 15.8618 122.324 15.7223Z" fill="#0C1232"/>
<path fill-rule="evenodd" clip-rule="evenodd" d="M113.839 10.6147C115.002 10.1945 114.61 9.66639 115.521 9.26643C114.93 8.85222 113.25 9.4442 112.98 10.0398C113.155 10.0737 113.32 10.142 113.468 10.2407C113.615 10.3394 113.742 10.4666 113.839 10.6147Z" fill="#0C1232"/>
<path fill-rule="evenodd" clip-rule="evenodd" d="M120.528 34.3771C120.665 34.6137 121.099 34.3 121.393 34.1933C121.974 33.9838 122.103 34.6641 122.388 35.0063C123.477 34.0002 121.925 34.2042 122.217 33.0279C121.3 33.4295 121.693 33.9573 120.528 34.3771Z" fill="#0C1232"/>
<path fill-rule="evenodd" clip-rule="evenodd" d="M111.853 15.852C111.397 16.4297 110.914 16.9606 111.269 17.5765C111.994 17.1581 112.316 17.4127 112.948 16.9843C112.89 16.7118 112.757 16.4611 112.564 16.2609C112.37 16.0607 112.124 15.919 111.853 15.852Z" fill="#0C1232"/>
<path fill-rule="evenodd" clip-rule="evenodd" d="M114.022 20.5156C113.768 20.8832 113.431 21.1855 113.038 21.3978C113.372 21.5193 113.678 21.594 113.831 22.0092C115.069 21.4204 114.831 20.5512 114.022 20.5156Z" fill="#0C1232"/>
<path fill-rule="evenodd" clip-rule="evenodd" d="M112.798 27.0739L112.007 27.5307C112.275 27.6906 112.012 27.8423 111.841 28.0043L112.114 28.4766C112.443 28.2865 112.524 28.4275 112.606 28.5695L113.397 28.1127C113.195 27.9152 113.394 27.8008 113.629 27.6015L113.357 27.1297C113.053 27.3665 112.879 27.2149 112.798 27.0739Z" fill="#0C1232"/>
<path fill-rule="evenodd" clip-rule="evenodd" d="M118.03 36.1354L116.909 36.7823L117.345 37.5376L118.466 36.8907L118.03 36.1354Z" fill="#0C1232"/>
<path fill-rule="evenodd" clip-rule="evenodd" d="M113.074 36.2269L113.537 37.029C113.945 36.6692 113.859 36.2148 114.357 35.8623C114.101 35.5709 113.564 36.0081 113.074 36.2269Z" fill="#0C1232"/>
<path fill-rule="evenodd" clip-rule="evenodd" d="M105.774 22.8223C106.043 22.9813 105.806 23.1809 105.608 23.2953C105.838 23.5404 106.403 23.1513 106.864 22.8849C106.752 22.3839 106.263 22.6029 105.774 22.8223Z" fill="#0C1232"/>
<path fill-rule="evenodd" clip-rule="evenodd" d="M133.248 74.6692C133.487 74.2864 133.815 73.9674 134.205 73.7396C133.719 73.2032 133.261 72.7121 132.089 73.5742C132.262 74.483 133.028 73.979 133.248 74.6692Z" fill="#0C1232"/>
<path fill-rule="evenodd" clip-rule="evenodd" d="M120.128 52.8579C119.953 52.707 120.19 52.5068 120.387 52.393C120.219 51.7966 118.456 53.0049 119.404 53.2763L120.128 52.8579Z" fill="#0C1232"/>
<path fill-rule="evenodd" clip-rule="evenodd" d="M95.3431 11.6022C94.654 10.8675 94.3026 13.1476 93.9225 11.7288C93.0384 12.1761 94.2694 12.7874 94.29 13.2784C95.1356 12.9171 95.1692 12.519 95.6423 12.1203C95.2433 12.0372 94.9077 11.916 95.3431 11.6022Z" fill="#0C1232"/>
<path fill-rule="evenodd" clip-rule="evenodd" d="M128.6 83.2055C127.619 83.3322 126.976 82.8252 125.759 83.4583C125.987 83.7045 125.965 83.9682 125.664 84.2067C126.735 83.7794 128.07 84.2666 128.6 83.2055Z" fill="#0C1232"/>
<path fill-rule="evenodd" clip-rule="evenodd" d="M83.512 11.197C84.5397 11.61 84.5567 9.96474 85.6548 9.58182L84.9193 8.30785C84.1091 9.06372 83.6077 10.093 83.512 11.197Z" fill="#0C1232"/>
<path fill-rule="evenodd" clip-rule="evenodd" d="M132.191 94.5989C131.823 94.874 131.504 94.9332 131.329 94.7809C130.829 95.1328 131.353 95.5854 131.507 96.0006C131.78 95.6508 132.113 95.352 132.491 95.1181L132.191 94.5989Z" fill="#0C1232"/>
<path fill-rule="evenodd" clip-rule="evenodd" d="M132.562 103.005C132.23 103.312 131.939 103.659 131.694 104.04C131.195 103.47 130.558 103.248 129.522 104.018C130.204 105.162 130.587 107.051 132.448 105.241C132.305 104.922 132.14 104.613 131.952 104.317C132.324 103.88 132.671 103.359 133.026 103.808C133.55 103.191 132.819 103.298 132.562 103.005Z" fill="#0C1232"/>
<path fill-rule="evenodd" clip-rule="evenodd" d="M132.371 104.5L132.671 105.02L133.462 104.564L133.162 104.043L132.371 104.5Z" fill="#0C1232"/>
<path fill-rule="evenodd" clip-rule="evenodd" d="M103.278 60.1955C103.67 60.7236 104.593 60.1908 105.489 59.6126C105.312 59.5846 105.145 59.5188 104.996 59.4198C104.848 59.3207 104.723 59.1907 104.63 59.0387C103.971 59.4174 104.029 59.8245 103.278 60.1955Z" fill="#0C1232"/>
<path fill-rule="evenodd" clip-rule="evenodd" d="M79.9122 18.8128C79.4307 18.5866 78.8213 18.7491 78.0962 19.1677C78.5129 19.4306 79.0446 19.4386 79.488 19.7513C79.8255 19.4288 79.4508 19.0792 79.9122 18.8128Z" fill="#0C1232"/>
<path fill-rule="evenodd" clip-rule="evenodd" d="M88.2602 36.7727C88.4901 37.0172 89.0942 36.5429 89.5169 36.362C89.4034 35.8602 88.9813 36.0422 88.4914 36.2605C88.6946 36.4587 88.4976 36.5725 88.2602 36.7727Z" fill="#0C1232"/>
<path fill-rule="evenodd" clip-rule="evenodd" d="M73.5601 10.3981L74.2852 9.97945L73.9849 9.45927L73.2598 9.87793L73.5601 10.3981Z" fill="#0C1232"/>
<path fill-rule="evenodd" clip-rule="evenodd" d="M80.1209 26.9347C80.3239 27.1338 80.1252 27.2485 79.8892 27.4464C80.1187 27.6913 80.6566 27.2559 81.1464 27.0362C81.0326 26.5353 80.6097 26.7157 80.1209 26.9347Z" fill="#0C1232"/>
<path fill-rule="evenodd" clip-rule="evenodd" d="M79.1882 32.3191C79.7042 32.1474 80.0711 30.803 79.1478 31.3361C78.9844 31.0531 79.4727 30.8336 79.7089 30.6348C80.5798 29.2504 77.841 31.9643 78.0568 31.2737C77.0111 32.5065 79.1904 31.5625 79.1882 32.3191Z" fill="#0C1232"/>
<path fill-rule="evenodd" clip-rule="evenodd" d="M120.589 107.528C120.981 108.054 121.903 107.522 122.8 106.945C122.543 106.652 122.594 106.434 122.895 106.196C122.091 105.715 121.899 107.21 120.589 107.528Z" fill="#0C1232"/>
<path fill-rule="evenodd" clip-rule="evenodd" d="M94.9214 61.2433C95.0535 61.167 95.584 61.1763 95.3868 61.2901C97.3978 59.7518 91.3987 62.8998 94.9214 61.2433Z" fill="#0C1232"/>
<path fill-rule="evenodd" clip-rule="evenodd" d="M126.888 125.285C127.471 126.145 127.849 124.668 128.309 125.158C128.506 124.91 128.61 124.599 128.603 124.282C128.596 123.964 128.478 123.659 128.27 123.419C127.468 124.007 128.09 124.78 126.888 125.285Z" fill="#0C1232"/>
<path fill-rule="evenodd" clip-rule="evenodd" d="M97.4224 72.575L98.213 72.1186L97.9126 71.5984L97.1221 72.0548L97.4224 72.575Z" fill="#0C1232"/>
<path fill-rule="evenodd" clip-rule="evenodd" d="M111.288 110.443C111.704 110.706 112.379 110.506 113.104 110.088C113.259 109.747 112.894 109.266 113.393 108.913C112.15 108.434 112.321 110.099 111.288 110.443Z" fill="#0C1232"/>
<path fill-rule="evenodd" clip-rule="evenodd" d="M110.44 113.387C110.378 113.601 110.365 113.825 110.4 114.045C110.436 114.264 110.519 114.473 110.645 114.656C111.345 114.364 111.95 113.884 112.393 113.269C112.09 113.1 111.746 113.022 111.4 113.043C111.053 113.063 110.72 113.183 110.44 113.387Z" fill="#0C1232"/>
<path fill-rule="evenodd" clip-rule="evenodd" d="M83.2979 68.9619C84.141 69.3553 84.5521 69.308 85.5089 68.379C85.3414 68.3537 85.1809 68.2939 85.0378 68.2032C84.8947 68.1126 84.7721 67.9931 84.6778 67.8524C83.9918 68.1839 84.0499 68.5909 83.2979 68.9619Z" fill="#0C1232"/>
<path fill-rule="evenodd" clip-rule="evenodd" d="M65.6167 33.9249C65.2411 33.5758 64.6316 33.7384 63.8011 34.2796C64.0586 34.572 64.0074 34.7896 63.706 35.0281C64.4708 35.5922 64.8112 34.202 65.6167 33.9249Z" fill="#0C1232"/>
<path fill-rule="evenodd" clip-rule="evenodd" d="M55.2216 16.8328C55.5899 16.5578 55.2787 16.1701 55.1536 15.802L53.6383 16.6768C54.0952 17.9236 54.8184 16.4359 55.2216 16.8328Z" fill="#0C1232"/>
<path fill-rule="evenodd" clip-rule="evenodd" d="M124.347 139.149C124.605 139.441 125.144 139.003 125.631 138.785C125.491 138.237 125.03 138.503 124.54 138.721C124.743 138.92 124.546 139.034 124.347 139.149Z" fill="#0C1232"/>
<path fill-rule="evenodd" clip-rule="evenodd" d="M94.1566 86.8567C94.5246 86.5812 94.1206 86.184 94.5809 85.9182C93.8816 85.3135 93.9262 86.6104 93.0656 86.7931C93.362 87.0013 93.9659 86.5264 94.1566 86.8567Z" fill="#0C1232"/>
<path fill-rule="evenodd" clip-rule="evenodd" d="M69.4585 42.4046C68.3068 42.6922 68.4821 42.8421 67.2187 43.6978C68.5073 43.6473 68.3812 43.2777 68.706 44.6007C69.7336 43.9444 70.0816 43.1775 69.4585 42.4046Z" fill="#0C1232"/>
<path fill-rule="evenodd" clip-rule="evenodd" d="M56.2855 31.7614C55.5217 32.2655 56.873 32.9328 55.7657 33.4487C56.8999 33.7385 58.1771 31.9934 58.6332 31.4152C58.1086 30.9607 56.5515 32.6773 56.2855 31.7614Z" fill="#0C1232"/>
<path fill-rule="evenodd" clip-rule="evenodd" d="M100.757 106.202L100.457 105.682C99.5849 105.997 99.9501 106.479 100.168 106.856C100.471 106.62 100.428 106.392 100.757 106.202Z" fill="#0C1232"/>
<path fill-rule="evenodd" clip-rule="evenodd" d="M85.6624 80.0569C85.4014 79.4523 84.9084 79.359 84.079 79.9009C85.0306 80.4835 83.0015 80.7748 83.9545 81.3599C84.9762 80.3893 84.9958 80.8808 85.6624 80.0569Z" fill="#0C1232"/>
<path fill-rule="evenodd" clip-rule="evenodd" d="M80.7305 71.5145C80.3058 70.6264 79.2906 71.1494 78.2847 71.5394L79.0199 72.8128C79.4075 71.9634 80.2665 72.537 80.7305 71.5145Z" fill="#0C1232"/>
<path fill-rule="evenodd" clip-rule="evenodd" d="M50.3458 19.6477C51.1095 19.1444 49.8239 18.4384 49.776 17.9001L48.3262 18.7372L49.0617 20.0111C49.3101 19.6797 50.0916 18.5995 50.3458 19.6477Z" fill="#0C1232"/>
<path fill-rule="evenodd" clip-rule="evenodd" d="M41.4904 6.13582L41.9261 6.89063C42.1596 6.50565 42.5019 6.1984 42.9097 6.0078C42.7803 5.32586 42.0839 5.79315 41.4904 6.13582Z" fill="#0C1232"/>
<path fill-rule="evenodd" clip-rule="evenodd" d="M104.23 126.977L103.11 127.624C103.277 127.649 103.438 127.709 103.581 127.799C103.724 127.89 103.847 128.009 103.941 128.15C104.177 127.952 104.2 127.686 104.529 127.496L104.23 126.977Z" fill="#0C1232"/>
<path fill-rule="evenodd" clip-rule="evenodd" d="M51.1834 41.9459C51.3845 42.144 51.1213 42.296 50.9241 42.4098C51.1793 42.7029 51.7188 42.2653 52.2075 42.0462C52.0929 41.545 51.6433 41.6805 51.1834 41.9459Z" fill="#0C1232"/>
<path fill-rule="evenodd" clip-rule="evenodd" d="M39.1078 25.4434C39.2753 25.4685 39.4357 25.5284 39.5788 25.619C39.7219 25.7097 39.8446 25.8292 39.9389 25.9699C40.6094 25.4579 40.5346 24.8728 41.4837 24.3845C40.7955 23.6513 39.8821 24.8084 39.1078 25.4434Z" fill="#0C1232"/>
<path fill-rule="evenodd" clip-rule="evenodd" d="M90.2427 110.511C89.9402 110.749 90.0102 111.023 89.6814 111.212L89.9818 111.733C90.3498 111.458 90.6677 111.4 90.8427 111.55C91.7363 110.971 90.4826 110.625 90.2427 110.511Z" fill="#0C1232"/>
<path fill-rule="evenodd" clip-rule="evenodd" d="M85.6103 102.488C85.4439 102.961 84.2802 103.382 84.9535 103.938C85.4325 103.094 85.4139 103.672 86.4694 103.063L86.169 102.543C85.8655 102.781 85.7196 102.677 85.6103 102.488Z" fill="#0C1232"/>
<path fill-rule="evenodd" clip-rule="evenodd" d="M44.016 29.5319C43.8742 28.9847 43.3849 29.2027 42.9245 29.4685C43.0999 29.6197 42.9284 29.7804 42.7318 29.894C42.896 30.1785 43.5276 29.7515 44.016 29.5319Z" fill="#0C1232"/>
<path fill-rule="evenodd" clip-rule="evenodd" d="M109.575 144.91C109.381 144.865 109.2 144.775 109.048 144.646C109.283 144.547 109.505 144.419 109.709 144.265C110.666 143.492 109.037 143.912 108.349 144.465C108.036 144.715 108.016 144.833 108.131 144.869C107.984 145.168 108.044 145.48 107.593 145.74C108.414 146.398 108.334 145.499 109.575 144.91Z" fill="#0C1232"/>
<path fill-rule="evenodd" clip-rule="evenodd" d="M103.952 144.757C103.565 145.609 104.461 145.03 104.688 146.031C105.703 145.508 105.628 144.923 106.299 144.408C105.955 143.664 104.94 144.187 103.952 144.757Z" fill="#0C1232"/>
<path fill-rule="evenodd" clip-rule="evenodd" d="M61.2915 70.8415C60.9542 70.8757 60.6286 70.984 60.3381 71.1589C60.5339 71.2752 60.7517 71.3497 60.9777 71.3778C60.921 71.4958 60.8975 71.627 60.9095 71.7574C60.9215 71.8877 60.9685 72.0124 61.0458 72.1181L62.5616 71.2429C62.537 71.1558 62.4734 71.1552 62.4363 71.0933C62.4623 71.0783 62.4795 71.0863 62.5058 71.0705C62.4697 71.0441 62.4195 71.051 62.3821 71.0282C62.163 70.7496 61.849 70.6813 61.594 70.4811C61.4957 70.5968 61.3907 70.7177 61.2915 70.8415Z" fill="#0C1232"/>
<path fill-rule="evenodd" clip-rule="evenodd" d="M54.2632 57.7844C53.8968 58.0591 54.3008 58.4563 53.8394 58.7227C54.0688 58.9675 54.6077 58.5302 55.0954 58.3117C54.914 57.8498 54.4542 58.1153 54.2632 57.7844Z" fill="#0C1232"/>
<path fill-rule="evenodd" clip-rule="evenodd" d="M97.0954 134.558C96.3691 133.908 95.889 134.751 95.0213 135.378C95.4216 135.461 95.7551 135.583 95.3217 135.898C95.6721 136.2 96.4464 135.564 97.0007 135.307C96.7446 135.012 96.8595 134.757 97.0954 134.558Z" fill="#0C1232"/>
<path fill-rule="evenodd" clip-rule="evenodd" d="M79.5369 111.91C78.5985 112.263 79.003 112.658 79.1823 113.122C79.4842 112.884 79.4143 112.61 79.8363 112.428L79.5369 111.91Z" fill="#0C1232"/>
<path fill-rule="evenodd" clip-rule="evenodd" d="M91.8235 137.601C91.7105 137.099 91.2215 137.319 90.9651 137.027C90.0537 137.427 91.8447 138.092 90.3083 138.476C90.7287 139.052 91.6542 137.762 91.8235 137.601Z" fill="#0C1232"/>
<path fill-rule="evenodd" clip-rule="evenodd" d="M62.9787 89.3136C62.6229 89.4566 62.638 89.6366 62.747 89.8254L63.0473 90.3456C63.6682 90.0502 63.5422 89.6818 64.0036 89.4154C63.7726 89.1701 63.1694 89.6439 62.9787 89.3136Z" fill="#0C1232"/>
<path fill-rule="evenodd" clip-rule="evenodd" d="M89.0133 137.146L88.5505 136.344L87.1012 137.181C87.3776 137.966 88.2737 137.386 89.0133 137.146Z" fill="#0C1232"/>
<path fill-rule="evenodd" clip-rule="evenodd" d="M71.0276 106.755C72.3463 105.993 69.7465 106.362 70.9208 105.809C70.9168 105.496 70.6521 105.649 70.4282 105.716L69.6375 106.173C69.7843 107.031 70.7279 106.236 71.0276 106.755Z" fill="#0C1232"/>
<path fill-rule="evenodd" clip-rule="evenodd" d="M41.843 58.0342C42.0412 57.9198 42.5726 57.9272 42.3744 58.0416C44.3864 56.5027 38.3203 59.6907 41.843 58.0342Z" fill="#0C1232"/>
<path fill-rule="evenodd" clip-rule="evenodd" d="M81.8589 126.427L81.3961 125.626L80.2761 126.272C80.3459 126.547 80.5714 126.48 80.8352 126.327C80.9325 126.649 80.5212 126.697 80.4398 126.556C79.4161 127.523 81.2043 127.119 81.8589 126.427Z" fill="#0C1232"/>
<path fill-rule="evenodd" clip-rule="evenodd" d="M45.1128 64.4548L45.8375 64.0364L45.5371 63.5162L44.8125 63.9346L45.1128 64.4548Z" fill="#0C1232"/>
<path fill-rule="evenodd" clip-rule="evenodd" d="M77.5655 119.908L76.8408 120.326L77.1411 120.846L77.8658 120.428L77.5655 119.908Z" fill="#0C1232"/>
<path fill-rule="evenodd" clip-rule="evenodd" d="M88.1368 147.431C88.185 147.154 88.2429 146.831 88.3028 146.453C88.0246 146.185 87.8257 146.919 87.7328 147.648C87.5281 147.905 87.5111 148.123 87.6033 148.306C86.7184 148.973 87.5509 149.156 88.019 149.368C87.7318 149.678 87.3684 149.907 86.965 150.033C87.0793 150.114 87.2107 150.167 87.3489 150.189C87.3268 150.197 87.3234 150.203 87.2992 150.212C87.8779 150.779 88.1108 150.463 88.3764 150.002C88.4891 150.13 88.5728 150.305 88.6855 150.425C90.0566 149.759 90.0125 148.463 91.3758 147.172C90.3478 147.113 88.93 147.918 88.1368 147.431ZM87.8465 149.956C87.8438 149.933 87.8635 149.924 87.8541 149.898C87.8942 149.88 87.9028 149.922 87.9381 149.913C87.9159 149.925 87.8712 149.943 87.8462 149.956L87.8465 149.956Z" fill="#0C1232"/>
<path fill-rule="evenodd" clip-rule="evenodd" d="M67.5885 105.971C67.5054 105.714 67.3578 105.483 67.1598 105.3C66.9617 105.117 66.72 104.988 66.4576 104.925C66.3853 105.018 66.3069 105.105 66.2226 105.187C66.2923 104.898 66.2856 104.596 66.2033 104.31C66.1209 104.025 65.9655 103.765 65.7526 103.558C63.9114 104.059 65.2125 105.019 65.6033 105.844C65.3377 106.163 65.2061 106.49 65.5411 106.838C66.1609 106.543 66.064 106.222 66.4981 105.908C66.6384 106.458 67.06 106.276 67.5885 105.971Z" fill="#0C1232"/>
<path fill-rule="evenodd" clip-rule="evenodd" d="M80.811 134.96L81.2741 135.762C81.5046 135.373 81.8349 135.052 82.2307 134.833C82.0351 134.191 81.4314 134.665 80.811 134.96Z" fill="#0C1232"/>
<path fill-rule="evenodd" clip-rule="evenodd" d="M73.1404 133.851L73.6044 134.654C74.845 134.063 73.9976 133.356 75.546 132.84C75.4751 132.77 75.3957 132.709 75.3099 132.659C75.5201 132.468 75.2326 132.357 75.3469 132.068C76.6007 128.917 73.3599 132.831 74.3879 132.984C74.0249 133.342 73.6029 133.636 73.1404 133.851Z" fill="#0C1232"/>
<path fill-rule="evenodd" clip-rule="evenodd" d="M54.3026 99.546L54.0023 99.0258L53.2739 99.4463L53.5743 99.9665L54.3026 99.546Z" fill="#0C1232"/>
<path fill-rule="evenodd" clip-rule="evenodd" d="M70.5838 138.097C70.7864 138.294 70.5233 138.446 70.3519 138.608C70.5821 138.853 71.1206 138.415 71.6083 138.197C71.4953 137.696 71.007 137.916 70.5838 138.097Z" fill="#0C1232"/>
<path fill-rule="evenodd" clip-rule="evenodd" d="M40.8174 84.8662C40.3543 84.0641 39.1193 84.9665 38.114 85.3575C38.4524 85.7912 37.9796 86.1904 38.3193 86.6262C39.5866 86.081 39.364 85.3905 40.8174 84.8662Z" fill="#0C1232"/>
<path fill-rule="evenodd" clip-rule="evenodd" d="M44.6191 92.3634C43.9091 92.5202 43.2649 92.8922 42.7741 93.4286C42.9828 93.4665 43.1771 93.561 43.3358 93.7017C43.4945 93.8425 43.6115 94.0242 43.674 94.2269C44.1056 93.6025 45.2806 93.0503 44.6191 92.3634Z" fill="#0C1232"/>
<path fill-rule="evenodd" clip-rule="evenodd" d="M47.8626 106.663C48.4943 106.235 48.4742 105.742 48.0531 105.165C47.2076 105.528 47.1085 105.963 46.7006 106.324C47.0275 106.577 47.6084 106.369 47.8626 106.663Z" fill="#0C1232"/>
<path fill-rule="evenodd" clip-rule="evenodd" d="M51.9363 115.385L52.6608 114.967C52.4587 114.769 52.6574 114.655 52.8927 114.456C52.753 113.907 50.99 115.114 51.9363 115.385Z" fill="#0C1232"/>
<path fill-rule="evenodd" clip-rule="evenodd" d="M62.4451 143.173L62.8808 143.928C63.2876 143.567 63.2007 143.115 63.7005 142.761C63.4722 142.517 62.9065 142.907 62.4451 143.173Z" fill="#0C1232"/>
<path fill-rule="evenodd" clip-rule="evenodd" d="M58.6568 138.438C58.8026 138.362 58.926 138.25 59.015 138.112C59.104 137.974 59.1554 137.815 59.1642 137.651C59.4455 137.613 59.7214 137.543 59.9866 137.442C59.9284 134.818 58.4799 136.102 56.4597 137.732C56.9536 137.665 57.4534 137.654 57.9497 137.7C58.1123 137.767 58.2591 137.868 58.3808 137.995C58.5026 138.122 58.5966 138.273 58.6568 138.438Z" fill="#0C1232"/>
<path fill-rule="evenodd" clip-rule="evenodd" d="M49.0404 131.216L47.9199 131.863C48.2409 132.117 48.8236 131.907 49.0804 132.199C49.5134 131.886 49.1375 131.538 49.0404 131.216Z" fill="#0C1232"/>
<path fill-rule="evenodd" clip-rule="evenodd" d="M44.3608 140.462C43.8132 140.274 43.0454 140.467 42.1498 141.045C42.406 141.336 42.3557 141.556 42.0543 141.794C42.9793 142.329 43.2096 140.75 44.3608 140.462Z" fill="#0C1232"/>
<path fill-rule="evenodd" clip-rule="evenodd" d="M45.2727 144.781C44.6417 145.208 44.6625 145.7 45.1492 146.24C45.5445 146.012 45.2224 145.756 45.2442 145.491C45.627 145.395 46.0388 145.347 46.2692 145.593C47.2908 144.623 45.4631 145.111 45.2727 144.781Z" fill="#0C1232"/>
<path fill-rule="evenodd" clip-rule="evenodd" d="M131.177 21.6224C129.886 22.4299 132.485 22.0627 131.311 22.6159C131.336 22.6597 131.377 22.6916 131.426 22.7047C131.475 22.7177 131.527 22.7109 131.571 22.6857C131.614 22.6604 131.646 22.6188 131.659 22.57C131.672 22.5213 131.666 22.4693 131.64 22.4256C132.156 22.2528 132.621 22.2983 132.867 22.7238C133.685 22.3147 132.481 21.7508 132.526 21.2207C131.999 21.5252 131.433 21.9146 131.177 21.6224Z" fill="#0C1232"/>
<path fill-rule="evenodd" clip-rule="evenodd" d="M128.302 42.6646C129.165 41.7253 126.788 42.7832 126.81 41.7628C125.981 42.4325 125.25 43.2147 124.637 44.0867L124.967 43.8965L125.103 44.1332C125.709 43.6574 125.941 43.9016 126.195 44.1966C127.509 43.8763 127.589 42.1945 128.302 42.6646Z" fill="#0C1232"/>
<path fill-rule="evenodd" clip-rule="evenodd" d="M119.636 40.7448C118.818 41.155 120.023 41.717 120.042 42.2099L120.516 41.8104L120.931 42.0742C121.799 41.4467 121.138 40.759 122.378 40.1689C121.722 39.7926 120.292 41.1209 119.636 40.7448Z" fill="#0C1232"/>
<path fill-rule="evenodd" clip-rule="evenodd" d="M99.6578 9.48866C99.4017 9.19753 99.1806 9.57623 99.262 9.7172C98.9332 9.90701 98.8518 9.76601 98.7033 9.66244C97.7766 10.6379 99.6283 10.1979 99.6578 9.48866Z" fill="#0C1232"/>
<path fill-rule="evenodd" clip-rule="evenodd" d="M124.409 57.6862C124.207 57.4881 124.444 57.288 124.641 57.1745C124.412 56.9296 123.807 57.4035 123.616 57.0727C123.181 57.3856 123.516 57.5081 123.78 57.3561C123.955 57.506 123.784 57.668 123.52 57.82C123.685 58.1045 124.092 57.7426 124.409 57.6862Z" fill="#0C1232"/>
<path fill-rule="evenodd" clip-rule="evenodd" d="M129.896 70.6891L130.687 70.2326C130.43 69.9417 130.212 69.5635 130.646 69.2495C130.479 68.6541 128.6 71.1843 129.896 70.6891Z" fill="#0C1232"/>
<path fill-rule="evenodd" clip-rule="evenodd" d="M115.811 55.7285C116.113 55.4905 116.195 55.632 116.277 55.774C117.66 54.9755 114.995 55.3811 116.236 54.79C115.377 54.2161 115.969 55.6991 115.416 55.9568C115.645 56.2016 115.892 55.869 115.811 55.7285Z" fill="#0C1232"/>
<path fill-rule="evenodd" clip-rule="evenodd" d="M96.4013 31.6954L96.7016 32.2156C96.9218 31.8367 97.5372 31.229 97.8216 31.569C98.8358 31.0444 96.0692 30.8176 96.4013 31.6954Z" fill="#0C1232"/>
<path fill-rule="evenodd" clip-rule="evenodd" d="M124.483 78.6605L124.047 77.9052L123.876 78.067C124.067 78.3978 123.625 79.1554 124.483 78.6605Z" fill="#0C1232"/>
<path fill-rule="evenodd" clip-rule="evenodd" d="M123.063 78.788C123.403 78.639 123.687 78.387 123.876 78.0675C123.837 77.9401 123.675 77.91 123.525 77.8867C123.524 78.2164 123.16 78.4896 123.063 78.788Z" fill="#0C1232"/>
<path fill-rule="evenodd" clip-rule="evenodd" d="M123.525 77.887C123.525 77.7743 123.487 77.6648 123.416 77.5772C123.092 77.8413 123.295 77.854 123.525 77.887Z" fill="#0C1232"/>
<path fill-rule="evenodd" clip-rule="evenodd" d="M133.864 99.17C133.526 98.7361 132.138 100.292 132.783 100.802L133.905 100.154C133.291 100.004 133.155 99.7685 133.864 99.17Z" fill="#0C1232"/>
<path fill-rule="evenodd" clip-rule="evenodd" d="M106.721 54.7465C105.853 55.3728 106.238 53.4522 105.164 54.6375C105.119 55.1676 106.323 55.7313 105.505 56.1407C106.841 56.6275 106.391 54.9355 107.051 54.5547C107.024 54.514 106.982 54.485 106.935 54.4738C106.887 54.4627 106.837 54.4702 106.795 54.4947C106.753 54.5192 106.722 54.559 106.708 54.6059C106.694 54.6527 106.699 54.703 106.721 54.7465Z" fill="#0C1232"/>
<path fill-rule="evenodd" clip-rule="evenodd" d="M87.9709 24.8583C88.107 25.0939 88.4754 24.8181 88.8315 24.6756C88.7737 24.8433 88.75 25.0207 88.7617 25.1976C88.7733 25.3745 88.82 25.5474 88.8992 25.706C89.9934 25.0112 89.1139 23.9452 87.9709 24.8583Z" fill="#0C1232"/>
<path fill-rule="evenodd" clip-rule="evenodd" d="M110.737 65.2022C110.962 64.8109 111.307 64.5018 111.721 64.32C111.372 64.0173 110.816 64.2747 110.532 63.9352C110.01 64.552 110.02 65.1759 110.737 65.2022Z" fill="#0C1232"/>
<path fill-rule="evenodd" clip-rule="evenodd" d="M99.063 43.3097C98.8074 43.0161 98.8572 42.7995 99.158 42.5613C98.467 41.5134 97.9386 43.6433 96.9471 43.1442C96.3595 43.8011 98.1964 43.9363 99.063 43.3097Z" fill="#0C1232"/>
<path fill-rule="evenodd" clip-rule="evenodd" d="M70.438 6.66251C71.0718 7.30369 71.0929 5.97093 71.8872 5.82585C71.6854 5.62887 71.3946 5.73292 71.2577 5.49572L70.4665 5.95251C70.5365 6.22629 70.8011 6.0735 70.9977 5.95997C71.162 6.24451 70.6752 6.46313 70.438 6.66251Z" fill="#0C1232"/>
<path fill-rule="evenodd" clip-rule="evenodd" d="M132.584 121.304C133.394 120.271 130.717 122.634 132.2 123.225C133.15 122.739 133.168 122.163 133.744 121.639C133.248 121.236 131.939 122.621 132.584 121.304Z" fill="#0C1232"/>
<path fill-rule="evenodd" clip-rule="evenodd" d="M98.2206 66.1985C97.7477 66.5963 98.8888 66.4418 98.1921 66.9085C99.4578 67.121 100.929 66.0217 99.9966 64.8602C98.8445 65.146 99.3035 66.7059 98.2206 66.1985Z" fill="#0C1232"/>
<path fill-rule="evenodd" clip-rule="evenodd" d="M70.5635 18.2948C70.951 18.4177 71.3689 18.4032 71.747 18.2538C72.125 18.1044 72.4399 17.8292 72.6388 17.4747C71.8379 17.308 72.0383 18.2618 71.7798 16.9011C70.6835 17.2823 71.3547 17.838 70.5635 18.2948Z" fill="#0C1232"/>
<path fill-rule="evenodd" clip-rule="evenodd" d="M131.585 125.657C132.086 125.305 131.282 124.825 131.874 124.483C131.524 124.182 131.189 124.817 131.286 125.138C130.984 125.374 130.902 125.233 130.754 125.13C129.78 125.881 131.564 125.167 131.585 125.657Z" fill="#0C1232"/>
<path fill-rule="evenodd" clip-rule="evenodd" d="M77.9406 34.4239C78.104 34.7069 78.7358 34.2803 79.2245 34.0599C79.1545 33.7862 78.8629 33.8914 78.6653 34.0055C78.4632 33.808 78.6619 33.6933 78.9251 33.5413C78.2929 32.8993 78.5508 34.2603 77.9406 34.4239Z" fill="#0C1232"/>
<path fill-rule="evenodd" clip-rule="evenodd" d="M84.0979 45.8093L83.5873 44.925C83.3339 45.1715 83.1499 45.4804 83.0537 45.8206C83.0067 45.7055 83.0021 45.5355 83.1184 45.2179C83.5549 44.1468 82.7816 45.8528 82.6946 46.1562C82.7444 46.1968 82.8199 46.1879 82.8757 46.2161C82.7709 46.4272 82.6191 46.6116 82.4322 46.7551C82.821 47.2172 83.6545 46.5418 84.3442 46.2359L84.1868 45.9633C84.2305 45.8444 84.202 45.795 84.0979 45.8093Z" fill="#0C1232"/>
<path fill-rule="evenodd" clip-rule="evenodd" d="M69.6696 25.4186C69.971 25.1815 70.1196 25.285 70.201 25.426C70.635 25.1123 70.2573 24.7644 70.1605 24.4429C69.6872 24.8424 69.8115 25.2104 69.3404 25.61C69.3658 25.6537 69.4074 25.6855 69.4562 25.6984C69.5051 25.7113 69.557 25.7043 69.6006 25.679C69.6443 25.6536 69.676 25.6118 69.689 25.563C69.7019 25.5142 69.695 25.4622 69.6696 25.4186Z" fill="#0C1232"/>
<path fill-rule="evenodd" clip-rule="evenodd" d="M57.7967 9.11558C56.7223 9.23309 56.7276 10.6144 56.2809 9.99075C55.7415 10.4284 56.8832 10.2735 56.1859 10.7392C56.8689 11.1618 58.6935 9.60561 57.7967 9.11558Z" fill="#0C1232"/>
<path fill-rule="evenodd" clip-rule="evenodd" d="M120.756 141.602C121.781 141.704 121.4 141.043 122.109 140.444C121.561 140.257 121.571 140.88 120.457 141.083L120.756 141.602Z" fill="#0C1232"/>
<path fill-rule="evenodd" clip-rule="evenodd" d="M115.524 132.538C115.507 132.522 115.481 132.528 115.462 132.516C115.412 132.602 115.37 132.66 115.524 132.538Z" fill="#0C1232"/>
<path fill-rule="evenodd" clip-rule="evenodd" d="M115.463 132.517C115.513 132.433 115.574 132.321 115.483 132.311C115.277 132.224 115.049 132.202 114.829 132.247C114.953 132.465 115.255 132.383 115.463 132.517Z" fill="#0C1232"/>
<path fill-rule="evenodd" clip-rule="evenodd" d="M115.481 132.312C115.601 132.369 115.798 132.255 115.853 132.348C116.365 131.865 115.531 132.094 115.389 131.546C114.555 131.776 114.949 132.304 115.481 132.312Z" fill="#0C1232"/>
<path fill-rule="evenodd" clip-rule="evenodd" d="M46.8273 16.1409C47.178 16.442 47.2347 15.7809 47.9478 15.494C47.245 14.582 46.095 15.1766 45.2055 16.0709C45.3848 16.534 47.9893 14.653 46.8273 16.1409Z" fill="#0C1232"/>
<path fill-rule="evenodd" clip-rule="evenodd" d="M112.114 131.047C111.884 130.801 111.907 130.536 112.209 130.298C111.619 129.884 111.416 131.511 110.598 131.922C111.112 132.505 111.039 131.164 112.114 131.047Z" fill="#0C1232"/>
<path fill-rule="evenodd" clip-rule="evenodd" d="M100.388 118.497C101.126 119.016 100.891 117.389 101.603 117.102L101.44 116.819L101.769 116.629C101.798 115.918 99.5578 117.212 100.609 116.292C99.0911 116.098 98.6686 118.105 99.1037 118.859C99.0294 118.275 101.164 117.861 100.388 118.497Z" fill="#0C1232"/>
<path fill-rule="evenodd" clip-rule="evenodd" d="M108.047 131.003C109.41 130.469 108.43 129.838 109.1 129.326C108.871 129.081 108.623 129.413 108.771 129.516C108.294 129.603 108.021 129.13 107.284 129.68L108.047 131.003Z" fill="#0C1232"/>
<path fill-rule="evenodd" clip-rule="evenodd" d="M111.634 133.715C111.35 133.376 110.459 134.267 110.213 133.841C109.845 134.117 110.178 134.239 110.377 134.124C110.184 134.55 109.952 135.063 109.693 135.526C110.563 135.968 110.974 135.919 111.904 134.943C111.686 134.566 111.133 134.067 111.634 133.715Z" fill="#0C1232"/>
<path fill-rule="evenodd" clip-rule="evenodd" d="M76.3855 74.3362C76.2102 74.1864 75.8539 74.3297 75.6893 74.0446L74.9647 74.463C75.1437 74.9256 75.9383 74.781 75.4278 75.2651C76.0343 75.8603 75.7758 74.4996 76.3855 74.3362Z" fill="#0C1232"/>
<path fill-rule="evenodd" clip-rule="evenodd" d="M71.154 65.2748C70.7197 65.5894 70.0452 65.7894 69.6382 66.15C70.4783 65.4763 71.7162 67.4679 71.154 65.2748Z" fill="#0C1232"/>
<path fill-rule="evenodd" clip-rule="evenodd" d="M108.856 140.164C109.379 139.548 108.718 138.86 110.331 138.306C110.157 138.272 109.992 138.204 109.844 138.106C109.697 138.007 109.571 137.88 109.473 137.732C109.234 138.115 108.905 138.434 108.516 138.662C109.549 139.386 107.485 140.074 108.856 140.164Z" fill="#0C1232"/>
<path fill-rule="evenodd" clip-rule="evenodd" d="M76.1423 85.1754C76.2123 85.4492 76.4089 85.3356 76.6353 85.2688C76.7206 85.7216 75.5579 86.1418 76.5113 86.7275C76.7918 85.9989 76.8875 85.2514 77.7557 84.6218C77.4714 84.2818 76.6967 84.9212 76.1423 85.1754Z" fill="#0C1232"/>
<path fill-rule="evenodd" clip-rule="evenodd" d="M103.302 139.217L102.79 139.702L102.77 139.209L102.439 139.4L102.198 140.044L101.391 140.321C101.609 140.699 101.761 141.115 102.248 140.896L102.76 140.412L102.779 140.903L103.901 140.255C103.426 139.586 104.194 139.394 103.302 139.217Z" fill="#0C1232"/>
<path fill-rule="evenodd" clip-rule="evenodd" d="M94.8011 137.584C94.5978 137.767 94.4345 137.99 94.3214 138.24C94.2084 138.489 94.1481 138.759 94.1443 139.032L94.793 138.784L94.812 139.276C95.9238 139.83 98.3337 138.376 96.9163 137.747L96.5828 137.625L96.6165 137.228C96.2005 136.962 95.1375 138.014 94.8011 137.584Z" fill="#0C1232"/>
<path fill-rule="evenodd" clip-rule="evenodd" d="M101.792 134.929C101.767 134.885 101.725 134.853 101.676 134.84C101.627 134.827 101.575 134.834 101.531 134.859C101.487 134.884 101.455 134.926 101.442 134.975C101.429 135.024 101.436 135.076 101.461 135.12C100.821 135.259 100.163 135.299 99.5101 135.24C99.0384 135.639 99.163 136.007 98.6905 136.407C100.12 136.904 100.768 136.655 102.092 135.45C101.757 135.326 101.358 135.243 101.792 134.929Z" fill="#0C1232"/>
<path fill-rule="evenodd" clip-rule="evenodd" d="M94.2243 127.908C95.0959 127.594 95.4503 128.208 95.9035 127.316C95.5693 127.195 95.2634 127.12 95.1096 126.705L93.9246 127.389C93.9775 127.433 94.0195 127.489 94.0474 127.552C94.0753 127.615 94.0884 127.683 94.0855 127.752C94.0826 127.821 94.0638 127.888 94.0306 127.948C93.9975 128.009 93.951 128.061 93.8946 128.1C93.9214 128.141 93.9628 128.17 94.0103 128.181C94.0578 128.192 94.1078 128.185 94.15 128.16C94.1922 128.136 94.2234 128.096 94.2372 128.049C94.251 128.002 94.2464 127.952 94.2243 127.908Z" fill="#0C1232"/>
<path fill-rule="evenodd" clip-rule="evenodd" d="M96.4281 132.488C96.5797 132.75 97.0663 132.248 97.3526 131.714C98.2028 132.429 99.3809 130.416 98.4123 129.818C98.0454 130.377 98.3101 131.03 97.4528 131.52C97.5627 131.256 97.6207 131.007 97.5076 130.858C96.214 131.354 96.2608 131.893 95.3375 132.426C95.5948 132.718 96.2023 132.242 96.6223 132.061C96.8234 132.259 96.6263 132.373 96.4281 132.488Z" fill="#0C1232"/>
<path fill-rule="evenodd" clip-rule="evenodd" d="M74.9867 92.7642C74.7862 92.5658 74.9828 92.4523 75.2187 92.253C73.213 92.2784 73.2491 92.949 74.0337 92.9371C74.2621 93.1826 74.6301 92.907 74.9867 92.7642Z" fill="#0C1232"/>
<path fill-rule="evenodd" clip-rule="evenodd" d="M37.4729 35.7011C37.3369 35.4655 36.9034 35.7775 36.585 35.8365C36.7866 36.0343 36.6173 36.1951 36.3526 36.348C36.8575 36.4488 37.3818 36.3673 37.8322 36.1179C37.8765 36.1879 37.9333 36.2491 37.9998 36.2986C38.6332 35.7248 38.426 35.0247 39.1546 34.4681C38.4176 33.6382 37.3419 35.1533 37.7194 35.9764C37.5776 36.0391 37.4309 36.09 37.2807 36.1284C37.105 35.9767 37.2758 35.8149 37.4729 35.7011Z" fill="#0C1232"/>
<path fill-rule="evenodd" clip-rule="evenodd" d="M91.0279 130.131C91.5405 129.647 90.6791 129.83 90.5648 129.329C90.317 129.661 90.586 129.821 90.4693 130.078C90.7969 129.887 90.9192 129.943 91.0279 130.131Z" fill="#0C1232"/>
<path fill-rule="evenodd" clip-rule="evenodd" d="M82.499 115.359C81.8234 114.492 81.9626 116.865 81.3785 116.006C80.4568 116.538 81.9202 116.638 82.4035 116.108C82.1457 115.816 82.2616 115.559 82.499 115.359Z" fill="#0C1232"/>
<path fill-rule="evenodd" clip-rule="evenodd" d="M80.2403 120.125C79.9927 120.456 79.1843 121.49 78.9571 120.488C78.5185 121.156 78.0346 121.793 77.509 122.394C78.356 123.101 80.9172 120.992 80.2403 120.125Z" fill="#0C1232"/>
<path fill-rule="evenodd" clip-rule="evenodd" d="M79.3354 123.73C79.3842 123.783 79.421 123.846 79.4429 123.914C79.4648 123.983 79.4714 124.055 79.4623 124.127C79.4533 124.198 79.4287 124.266 79.3904 124.327C79.352 124.388 79.3009 124.44 79.2404 124.479C79.524 124.818 80.415 123.927 80.6607 124.352C81.2228 124.718 80.715 122.62 79.3354 123.73Z" fill="#0C1232"/>
<path fill-rule="evenodd" clip-rule="evenodd" d="M58.9363 93.7241C59.1657 93.969 59.4136 93.6379 59.3316 93.4959C59.8591 93.1914 60.3588 92.8411 60.615 93.1323C61.6225 91.9846 59.5206 92.7577 59.2897 92.5103C57.9999 93.3216 59.6729 93.174 58.9363 93.7241Z" fill="#0C1232"/>
<path fill-rule="evenodd" clip-rule="evenodd" d="M76.7843 122.812C76.418 122.33 75.5084 123.8 75.0093 124.151C75.3057 124.358 75.909 123.884 76.1003 124.215C77.0117 123.814 76.0597 123.231 76.7843 122.812Z" fill="#0C1232"/>
<path fill-rule="evenodd" clip-rule="evenodd" d="M60.6088 98.2958C60.4724 98.0597 60.9614 97.8412 61.1704 97.5943C60.3006 97.1532 59.6592 98.7823 59.0934 99.1707C59.3232 99.4161 59.5708 99.0845 59.4888 98.9425C60.0887 98.8901 60.6614 98.6684 61.1402 98.3032C61.0975 98.0768 60.8725 98.1436 60.6088 98.2958Z" fill="#0C1232"/>
<path fill-rule="evenodd" clip-rule="evenodd" d="M75.9192 127.4C76.2211 127.163 76.1782 126.936 76.5075 126.746L76.2072 126.226C75.5869 126.522 75.4642 127.221 75.0872 126.872C74.115 127.626 75.9262 126.957 75.9192 127.4Z" fill="#0C1232"/>
<path fill-rule="evenodd" clip-rule="evenodd" d="M52.2525 94.6265L52.1667 94.1725C51.4738 93.125 50.9726 95.3023 50.0202 94.7182C48.925 96.1682 50.7727 96.1717 52.2999 95.1637L52.2525 94.6265Z" fill="#0C1232"/>
<path fill-rule="evenodd" clip-rule="evenodd" d="M82.0724 143.231C81.2308 143.906 82.6091 144.62 83.397 143.853C83.2334 143.57 82.7994 143.884 82.5093 143.988C82.7128 143.427 82.3937 143.486 82.0724 143.231Z" fill="#0C1232"/>
<path fill-rule="evenodd" clip-rule="evenodd" d="M56.1892 107.077C56.5578 106.803 56.2239 106.68 56.0258 106.794C55.8897 106.559 56.3124 106.378 56.6144 106.14C55.849 105.575 55.5113 106.966 54.7037 107.243C55.0524 107.544 55.8791 106.69 56.1892 107.077Z" fill="#0C1232"/>
<path fill-rule="evenodd" clip-rule="evenodd" d="M41.2382 89.094C40.1504 90.1001 42.3478 88.5796 42.0965 89.6687C42.7566 89.2876 42.6965 88.8811 43.4485 88.5101C43.0208 88.0648 41.7728 89.4096 41.2382 89.094Z" fill="#0C1232"/>
<path fill-rule="evenodd" clip-rule="evenodd" d="M45.716 100.351C44.978 99.8328 45.4393 101.392 44.0071 101.651C44.3888 102.313 45.7451 101.466 46.0155 100.869C45.682 100.747 45.282 100.664 45.716 100.351Z" fill="#0C1232"/>
<path fill-rule="evenodd" clip-rule="evenodd" d="M59.2677 130.772C59.1001 130.897 58.9499 131.134 58.8726 131.679C59.0604 132.15 59.3154 132.592 59.6297 132.991C60.8805 133.17 60.5294 131.628 59.9507 130.957C60.1358 130.642 60.2006 130.258 59.9065 130.103C61.8056 128.588 59.8776 129.853 59.2677 130.772Z" fill="#0C1232"/>
<path fill-rule="evenodd" clip-rule="evenodd" d="M40.9396 137.277C40.9183 137.109 40.8462 136.952 40.7332 136.827C40.6202 136.701 40.4716 136.613 40.3071 136.574L41.9519 135.624L41.1941 134.312C39.7215 135.005 38.9789 135.805 39.7005 136.816C39.5578 136.959 39.4082 137.031 39.2202 136.885C38.8527 137.16 39.1594 137.235 39.3566 137.121C39.2946 137.333 39.287 137.556 39.3346 137.771C39.3821 137.986 39.4832 138.186 39.6285 138.351C40.3127 138.017 40.2546 137.61 40.9396 137.277Z" fill="#0C1232"/>
<path fill-rule="evenodd" clip-rule="evenodd" d="M50.3275 90.074C49.8641 89.2714 47.5344 90.8682 47.226 91.5498C47.6306 91.9453 48.7856 90.9004 48.9166 91.8915C49.3531 91.3056 49.9458 90.8545 50.6267 90.59C50.2926 90.4714 49.8931 90.3873 50.3275 90.074Z" fill="#0C1232"/>
</g>
</g>
<defs>
<clipPath id="clip0">
<rect width="126.608" height="126.608" fill="white" transform="translate(0.783203 63.3037) rotate(-30)"/>
</clipPath>
</defs>
</svg>
