<svg width="44" height="44" viewBox="0 0 44 44" fill="none" xmlns="http://www.w3.org/2000/svg">
<g clip-path="url(#clip0)">
<path d="M31.2071 35.1682L25.5798 33.5453V32.1185C26.3289 31.5171 26.9214 30.7295 27.2885 29.826H27.7058C29.2693 29.826 30.5406 28.5547 30.5406 26.9912V22.7391C30.5406 18.0499 26.7258 14.2347 22.0363 14.2347C17.3471 14.2347 13.532 18.0499 13.532 22.7391V26.9912C13.532 28.5547 14.8037 29.826 16.3667 29.826H16.7844C17.1516 30.7295 17.744 31.5171 18.4928 32.1185V33.5453L12.8658 35.1682C10.7546 35.7776 9.27979 37.7372 9.27979 39.9349V43.9999H34.7928V39.9349C34.7928 37.7372 33.3183 35.7776 31.2071 35.1682ZM26.1469 35.1838L25.1908 38.529L23.0972 36.8541L25.0766 34.8748L26.1469 35.1838ZM21.7657 41.1651H22.3072L23.0159 42.5825H21.057L21.7657 41.1651ZM22.4519 39.7477H21.621L20.7352 38.8619L22.0363 37.821L23.3377 38.8619L22.4519 39.7477ZM27.7058 28.4086H27.657C27.6861 28.1761 27.7058 27.9401 27.7058 27.6999V25.5739C28.4875 25.5739 29.1232 26.2095 29.1232 26.9912C29.1232 27.773 28.4875 28.4086 27.7058 28.4086ZM22.0363 15.6521C25.9441 15.6521 29.1232 18.8312 29.1232 22.7391V24.5506C28.7045 24.3066 28.2249 24.1565 27.7058 24.1565V23.7506C27.7058 22.411 26.6162 21.3217 25.2773 21.3217C24.9032 21.3217 24.5274 21.4103 24.1907 21.5784L22.6176 22.365C22.128 22.6093 21.5802 22.7391 21.0321 22.7391H18.4928C17.5703 22.7391 16.7906 23.3336 16.4972 24.1565H16.3667C15.848 24.1565 15.3684 24.3066 14.9493 24.5506V22.7391C14.9493 18.8312 18.1288 15.6521 22.0363 15.6521ZM16.3667 28.4086C15.5854 28.4086 14.9493 27.773 14.9493 26.9912C14.9493 26.2095 15.5854 25.5739 16.3667 25.5739V27.6999C16.3667 27.9401 16.3868 28.1761 16.4159 28.4086H16.3667ZM17.7841 27.6999V24.8652C17.7841 24.4741 18.1025 24.1565 18.4928 24.1565H21.0321C21.7989 24.1565 22.5657 23.9751 23.2512 23.6329L24.8243 22.8467C24.9648 22.7761 25.1206 22.7398 25.2773 22.7398C25.8351 22.7391 26.2885 23.1927 26.2885 23.7506V27.6999C26.2885 30.0451 24.3814 31.9521 22.0363 31.9521C19.6915 31.9521 17.7841 30.0451 17.7841 27.6999ZM22.0363 33.3695C22.7882 33.3695 23.5056 33.2193 24.1624 32.9522V33.7847L22.0363 35.9108L19.9102 33.7847V32.9522C20.5673 33.2193 21.2847 33.3695 22.0363 33.3695ZM18.9963 34.8748L20.9757 36.8541L18.8821 38.529L17.926 35.1838L18.9963 34.8748ZM10.6972 39.9349C10.6972 38.366 11.7505 36.9663 13.2586 36.5302L16.564 35.5765L18.1039 40.9668L19.6213 39.7526L20.4653 40.5962L19.4725 42.5825H14.9493V40.4564H13.532V42.5825H10.6972V39.9349ZM33.3754 42.5825H30.5406V40.4564H29.1232V42.5825H24.6005L23.6077 40.5962L24.4517 39.7526L25.9691 40.9668L27.5089 35.5765L30.8143 36.5302C32.3224 36.9656 33.3754 38.366 33.3754 39.9349V42.5825Z" fill="url(#paint0_linear)"/>
<path d="M18.704 8.73964L22.036 6.65266L25.3684 8.73964L24.2763 5.02384L26.382 3.2656L23.3946 2.48839L22.036 0L20.6775 2.48839L17.6904 3.2656L19.7961 5.02384L18.704 8.73964ZM21.6274 3.70577L22.036 2.95658L22.4451 3.70507L23.36 3.94315L22.6555 4.53142L22.9562 5.55536L22.036 4.97989L21.1163 5.55605L21.4166 4.53211L20.7124 3.94384L21.6274 3.70577Z" fill="url(#paint1_linear)"/>
<path d="M30.5404 4.2522L29.1819 6.74059L26.1948 7.5178L28.3005 9.27604L27.2084 12.9918L30.5404 10.9049L33.8728 12.9918L32.7807 9.27604L34.8864 7.5178L31.899 6.74059L30.5404 4.2522ZM31.4605 9.80825L30.5404 9.23209L29.6206 9.80825L29.921 8.78431L29.2168 8.19604L30.1317 7.95796L30.5404 7.20878L30.9494 7.95727L31.8644 8.19535L31.1598 8.78362L31.4605 9.80825Z" fill="url(#paint2_linear)"/>
<path d="M43.3915 3.26491L40.4044 2.48735L39.0448 0L37.6863 2.48839L34.6992 3.2656L36.8049 5.02384L35.7128 8.73964L39.0448 6.65266L42.3772 8.73964L41.2851 5.02384L43.3915 3.26491ZM39.965 5.55605L39.0448 4.97989L38.125 5.55605L38.4254 4.53211L37.7212 3.94384L38.6361 3.70577L39.0448 2.95658L39.4538 3.70507L40.3688 3.94315L39.6642 4.53142L39.965 5.55605Z" fill="url(#paint3_linear)"/>
<path d="M10.1996 12.9918L13.5316 10.9049L16.864 12.9918L15.7719 9.27604L17.8776 7.5178L14.8902 6.74059L13.5316 4.2522L12.1731 6.74059L9.18604 7.5178L11.2917 9.27604L10.1996 12.9918ZM13.123 7.95796L13.5316 7.20878L13.9407 7.95727L14.8556 8.19535L14.1511 8.78362L14.4518 9.80756L13.5316 9.23209L12.6119 9.80825L12.9122 8.78431L12.208 8.19604L13.123 7.95796Z" fill="url(#paint4_linear)"/>
<path d="M5.02695 6.65266L8.35934 8.73964L7.26723 5.02384L9.3729 3.2656L6.38552 2.48839L5.02695 0L3.66839 2.48839L0.680664 3.26491L2.78633 5.02315L1.69422 8.73895L5.02695 6.65266ZM4.61828 3.70577L5.02695 2.95658L5.43598 3.70507L6.35091 3.94315L5.64637 4.53142L5.94708 5.55536L5.02695 4.97989L4.10717 5.55605L4.40754 4.53211L3.70334 3.94384L4.61828 3.70577Z" fill="url(#paint5_linear)"/>
<path d="M39.7531 13.5261C39.7531 12.3541 38.7995 11.4 37.6271 11.4C36.455 11.4 35.501 12.3541 35.501 13.5261C35.501 14.6985 36.455 15.6522 37.6271 15.6522C37.7298 15.6522 37.8278 15.6359 37.9264 15.6217C39.1182 18.0406 39.7531 20.7328 39.7531 23.4478C39.7531 26.3279 39.0469 29.1883 37.7094 31.7169L38.9631 32.3802C40.4068 29.6468 41.1705 26.5591 41.1705 23.4478C41.1705 20.5047 40.4791 17.5855 39.1822 14.9656C39.5338 14.5864 39.7531 14.0832 39.7531 13.5261ZM36.9184 13.5261C36.9184 13.1358 37.2367 12.8174 37.6271 12.8174C38.0177 12.8174 38.3358 13.1358 38.3358 13.5261C38.3358 13.9168 38.0177 14.2348 37.6271 14.2348C37.2367 14.2348 36.9184 13.9168 36.9184 13.5261Z" fill="url(#paint6_linear)"/>
<path d="M6.44435 31.2434C6.34158 31.2434 6.24399 31.2597 6.14537 31.2739C4.95326 28.8551 4.31827 26.1629 4.31827 23.4478C4.31827 20.567 5.02489 17.7073 6.36234 15.1788L5.10932 14.5161C3.66494 17.2481 2.90088 20.3365 2.90088 23.4478C2.90088 26.3909 3.59262 29.3094 4.88889 31.931C4.53801 32.3099 4.31827 32.8131 4.31827 33.3695C4.31827 34.5419 5.27231 35.4956 6.44435 35.4956C7.61674 35.4956 8.57044 34.5419 8.57044 33.3695C8.57044 32.1975 7.61674 31.2434 6.44435 31.2434ZM6.44435 34.0782C6.05402 34.0782 5.73566 33.7609 5.73566 33.3695C5.73566 32.9785 6.05402 32.6608 6.44435 32.6608C6.83504 32.6608 7.15305 32.9785 7.15305 33.3695C7.15305 33.7609 6.83504 34.0782 6.44435 34.0782Z" fill="url(#paint7_linear)"/>
</g>
<defs>
<linearGradient id="paint0_linear" x1="22.0363" y1="14.2347" x2="22.0363" y2="43.9999" gradientUnits="userSpaceOnUse">
<stop stop-color="#1961A9"/>
<stop offset="1" stop-color="#2F7DCC"/>
</linearGradient>
<linearGradient id="paint1_linear" x1="22.0362" y1="0" x2="22.0362" y2="8.73964" gradientUnits="userSpaceOnUse">
<stop stop-color="#1961A9"/>
<stop offset="1" stop-color="#2F7DCC"/>
</linearGradient>
<linearGradient id="paint2_linear" x1="30.5406" y1="4.2522" x2="30.5406" y2="12.9918" gradientUnits="userSpaceOnUse">
<stop stop-color="#1961A9"/>
<stop offset="1" stop-color="#2F7DCC"/>
</linearGradient>
<linearGradient id="paint3_linear" x1="39.0453" y1="0" x2="39.0453" y2="8.73964" gradientUnits="userSpaceOnUse">
<stop stop-color="#1961A9"/>
<stop offset="1" stop-color="#2F7DCC"/>
</linearGradient>
<linearGradient id="paint4_linear" x1="13.5318" y1="4.2522" x2="13.5318" y2="12.9918" gradientUnits="userSpaceOnUse">
<stop stop-color="#1961A9"/>
<stop offset="1" stop-color="#2F7DCC"/>
</linearGradient>
<linearGradient id="paint5_linear" x1="5.02678" y1="0" x2="5.02678" y2="8.73964" gradientUnits="userSpaceOnUse">
<stop stop-color="#1961A9"/>
<stop offset="1" stop-color="#2F7DCC"/>
</linearGradient>
<linearGradient id="paint6_linear" x1="38.3358" y1="11.4" x2="38.3358" y2="32.3802" gradientUnits="userSpaceOnUse">
<stop stop-color="#1961A9"/>
<stop offset="1" stop-color="#2F7DCC"/>
</linearGradient>
<linearGradient id="paint7_linear" x1="5.73566" y1="14.5161" x2="5.73566" y2="35.4956" gradientUnits="userSpaceOnUse">
<stop stop-color="#1961A9"/>
<stop offset="1" stop-color="#2F7DCC"/>
</linearGradient>
<clipPath id="clip0">
<rect width="44" height="44" fill="white"/>
</clipPath>
</defs>
</svg>
