<svg width="44" height="44" viewBox="0 0 44 44" fill="none" xmlns="http://www.w3.org/2000/svg">
<path d="M4.125 4.8125C4.5047 4.8125 4.8125 4.5047 4.8125 4.125C4.8125 3.7453 4.5047 3.4375 4.125 3.4375C3.7453 3.4375 3.4375 3.7453 3.4375 4.125C3.4375 4.5047 3.7453 4.8125 4.125 4.8125Z" fill="#1C65AE"/>
<path d="M8.9375 3.4375H17.1875V4.8125H8.9375V3.4375Z" fill="#1C65AE"/>
<path d="M41.7505 28.6351L39.1875 27.9943L37.8125 27.6506L36.4375 27.3068L35.0625 26.9631V26.8125H39.1875C40.3246 26.8125 41.25 25.8871 41.25 24.75V17.2363L39.8894 17.1353C39.8736 17.0129 39.8798 16.8905 39.9279 16.7784C39.9664 16.6898 40.0036 16.5997 40.0386 16.5103C40.1129 16.3178 40.2758 16.1686 40.4841 16.1006C41.3531 15.8146 41.9375 15.0074 41.9375 14.0924V13.4076C41.9375 12.4926 41.3531 11.6854 40.4827 11.3994C40.2751 11.3314 40.1129 11.1822 40.0386 10.9911C40.0036 10.9003 39.9671 10.8103 39.9279 10.7209C39.8468 10.5332 39.8564 10.3146 39.9541 10.1207C40.3673 9.30394 40.2098 8.31944 39.5622 7.6725L39.0782 7.1885C38.4306 6.54156 37.4468 6.38344 36.63 6.79662C36.4361 6.89425 36.2175 6.90456 36.0291 6.82275C35.9411 6.78425 35.8511 6.74781 35.761 6.71206C35.5692 6.63712 35.4193 6.47487 35.3512 6.26656C35.0646 5.39687 34.2574 4.8125 33.3424 4.8125H32.6576C31.7426 4.8125 30.9354 5.39687 30.6494 6.26725C30.5814 6.47487 30.4322 6.63644 30.2397 6.71138C30.1496 6.74644 30.0603 6.78288 29.9709 6.82206C29.7832 6.90388 29.5639 6.89356 29.3707 6.79594C28.5539 6.38275 27.5694 6.54087 26.9225 7.18781L26.4385 7.67181C25.7909 8.31875 25.6334 9.30325 26.0466 10.12C26.1449 10.3139 26.1539 10.5325 26.0728 10.7209C26.0343 10.8096 25.9971 10.8996 25.9621 10.989C25.8878 11.1815 25.7249 11.3307 25.5166 11.3988C25.4891 11.4077 25.465 11.4214 25.4382 11.4318V4.125C25.4382 2.22956 23.8961 0.6875 22.0007 0.6875H4.125C2.22956 0.6875 0.6875 2.22956 0.6875 4.125V39.875C0.6875 41.7704 2.22956 43.3125 4.125 43.3125H22C23.8954 43.3125 25.4375 41.7704 25.4375 39.875V33.6875C26.3086 33.6875 27.0779 33.2723 27.5818 32.6384L27.8245 33.1237C28.0617 33.5988 28.1875 34.1309 28.1875 34.6617V35.75C28.1875 39.9197 31.5803 43.3125 35.75 43.3125C39.9197 43.3125 43.3125 39.9197 43.3125 35.75V30.6364C43.3125 29.6876 42.6697 28.8647 41.7505 28.6351ZM25.4375 13.4076C25.4375 13.0879 25.6417 12.8061 25.9456 12.7057C26.5457 12.5091 27.0187 12.0649 27.2429 11.4874C27.2717 11.4139 27.302 11.3403 27.3329 11.2688C27.5777 10.7051 27.5564 10.0609 27.2731 9.50056C27.1287 9.21525 27.1838 8.87081 27.4099 8.64463L27.8939 8.16062C28.1201 7.93375 28.4632 7.87875 28.7499 8.02381C29.3102 8.30706 29.9557 8.32838 30.5174 8.08363C30.5903 8.052 30.6639 8.02175 30.7374 7.99356C31.3142 7.76875 31.7584 7.29575 31.9557 6.69625C32.0554 6.39169 32.3379 6.1875 32.6576 6.1875H33.3424C33.6621 6.1875 33.9439 6.39169 34.0443 6.69625C34.2416 7.29575 34.6851 7.76875 35.2619 7.99288C35.3354 8.02175 35.409 8.052 35.4812 8.08294C36.0443 8.32769 36.6891 8.30569 37.2494 8.02313C37.5347 7.87806 37.8785 7.93375 38.1054 8.15994L38.5894 8.64394C38.8156 8.87012 38.8706 9.21456 38.7262 9.49988C38.4429 10.0602 38.4216 10.7044 38.6664 11.2674C38.6973 11.3396 38.7276 11.4132 38.7571 11.4881C38.9813 12.0649 39.4543 12.5084 40.0544 12.7057C40.3583 12.8054 40.5625 13.0879 40.5625 13.4076V14.0924C40.5625 14.4121 40.3583 14.6939 40.0537 14.7943C39.4543 14.9909 38.9813 15.4351 38.7571 16.0126C38.7282 16.0861 38.698 16.1597 38.6671 16.2312C38.5557 16.4869 38.5069 16.7599 38.5048 17.0328L36.641 16.8946C37.3842 16.0387 37.8125 14.9353 37.8125 13.75C37.8125 11.0963 35.6538 8.9375 33 8.9375C30.3463 8.9375 28.1875 11.0963 28.1875 13.75C28.1875 14.6761 28.4604 15.5643 28.9431 16.3247L27.3219 16.2044C27.2951 16.1404 27.2683 16.0765 27.2422 16.0112C27.0181 15.4344 26.5451 14.9909 25.9449 14.7936C25.6417 14.6946 25.4375 14.4121 25.4375 14.0924V13.4076ZM36.4375 13.75C36.4375 15.0109 35.7603 16.1411 34.6665 16.7489L30.9093 16.4704C30.0658 15.8214 29.5625 14.8197 29.5625 13.75C29.5625 11.8546 31.1046 10.3125 33 10.3125C34.8954 10.3125 36.4375 11.8546 36.4375 13.75ZM39.875 18.5137V24.75C39.875 25.1288 39.5663 25.4375 39.1875 25.4375H35.0625V22C35.0625 20.8629 34.1371 19.9375 33 19.9375C31.8629 19.9375 30.9375 20.8629 30.9375 22V25.4375H22.6875V17.2404L39.875 18.5137ZM2.0625 4.125C2.0625 2.98787 2.98787 2.0625 4.125 2.0625H22C23.1371 2.0625 24.0625 2.98787 24.0625 4.125V6.1875H2.0625V4.125ZM24.0625 39.875C24.0625 41.0121 23.1371 41.9375 22 41.9375H4.125C2.98787 41.9375 2.0625 41.0121 2.0625 39.875V35.0625H24.0625V39.875ZM24.0625 33.6875H2.0625V7.5625H24.0625V13.4076V14.0924V15.9637L22.6875 15.862V11C22.6875 9.86287 21.7621 8.9375 20.625 8.9375H5.5C4.36287 8.9375 3.4375 9.86287 3.4375 11V30.25C3.4375 31.3871 4.36287 32.3125 5.5 32.3125H20.625C21.7621 32.3125 22.6875 31.3871 22.6875 30.25V26.8125H24.0625V28.5697C23.2444 29.0469 22.6875 29.9241 22.6875 30.9375C22.6875 31.9509 23.2444 32.8281 24.0625 33.3053V33.6875ZM4.8125 14.4375V11C4.8125 10.6212 5.12119 10.3125 5.5 10.3125H20.625C21.0038 10.3125 21.3125 10.6212 21.3125 11V14.4375H4.8125ZM21.3125 15.8125V30.25C21.3125 30.6288 21.0038 30.9375 20.625 30.9375H5.5C5.12119 30.9375 4.8125 30.6288 4.8125 30.25V15.8125H21.3125ZM25.4375 32.3125C24.6792 32.3125 24.0625 31.6958 24.0625 30.9375C24.0625 30.1792 24.6792 29.5625 25.4375 29.5625C26.1958 29.5625 26.8125 30.1792 26.8125 30.9375C26.8125 31.6958 26.1958 32.3125 25.4375 32.3125ZM27.5653 29.2167C27.0607 28.5945 26.2996 28.1875 25.4375 28.1875V26.8125H30.9375V29.7206C30.3002 29.2002 29.4979 28.875 28.6124 28.875C28.2212 28.875 27.8609 29.0043 27.5653 29.2167ZM41.9375 35.75C41.9375 39.1614 39.1614 41.9375 35.75 41.9375C32.3386 41.9375 29.5625 39.1614 29.5625 35.75V34.6617C29.5625 33.9185 29.3872 33.1739 29.0544 32.5091L28.2322 30.8653C28.2026 30.8062 28.1875 30.7402 28.1875 30.6749C28.1875 30.4404 28.3779 30.25 28.6124 30.25C29.8946 30.25 30.9375 31.2929 30.9375 32.5751V33.6875V35.75H32.3125V33.6875V32.5751V22C32.3125 21.6212 32.6212 21.3125 33 21.3125C33.3788 21.3125 33.6875 21.6212 33.6875 22V26.6193V35.75H35.0625V28.3807L36.4375 28.7244V35.75H37.8125V29.0682L39.1875 29.4119V35.75H40.5625V29.7557L41.4164 29.9695C41.723 30.0458 41.9375 30.3201 41.9375 30.6364V35.75Z" fill="#1C65AE"/>
<path d="M33 11.6875C31.8629 11.6875 30.9375 12.6129 30.9375 13.75C30.9375 14.8871 31.8629 15.8125 33 15.8125C34.1371 15.8125 35.0625 14.8871 35.0625 13.75C35.0625 12.6129 34.1371 11.6875 33 11.6875ZM33 14.4375C32.6212 14.4375 32.3125 14.1288 32.3125 13.75C32.3125 13.3712 32.6212 13.0625 33 13.0625C33.3788 13.0625 33.6875 13.3712 33.6875 13.75C33.6875 14.1288 33.3788 14.4375 33 14.4375Z" fill="#1C65AE"/>
<path d="M11 40.5625H15.125C16.2621 40.5625 17.1875 39.6371 17.1875 38.5C17.1875 37.3629 16.2621 36.4375 15.125 36.4375H11C9.86287 36.4375 8.9375 37.3629 8.9375 38.5C8.9375 39.6371 9.86287 40.5625 11 40.5625ZM11 37.8125H15.125C15.5038 37.8125 15.8125 38.1212 15.8125 38.5C15.8125 38.8788 15.5038 39.1875 15.125 39.1875H11C10.6212 39.1875 10.3125 38.8788 10.3125 38.5C10.3125 38.1212 10.6212 37.8125 11 37.8125Z" fill="#1C65AE"/>
<path d="M11.6875 11.6875H13.0625V13.0625H11.6875V11.6875Z" fill="#1C65AE"/>
<path d="M8.9375 11.6875H10.3125V13.0625H8.9375V11.6875Z" fill="#1C65AE"/>
<path d="M6.1875 11.6875H7.5625V13.0625H6.1875V11.6875Z" fill="#1C65AE"/>
<path d="M13.0625 17.1875H6.1875V21.3125H13.0625V17.1875ZM11.6875 19.9375H7.5625V18.5625H11.6875V19.9375Z" fill="#1C65AE"/>
<path d="M14.4375 17.1875H19.9375V18.5625H14.4375V17.1875Z" fill="#1C65AE"/>
<path d="M14.4375 19.9375H19.9375V21.3125H14.4375V19.9375Z" fill="#1C65AE"/>
<path d="M16.5 29.5625C18.3954 29.5625 19.9375 28.0204 19.9375 26.125C19.9375 24.2296 18.3954 22.6875 16.5 22.6875C14.6046 22.6875 13.0625 24.2296 13.0625 26.125C13.0625 28.0204 14.6046 29.5625 16.5 29.5625ZM16.5 24.0625C17.6371 24.0625 18.5625 24.9879 18.5625 26.125C18.5625 27.2621 17.6371 28.1875 16.5 28.1875C15.3629 28.1875 14.4375 27.2621 14.4375 26.125C14.4375 24.9879 15.3629 24.0625 16.5 24.0625Z" fill="#1C65AE"/>
<path d="M6.1875 28.1875H11.6875V29.5625H6.1875V28.1875Z" fill="#1C65AE"/>
<path d="M6.1875 25.4375H11.6875V26.8125H6.1875V25.4375Z" fill="#1C65AE"/>
<path d="M6.1875 22.6875H11.6875V24.0625H6.1875V22.6875Z" fill="#1C65AE"/>
</svg>
