<svg width="44" height="44" viewBox="0 0 44 44" fill="none" xmlns="http://www.w3.org/2000/svg">
<path d="M41.9375 18.5625C42.6958 18.5625 43.3125 17.9458 43.3125 17.1875V10.3125C43.3125 9.55419 42.6958 8.9375 41.9375 8.9375H25.8864C23.9216 3.98544 19.1118 0.6875 13.75 0.6875C6.54706 0.6875 0.6875 6.54706 0.6875 13.75C0.6875 19.8296 4.86887 24.9377 10.5023 26.3869C10.3806 26.7424 10.3125 27.1164 10.3125 27.5V41.25C10.3125 42.3871 11.2379 43.3125 12.375 43.3125H15.125C16.2621 43.3125 17.1875 42.3871 17.1875 41.25V27.5C17.1875 27.1184 17.1208 26.7465 16.9998 26.3924C18.5439 25.9957 20.0042 25.3206 21.3125 24.3898V29.5625C21.3125 30.3208 21.9292 30.9375 22.6875 30.9375H41.9375C42.6958 30.9375 43.3125 30.3208 43.3125 29.5625V22.6875C43.3125 21.9292 42.6958 21.3125 41.9375 21.3125H24.3932C25.0009 20.46 25.4946 19.5381 25.8809 18.5625H41.9375ZM17.1875 18.5625H21.2767C19.6481 21.098 16.8046 22.6875 13.75 22.6875C8.822 22.6875 4.8125 18.678 4.8125 13.75C4.8125 8.822 8.822 4.8125 13.75 4.8125C16.8046 4.8125 19.6481 6.402 21.2767 8.9375H17.1875C16.4292 8.9375 15.8125 9.55419 15.8125 10.3125V17.1875C15.8125 17.9458 16.4292 18.5625 17.1875 18.5625ZM17.1875 17.1875V10.3125H25.4375V17.1875H17.1875ZM41.9382 17.1875H26.8125V10.3125H41.9375L41.9382 17.1875ZM15.125 41.9375H12.375C11.9962 41.9375 11.6875 41.6288 11.6875 41.25V30.9375H15.8125V41.25C15.8125 41.6288 15.5038 41.9375 15.125 41.9375ZM15.8125 27.5V29.5625H11.6875V27.5C11.6875 27.2071 11.7528 26.9239 11.8697 26.6612C12.4857 26.7506 13.1099 26.8125 13.75 26.8125C14.3846 26.8125 15.0109 26.7534 15.631 26.6633C15.7479 26.9253 15.8125 27.2078 15.8125 27.5ZM22.6875 22.6875H32.3125V29.5625H22.6875V22.6875ZM41.9375 29.5625H33.6875V22.6875H41.9375V29.5625ZM22.6442 21.3166C21.9209 21.34 21.34 21.9209 21.3173 22.6449C19.2053 24.4427 16.533 25.4375 13.75 25.4375C7.30538 25.4375 2.0625 20.1946 2.0625 13.75C2.0625 7.30538 7.30538 2.0625 13.75 2.0625C18.3638 2.0625 22.5259 4.78844 24.4014 8.9375H22.8656C21.0897 5.58456 17.5629 3.4375 13.75 3.4375C8.06369 3.4375 3.4375 8.06369 3.4375 13.75C3.4375 19.4363 8.06369 24.0625 13.75 24.0625C17.5629 24.0625 21.0897 21.9154 22.8656 18.5625H24.3973C23.9484 19.5573 23.3585 20.4779 22.6442 21.3166V21.3166Z" fill="url(#paint0_linear)"/>
<path d="M39.1875 13.0625H40.5625V14.4375H39.1875V13.0625Z" fill="url(#paint1_linear)"/>
<path d="M36.4375 13.0625H37.8125V14.4375H36.4375V13.0625Z" fill="url(#paint2_linear)"/>
<path d="M33.6875 13.0625H35.0625V14.4375H33.6875V13.0625Z" fill="url(#paint3_linear)"/>
<path d="M30.9375 13.0625H32.3125V14.4375H30.9375V13.0625Z" fill="url(#paint4_linear)"/>
<path d="M28.1875 13.0625H29.5625V14.4375H28.1875V13.0625Z" fill="url(#paint5_linear)"/>
<path d="M23.5764 11.2014L19.9375 14.8404L19.0485 13.9514L18.0764 14.9235L19.9375 16.7846L24.5485 12.1735L23.5764 11.2014Z" fill="url(#paint6_linear)"/>
<path d="M39.1875 33.6875H19.9375C19.1792 33.6875 18.5625 34.3042 18.5625 35.0625V41.9375C18.5625 42.6958 19.1792 43.3125 19.9375 43.3125H39.1875C39.9458 43.3125 40.5625 42.6958 40.5625 41.9375V35.0625C40.5625 34.3042 39.9458 33.6875 39.1875 33.6875ZM19.9375 35.0625H28.1875V41.9375H19.9375V35.0625ZM29.5625 41.9375V35.0625H39.1875L39.1882 41.9375H29.5625Z" fill="url(#paint7_linear)"/>
<path d="M36.4375 37.8125H37.8125V39.1875H36.4375V37.8125Z" fill="url(#paint8_linear)"/>
<path d="M33.6875 37.8125H35.0625V39.1875H33.6875V37.8125Z" fill="url(#paint9_linear)"/>
<path d="M30.9375 37.8125H32.3125V39.1875H30.9375V37.8125Z" fill="url(#paint10_linear)"/>
<path d="M24.0625 25.4375H25.4375V26.8125H24.0625V25.4375Z" fill="url(#paint11_linear)"/>
<path d="M26.8125 25.4375H28.1875V26.8125H26.8125V25.4375Z" fill="url(#paint12_linear)"/>
<path d="M29.5625 25.4375H30.9375V26.8125H29.5625V25.4375Z" fill="url(#paint13_linear)"/>
<path d="M26.3264 35.9514L22.6875 39.5904L21.7985 38.7014L20.8264 39.6735L22.6875 41.5346L27.2985 36.9235L26.3264 35.9514Z" fill="url(#paint14_linear)"/>
<path d="M35.2639 27.7014L36.236 28.6735L37.8125 27.0971L39.3889 28.6735L40.361 27.7014L38.7846 26.125L40.361 24.5485L39.3889 23.5764L37.8125 25.1529L36.236 23.5764L35.2639 24.5485L36.8404 26.125L35.2639 27.7014Z" fill="url(#paint15_linear)"/>
<defs>
<linearGradient id="paint0_linear" x1="22" y1="0.6875" x2="22" y2="43.3125" gradientUnits="userSpaceOnUse">
<stop stop-color="#1961A9"/>
<stop offset="1" stop-color="#2F7DCC"/>
</linearGradient>
<linearGradient id="paint1_linear" x1="39.875" y1="13.0625" x2="39.875" y2="14.4375" gradientUnits="userSpaceOnUse">
<stop stop-color="#1961A9"/>
<stop offset="1" stop-color="#2F7DCC"/>
</linearGradient>
<linearGradient id="paint2_linear" x1="37.125" y1="13.0625" x2="37.125" y2="14.4375" gradientUnits="userSpaceOnUse">
<stop stop-color="#1961A9"/>
<stop offset="1" stop-color="#2F7DCC"/>
</linearGradient>
<linearGradient id="paint3_linear" x1="34.375" y1="13.0625" x2="34.375" y2="14.4375" gradientUnits="userSpaceOnUse">
<stop stop-color="#1961A9"/>
<stop offset="1" stop-color="#2F7DCC"/>
</linearGradient>
<linearGradient id="paint4_linear" x1="31.625" y1="13.0625" x2="31.625" y2="14.4375" gradientUnits="userSpaceOnUse">
<stop stop-color="#1961A9"/>
<stop offset="1" stop-color="#2F7DCC"/>
</linearGradient>
<linearGradient id="paint5_linear" x1="28.875" y1="13.0625" x2="28.875" y2="14.4375" gradientUnits="userSpaceOnUse">
<stop stop-color="#1961A9"/>
<stop offset="1" stop-color="#2F7DCC"/>
</linearGradient>
<linearGradient id="paint6_linear" x1="21.3125" y1="11.2014" x2="21.3125" y2="16.7846" gradientUnits="userSpaceOnUse">
<stop stop-color="#1961A9"/>
<stop offset="1" stop-color="#2F7DCC"/>
</linearGradient>
<linearGradient id="paint7_linear" x1="29.5625" y1="33.6875" x2="29.5625" y2="43.3125" gradientUnits="userSpaceOnUse">
<stop stop-color="#1961A9"/>
<stop offset="1" stop-color="#2F7DCC"/>
</linearGradient>
<linearGradient id="paint8_linear" x1="37.125" y1="37.8125" x2="37.125" y2="39.1875" gradientUnits="userSpaceOnUse">
<stop stop-color="#1961A9"/>
<stop offset="1" stop-color="#2F7DCC"/>
</linearGradient>
<linearGradient id="paint9_linear" x1="34.375" y1="37.8125" x2="34.375" y2="39.1875" gradientUnits="userSpaceOnUse">
<stop stop-color="#1961A9"/>
<stop offset="1" stop-color="#2F7DCC"/>
</linearGradient>
<linearGradient id="paint10_linear" x1="31.625" y1="37.8125" x2="31.625" y2="39.1875" gradientUnits="userSpaceOnUse">
<stop stop-color="#1961A9"/>
<stop offset="1" stop-color="#2F7DCC"/>
</linearGradient>
<linearGradient id="paint11_linear" x1="24.75" y1="25.4375" x2="24.75" y2="26.8125" gradientUnits="userSpaceOnUse">
<stop stop-color="#1961A9"/>
<stop offset="1" stop-color="#2F7DCC"/>
</linearGradient>
<linearGradient id="paint12_linear" x1="27.5" y1="25.4375" x2="27.5" y2="26.8125" gradientUnits="userSpaceOnUse">
<stop stop-color="#1961A9"/>
<stop offset="1" stop-color="#2F7DCC"/>
</linearGradient>
<linearGradient id="paint13_linear" x1="30.25" y1="25.4375" x2="30.25" y2="26.8125" gradientUnits="userSpaceOnUse">
<stop stop-color="#1961A9"/>
<stop offset="1" stop-color="#2F7DCC"/>
</linearGradient>
<linearGradient id="paint14_linear" x1="24.0625" y1="35.9514" x2="24.0625" y2="41.5346" gradientUnits="userSpaceOnUse">
<stop stop-color="#1961A9"/>
<stop offset="1" stop-color="#2F7DCC"/>
</linearGradient>
<linearGradient id="paint15_linear" x1="37.8125" y1="23.5764" x2="37.8125" y2="28.6735" gradientUnits="userSpaceOnUse">
<stop stop-color="#1961A9"/>
<stop offset="1" stop-color="#2F7DCC"/>
</linearGradient>
</defs>
</svg>
