<svg width="97" height="90" viewBox="0 0 97 90" fill="none" xmlns="http://www.w3.org/2000/svg">
<path d="M33.25 38.5429L0.5 71.2929V5.5H33.25V38.5429ZM89.5 38.5429L56.75 71.2929V5.5H89.5V38.5429Z" stroke="#6099D1"/>
<mask id="mask0" mask-type="alpha" maskUnits="userSpaceOnUse" x="7" y="11" width="90" height="68">
<path d="M7 11.25V78.75L40.75 45V11.25H7Z" fill="#0C3160"/>
<path d="M63.25 11.25V78.75L97 45V11.25H63.25Z" fill="#0C3160"/>
</mask>
<g mask="url(#mask0)">
<path d="M7 11.25V78.75L40.75 45V11.25H7Z" fill="url(#paint0_linear)"/>
<path d="M63.25 11.25V78.75L97 45V11.25H63.25Z" fill="url(#paint1_linear)"/>
<path fill-rule="evenodd" clip-rule="evenodd" d="M40.7252 85.5637L42.045 85.5637L42.045 82.3027C44.239 81.4364 41.3504 77.8793 41.6835 82.2042L40.7252 82.2042L40.7252 85.5637Z" fill="#EAF1F9"/>
<path fill-rule="evenodd" clip-rule="evenodd" d="M38.7401 81.3677C37.7533 80.3802 37.9603 77.8854 36.094 78.0146C35.49 81.2292 37.1753 83.3656 38.7401 81.3677Z" fill="#EAF1F9"/>
<path fill-rule="evenodd" clip-rule="evenodd" d="M87.6741 81.3678C89.3223 81.241 87.8686 78.5249 87.6741 78.0146C85.6935 78.5667 88.3072 79.8038 87.6741 81.3678Z" fill="#EAF1F9"/>
<path fill-rule="evenodd" clip-rule="evenodd" d="M28.8215 80.5282L30.1422 80.5282C30.4233 78.7753 29.6909 78.3067 29.4807 77.1719C28.5278 77.3656 29.2516 79.6769 28.1625 79.6863C28.038 80.4022 28.4167 80.4802 28.8215 80.5282Z" fill="#EAF1F9"/>
<path fill-rule="evenodd" clip-rule="evenodd" d="M16.2563 73.8164C13.1118 75.8828 18.1092 78.1382 16.2563 73.8164V73.8164Z" fill="#EAF1F9"/>
<path fill-rule="evenodd" clip-rule="evenodd" d="M28.8215 76.3365C30.6839 75.4884 28.6372 72.7746 28.8215 71.3052C26.0408 72.4092 28.8254 74.0544 28.8215 76.3365Z" fill="#EAF1F9"/>
<path fill-rule="evenodd" clip-rule="evenodd" d="M30.1421 67.9514C31.2446 69.6185 30.0822 69.0177 30.1421 71.3054C32.136 72.6118 32.136 66.6513 30.1421 67.9514Z" fill="#EAF1F9"/>
<path fill-rule="evenodd" clip-rule="evenodd" d="M46.6764 67.1158C47.3962 66.9047 47.126 65.4471 47.9978 65.4345C47.7127 63.1137 45.9188 65.3896 46.6764 67.1158Z" fill="#EAF1F9"/>
<path fill-rule="evenodd" clip-rule="evenodd" d="M18.2399 65.4343C21.4804 68.5347 22.2017 62.8537 18.2399 65.4343V65.4343Z" fill="#EAF1F9"/>
<path fill-rule="evenodd" clip-rule="evenodd" d="M49.3224 66.2708C49.5796 66.005 49.8877 65.7939 50.2285 65.6501C50.5692 65.5064 50.9355 65.4331 51.3053 65.4344C50.9344 63.6941 50.2729 63.6633 49.3224 64.5957L49.3224 66.2708Z" fill="#EAF1F9"/>
<path fill-rule="evenodd" clip-rule="evenodd" d="M59.9023 65.4345C60.1717 65.2628 60.4035 65.0383 60.5837 64.7745C60.7638 64.5108 60.8886 64.2133 60.9505 63.8999C61.0124 63.5866 61.0101 63.2639 60.9438 62.9514C60.8775 62.639 60.7485 62.3432 60.5647 62.082C59.029 62.3112 59.0439 64.3209 59.9023 65.4345Z" fill="#EAF1F9"/>
<path fill-rule="evenodd" clip-rule="evenodd" d="M29.4806 63.7596C31.7588 61.5955 26.081 61.7286 29.4806 63.7596V63.7596Z" fill="#EAF1F9"/>
<path fill-rule="evenodd" clip-rule="evenodd" d="M78.4187 31.0579C80.8638 28.5167 76.4082 28.2324 78.4187 31.0579V31.0579Z" fill="#EAF1F9"/>
<path fill-rule="evenodd" clip-rule="evenodd" d="M80.0739 85.9736C79.8487 84.2954 80.2079 83.3559 81.397 83.4591L81.0654 82.6205L81.397 81.7834C81.3773 80.9659 80.5858 81.1344 80.0739 80.9446C80.0795 79.2783 81.8766 79.8792 81.397 77.5955L81.3906 77.6002L81.3906 77.2726L80.6031 77.2726L80.6031 78.1624C80.5371 78.2404 80.4562 78.3043 80.365 78.3505C80.2739 78.3966 80.1743 78.4239 80.0724 78.4309C79.3999 77.8876 79.3872 76.5016 78.0894 76.7528C77.124 80.4469 76.7877 81.6872 77.428 85.9736L80.0739 85.9736Z" fill="#EAF1F9"/>
<path fill-rule="evenodd" clip-rule="evenodd" d="M73.4583 80.9448C74.9034 81.1023 75.5634 80.2597 75.4452 78.4312C74.8263 79.325 73.0047 78.6903 73.4583 80.9448Z" fill="#EAF1F9"/>
<path fill-rule="evenodd" clip-rule="evenodd" d="M53.6212 70.0434C52.9492 68.7566 52.7176 67.285 52.9621 65.854C50.6697 66.1076 50.2964 71.2176 53.6212 70.0434Z" fill="#EAF1F9"/>
<path fill-rule="evenodd" clip-rule="evenodd" d="M70.8148 66.6938L70.8148 65.0093L68.1703 65.0093L68.1703 66.6938L70.8148 66.6938Z" fill="#EAF1F9"/>
<path fill-rule="evenodd" clip-rule="evenodd" d="M14.6026 65.0091C15.7673 64.813 16.1098 63.5727 15.9255 61.6654C13.9379 60.8165 14.7562 63.5302 14.6026 65.0091Z" fill="#EAF1F9"/>
<path fill-rule="evenodd" clip-rule="evenodd" d="M18.5714 63.3373L19.8984 63.3373C20.2047 61.5505 18.9533 61.738 17.9099 61.6655C18.0383 62.338 18.5753 62.5018 18.5714 63.3373Z" fill="#EAF1F9"/>
<path fill-rule="evenodd" clip-rule="evenodd" d="M47.0087 59.1479L47.0087 57.4697L45.6849 57.4697L45.6849 59.1479L47.0087 59.1479Z" fill="#EAF1F9"/>
<path fill-rule="evenodd" clip-rule="evenodd" d="M41.0568 56.6312C41.1702 54.0325 38.7298 52.8584 37.7493 54.1113C37.7013 56.6281 39.6968 58.3692 41.0568 56.6312Z" fill="#EAF1F9"/>
<path fill-rule="evenodd" clip-rule="evenodd" d="M41.7175 47.4072C39.2763 46.8221 38.7959 48.7349 39.0739 51.6022C41.1505 51.7227 41.3458 49.457 41.7175 47.4072Z" fill="#EAF1F9"/>
<path fill-rule="evenodd" clip-rule="evenodd" d="M49.6547 34.8334C52.6858 34.2696 49.1216 29.7541 49.6547 34.8334V34.8334Z" fill="#EAF1F9"/>
<path fill-rule="evenodd" clip-rule="evenodd" d="M23.2019 21.4177C25.2077 24.5149 25.4305 18.8701 23.2019 21.4177V21.4177Z" fill="#EAF1F9"/>
<path fill-rule="evenodd" clip-rule="evenodd" d="M70.7871 68.2128L70.7871 69.3877C70.3319 69.4822 69.9382 69.4893 70.0311 68.7971C69.4594 68.9963 70.1729 69.4941 70.0311 70.4934C70.2824 70.5344 70.5392 70.5259 70.7871 70.4682L70.7871 70.721C72.7157 71.9511 72.7157 66.9709 70.7871 68.2128Z" fill="#EAF1F9"/>
<path fill-rule="evenodd" clip-rule="evenodd" d="M67.4788 67.3662C65.9211 68.5947 66.2519 69.138 64.1713 68.2088C64.2312 70.702 68.1167 70.4508 67.4788 67.3662Z" fill="#EAF1F9"/>
<path fill-rule="evenodd" clip-rule="evenodd" d="M18.5455 69.0451C19.5172 65.8542 15.5892 68.8812 16.561 65.6919C13.8354 66.6574 16.7019 69.0293 18.5455 69.0451Z" fill="#EAF1F9"/>
<path fill-rule="evenodd" clip-rule="evenodd" d="M23.8351 63.1768L22.5145 63.1768L22.5145 64.8494L23.8351 64.8494L23.8351 63.1768Z" fill="#EAF1F9"/>
<path fill-rule="evenodd" clip-rule="evenodd" d="M61.5277 64.8494L62.8531 64.8494L62.8531 63.1768L61.5277 63.1768L61.5277 64.8494Z" fill="#EAF1F9"/>
<path fill-rule="evenodd" clip-rule="evenodd" d="M73.4284 64.8492C74.9656 64.5626 76.5312 64.3058 76.0744 61.4992C74.516 63.5467 74.8452 60.2495 72.767 60.6598C72.2252 63.0286 73.7025 62.8301 73.4284 64.8492Z" fill="#EAF1F9"/>
<path fill-rule="evenodd" clip-rule="evenodd" d="M51.6148 62.3349C53.7355 63.0689 52.9842 60.1622 54.2583 59.815C54.3694 58.0037 51.9101 59.4408 50.9509 58.9817C50.6697 60.7355 51.4013 61.2041 51.6148 62.3349Z" fill="#EAF1F9"/>
<path fill-rule="evenodd" clip-rule="evenodd" d="M91.9471 59.8149C93.1244 59.2085 92.0432 58.2996 91.9471 57.3003C90.7714 57.9193 91.8558 58.8305 91.9471 59.8149Z" fill="#EAF1F9"/>
<path fill-rule="evenodd" clip-rule="evenodd" d="M7.96539 57.3002C10.8319 56.9592 7.26767 52.4382 7.96539 57.3002V57.3002Z" fill="#EAF1F9"/>
<path fill-rule="evenodd" clip-rule="evenodd" d="M20.5276 49.7618C20.4079 49.046 20.7867 48.9744 21.1891 48.9224C20.9584 47.8199 20.0268 47.6001 19.8686 46.4023C18.9692 46.6614 19.3172 48.5057 19.207 49.7618L20.5276 49.7618Z" fill="#EAF1F9"/>
<path fill-rule="evenodd" clip-rule="evenodd" d="M44.9998 47.2467C47.441 44.6975 42.9893 44.4164 44.9998 47.2467V47.2467Z" fill="#EAF1F9"/>
<path fill-rule="evenodd" clip-rule="evenodd" d="M32.4314 45.5689C33.5551 45.8792 33.6788 44.9082 33.7544 43.8908C33.1929 44.042 33.1331 43.5616 33.0945 43.0513C32.3211 43.1812 32.5337 44.579 32.4314 45.5689Z" fill="#EAF1F9"/>
<path fill-rule="evenodd" clip-rule="evenodd" d="M80.0434 42.2103L80.0434 43.8908C80.6041 43.7333 80.6655 44.2106 80.7041 44.7264C81.99 45.0603 81.6703 40.9062 80.0434 42.2103Z" fill="#EAF1F9"/>
<path fill-rule="evenodd" clip-rule="evenodd" d="M64.8375 35.5001C62.7238 35.9986 62.79 33.9338 61.53 35.5001C61.6411 37.8815 62.7435 38.995 62.8554 41.374C63.8292 39.5361 64.4986 37.5524 64.8375 35.5001Z" fill="#EAF1F9"/>
<path fill-rule="evenodd" clip-rule="evenodd" d="M69.7901 41.0672C69.8473 41.5714 69.783 42.082 69.6026 42.5563C70.4602 42.8548 70.8886 44.1526 71.6029 43.1548C71.7691 41.8743 71.2399 41.6333 70.7485 41.3482C71.127 41.4006 71.5127 41.3534 71.8674 41.2113C72.2222 41.0692 72.5338 40.8372 72.7715 40.538C72.3159 39.778 72.0865 38.9037 72.1101 38.0179C69.8145 37.3446 69.5664 39.2677 67.4787 38.8535C68.0417 39.7813 68.8388 40.5448 69.7901 41.0672Z" fill="#EAF1F9"/>
<path fill-rule="evenodd" clip-rule="evenodd" d="M82.0286 40.5378L82.0286 38.8564L80.0465 38.8564L80.0465 40.5378L82.0286 40.5378Z" fill="#EAF1F9"/>
<path fill-rule="evenodd" clip-rule="evenodd" d="M10.6115 28.7969C9.62633 29.5119 9.65223 31.4917 9.28605 32.9895C11.254 33.169 11.6179 29.9986 10.6115 28.7969Z" fill="#EAF1F9"/>
<path fill-rule="evenodd" clip-rule="evenodd" d="M36.4003 32.9896C35.6963 32.2076 36.1948 29.8987 34.4182 30.4752C34.2964 32.3037 34.9571 33.1419 36.4003 32.9896Z" fill="#EAF1F9"/>
<path fill-rule="evenodd" clip-rule="evenodd" d="M72.7716 28.7971C73.3875 27.9001 75.2129 28.538 74.7561 26.2771C73.3129 26.128 72.6514 26.968 72.7716 28.7971Z" fill="#EAF1F9"/>
<path fill-rule="evenodd" clip-rule="evenodd" d="M68.1427 26.2801L70.1209 26.2801C70.2603 24.846 68.9948 24.1097 70.1209 23.7656C69.5366 21.5023 67.4434 24.1585 68.1427 26.2801Z" fill="#EAF1F9"/>
<path fill-rule="evenodd" clip-rule="evenodd" d="M10.6115 21.2487C12.9346 19.8116 8.94982 19.5611 9.28608 17.8916C6.90076 19.4067 10.2044 20.5242 10.6115 21.2487Z" fill="#EAF1F9"/>
<path fill-rule="evenodd" clip-rule="evenodd" d="M27.8001 14.5459C25.9503 14.9916 26.5803 18.5866 25.8204 20.4128C27.36 19.5678 27.9521 17.5274 27.8001 14.5459Z" fill="#EAF1F9"/>
<path fill-rule="evenodd" clip-rule="evenodd" d="M79.3826 19.574C77.9329 17.0138 75.1475 20.5394 79.3826 19.574V19.574Z" fill="#EAF1F9"/>
<path fill-rule="evenodd" clip-rule="evenodd" d="M15.901 17.8915L15.901 16.2197L14.5757 16.2197L14.5757 17.8915L15.901 17.8915Z" fill="#EAF1F9"/>
<path fill-rule="evenodd" clip-rule="evenodd" d="M81.3671 12.031L81.3671 10.3529L80.8379 10.3529C81.0678 9.28111 81.6159 9.33784 80.7355 8.00146C79.4865 8.9315 77.6949 9.18273 77.428 11.3515L79.3809 11.3515L79.3809 12.031L81.3671 12.031Z" fill="#EAF1F9"/>
<path fill-rule="evenodd" clip-rule="evenodd" d="M93.2732 12.0312C94.7159 12.1788 95.3774 11.3388 95.2577 9.51129C93.8108 9.35851 93.1493 10.1985 93.2732 12.0312Z" fill="#EAF1F9"/>
<path fill-rule="evenodd" clip-rule="evenodd" d="M85.9976 11.1887C88.0033 11.4935 87.3677 8.45769 87.982 7.00004C85.914 6.61023 85.8669 8.7892 85.9976 11.1887Z" fill="#EAF1F9"/>
<path fill-rule="evenodd" clip-rule="evenodd" d="M32.129 76.3364C34.5868 75.0481 33.722 73.9518 31.4674 75.4969C31.2792 76.9971 32.0904 77.2152 32.129 76.3364Z" fill="#EAF1F9"/>
<path fill-rule="evenodd" clip-rule="evenodd" d="M46.0148 52.8563C46.0723 53.3847 46.4211 53.543 46.848 53.6021C46.8558 53.7163 46.8803 53.7919 46.8803 53.9258C46.9909 53.8416 47.0887 53.7419 47.1709 53.6297C47.4475 53.6361 47.7236 53.6578 47.9978 53.695C48.1757 52.7893 47.8764 52.4894 47.5197 52.261C47.4654 51.9145 47.3835 51.5483 47.3095 51.1333C47.0779 51.1876 47.0094 51.4972 46.9204 51.7759C46.7697 51.6148 46.6829 51.4042 46.6764 51.1837C45.6408 51.4782 47.2543 52.6547 46.0148 52.8563Z" fill="#EAF1F9"/>
<path fill-rule="evenodd" clip-rule="evenodd" d="M75.1112 33.5748C75.5222 35.6546 78.2218 40.0669 78.4187 35.2529C75.9184 36.4602 77.1492 32.9495 75.1112 33.5748Z" fill="#EAF1F9"/>
<path fill-rule="evenodd" clip-rule="evenodd" d="M34.4473 52.4413C35.4262 52.0736 34.1843 51.3671 34.4473 49.9213C33.3795 49.6803 33.3094 50.7089 32.4613 50.7585C32.6109 51.9704 34.4324 51.053 34.4473 52.4413Z" fill="#EAF1F9"/>
<path fill-rule="evenodd" clip-rule="evenodd" d="M46.3181 83.2964C46.9914 82.7499 47.004 81.3677 48.3033 81.6221C48.8491 79.2494 47.3725 79.4447 47.6419 77.4287C45.062 78.543 47.5087 81.1749 46.3181 83.2964Z" fill="#EAF1F9"/>
<path fill-rule="evenodd" clip-rule="evenodd" d="M43.6745 72.3984C42.257 70.3273 43.8611 75.0601 44.3367 75.7484C45.7471 77.825 44.1501 73.089 43.6745 72.3984Z" fill="#EAF1F9"/>
<path fill-rule="evenodd" clip-rule="evenodd" d="M56.8988 68.2129C56.8838 68.2366 56.2381 68.1948 56.2396 68.2129C56.6074 71.0125 59.0172 63.736 56.8988 68.2129Z" fill="#EAF1F9"/>
<path fill-rule="evenodd" clip-rule="evenodd" d="M70.1209 45.5691C70.0012 44.8509 70.3799 44.7753 70.7831 44.7265C70.4146 42.2994 69.7531 46.0187 68.8002 45.5691C68.88 47.6937 69.7612 48.8115 71.4438 48.9223C72.2053 46.281 70.4099 46.8818 70.1209 45.5691Z" fill="#EAF1F9"/>
<path fill-rule="evenodd" clip-rule="evenodd" d="M83.7926 32.4512C83.7881 32.7572 83.8652 33.059 84.0162 33.3253C84.0061 33.4633 84.0147 33.6022 84.0414 33.738C84.2619 33.8222 84.4793 33.9104 84.6982 33.9946L84.7226 33.9018C84.9801 34.0017 85.2556 34.0463 85.5314 34.0327C85.8073 34.0191 86.0771 33.9476 86.3236 33.8229L87.3181 33.8229L87.3181 32.1535L86.4519 32.1535C86.3184 31.8371 86.2039 31.5132 86.1086 31.1833C85.9555 31.1399 85.7923 31.147 85.6436 31.2038C85.4949 31.2606 85.3685 31.3639 85.2832 31.4983C84.9208 31.546 84.5629 31.6232 84.213 31.729C84.1737 31.9039 84.1249 32.1046 84.0745 32.2976C84.0219 32.3004 83.969 32.2979 83.9169 32.2898C83.954 32.2488 83.9784 32.1928 84.0178 32.1535C82.8169 29.4256 80.0268 33.9167 78.7258 31.318C77.7092 31.759 78.6849 32.1842 79.3873 32.1535C79.043 33.2135 78.9108 34.331 78.9983 35.4421C78.6195 35.9035 78.6258 36.9013 78.6833 37.9684C78.7053 37.9684 78.7132 37.9833 78.7345 37.9841C78.7306 37.9999 78.7345 38.0061 78.7282 38.0219C78.7825 38.0321 78.8179 38.0172 78.8715 38.0219C79.0122 38.0467 79.1429 38.1108 79.2487 38.2068C79.3545 38.3029 79.431 38.4268 79.4692 38.5645C79.5727 38.5229 79.6609 38.4505 79.7217 38.3571C79.7826 38.2637 79.8132 38.1538 79.8094 38.0424C82.3656 37.7415 82.3924 34.2278 83.7926 32.4512Z" fill="#EAF1F9"/>
<path fill-rule="evenodd" clip-rule="evenodd" d="M93.2732 21.2487L95.9192 21.2487C96.5012 18.5594 93.7402 20.1045 93.9347 17.8916C92.9338 18.6287 94.1134 19.1516 93.2732 21.2487Z" fill="#EAF1F9"/>
<path fill-rule="evenodd" clip-rule="evenodd" d="M15.2396 12.8668C14.9467 13.6063 14.6576 14.363 13.9166 14.5457C14.0993 16.5215 15.6806 13.5826 16.561 13.7086C16.398 12.7951 15.2467 13.1393 15.2396 12.0312C14.4868 12.1911 14.8711 12.8668 15.2396 12.8668Z" fill="#EAF1F9"/>
<path fill-rule="evenodd" clip-rule="evenodd" d="M43.3712 77.8911C44.1752 76.6988 43.0239 75.2711 43.4798 73.9536L43.0389 78.0131C43.1499 77.9713 43.2594 77.9305 43.3712 77.8911Z" fill="#EAF1F9"/>
<path fill-rule="evenodd" clip-rule="evenodd" d="M38.4108 71.722L40.3953 74.2419C40.3165 73.2466 40.2236 72.2409 39.796 71.8519C39.3412 71.7525 38.8761 71.7089 38.4108 71.722Z" fill="#EAF1F9"/>
<path fill-rule="evenodd" clip-rule="evenodd" d="M7.00002 31.0577L8.06158 32.1373C7.81195 31.5562 7.69144 30.8065 7.00002 31.0577Z" fill="#EAF1F9"/>
<path fill-rule="evenodd" clip-rule="evenodd" d="M8.65045 32.7366L8.06063 32.1372C8.18996 32.4377 8.34526 32.7034 8.65045 32.7366Z" fill="#EAF1F9"/>
<path fill-rule="evenodd" clip-rule="evenodd" d="M75.0821 32.1523L76.4051 33.4123C76.3136 33.1052 76.1432 32.8274 75.9112 32.6064C75.6791 32.3853 75.3933 32.2288 75.0821 32.1523Z" fill="#EAF1F9"/>
<path fill-rule="evenodd" clip-rule="evenodd" d="M13.1581 79.5667L15.1584 79.5667C14.6117 78.4923 14.2037 77.3529 13.9441 76.1758C12.9432 76.275 13.1581 78.0712 13.1581 79.5667Z" fill="#EAF1F9"/>
<path fill-rule="evenodd" clip-rule="evenodd" d="M18.3037 76.7739C18.1933 76.4383 17.9836 76.1442 17.7024 75.9303C17.4212 75.7164 17.0816 75.5929 16.7287 75.5762C16.4824 76.0185 16.3531 76.5165 16.3531 77.0228C16.3531 77.5292 16.4824 78.0271 16.7287 78.4695C17.9446 78.968 17.2304 76.5731 18.3037 76.7739Z" fill="#EAF1F9"/>
<path fill-rule="evenodd" clip-rule="evenodd" d="M70.3878 77.2727C70.4602 76.6742 70.8169 76.9735 70.8169 77.2727C71.7462 77.1719 71.0303 74.778 70.8169 74.4795C70.3161 74.6779 70.1728 75.4764 69.6026 75.5764C69.6026 76.6742 70.1027 76.7743 70.0311 77.8712C70.3161 77.9713 70.3878 77.6704 70.3878 77.2727Z" fill="#EAF1F9"/>
<path fill-rule="evenodd" clip-rule="evenodd" d="M57.8848 75.5766C57.5272 75.6766 57.5273 75.3766 57.4556 75.0781C57.0272 75.0781 57.1706 76.075 57.0989 76.7743C57.7407 76.9736 57.8131 76.2751 57.8848 75.5766Z" fill="#EAF1F9"/>
<path fill-rule="evenodd" clip-rule="evenodd" d="M84.106 75.0782L84.106 76.7744L85.3195 76.7744C84.8919 76.1759 85.177 74.6782 84.106 75.0782Z" fill="#EAF1F9"/>
<path fill-rule="evenodd" clip-rule="evenodd" d="M62.9547 68.7934L62.9547 69.8911C63.3114 69.7911 63.3114 70.0888 63.3831 70.4896C64.1005 70.6881 63.9571 67.898 62.9547 68.7934Z" fill="#EAF1F9"/>
<path fill-rule="evenodd" clip-rule="evenodd" d="M41.0237 63.6068C40.6646 63.7044 40.6646 63.406 40.5946 63.106C40.1662 63.106 40.3078 64.1053 40.2362 64.8014C40.8796 65.0022 40.9512 64.3029 41.0237 63.6068Z" fill="#EAF1F9"/>
<path fill-rule="evenodd" clip-rule="evenodd" d="M42.9523 56.2225L44.1658 56.2225L44.1658 53.9277C43.7664 54.1554 43.4402 54.4921 43.2252 54.8985C43.0103 55.305 42.9156 55.7643 42.9523 56.2225Z" fill="#EAF1F9"/>
<path fill-rule="evenodd" clip-rule="evenodd" d="M88.8231 55.624C89.3216 55.524 89.5366 55.8248 89.6106 56.2225C90.1091 56.0248 90.2532 55.2255 90.8249 55.1255C90.7532 53.43 88.464 53.5301 88.8231 55.624Z" fill="#EAF1F9"/>
<path fill-rule="evenodd" clip-rule="evenodd" d="M29.2333 53.9277L29.2333 55.6241L30.4484 55.6241C30.0192 55.1256 30.3051 53.5301 29.2333 53.9277Z" fill="#EAF1F9"/>
<path fill-rule="evenodd" clip-rule="evenodd" d="M50.0256 49.938L50.0256 48.8403L49.2381 48.8403L49.2381 49.9373L50.0256 49.938Z" fill="#EAF1F9"/>
<path fill-rule="evenodd" clip-rule="evenodd" d="M43.7398 48.8401C43.954 47.4423 43.0256 47.6423 43.3831 45.9468C42.7389 46.5453 42.9547 48.4416 42.5956 49.4386C43.2374 49.5394 43.2374 48.8401 43.7398 48.8401Z" fill="#EAF1F9"/>
<path fill-rule="evenodd" clip-rule="evenodd" d="M13.1582 48.84L13.9457 48.84L13.9457 47.7422L13.1582 47.7422L13.1582 48.84Z" fill="#EAF1F9"/>
<path fill-rule="evenodd" clip-rule="evenodd" d="M66.1006 45.948C66.8149 45.848 67.0299 45.051 66.8881 43.7532C66.7048 43.7758 66.5199 43.7259 66.3728 43.6141C66.2257 43.5023 66.128 43.3375 66.1006 43.1548C65.6722 43.2556 65.8156 44.2517 65.3131 44.2517C65.6006 44.851 66.244 44.851 66.1006 45.948Z" fill="#EAF1F9"/>
<path fill-rule="evenodd" clip-rule="evenodd" d="M52.3827 43.1544C52.4551 43.6529 52.7402 43.6528 52.7402 44.2513L53.5277 44.2513C53.7411 43.0543 53.0268 43.1544 52.3827 43.1544Z" fill="#EAF1F9"/>
<path fill-rule="evenodd" clip-rule="evenodd" d="M76.3192 39.7637C75.6751 39.9621 75.9601 41.5599 74.7442 40.8598C74.6742 42.7546 75.6735 43.3531 76.3192 44.2516C77.4619 43.4539 77.176 40.5606 76.3192 39.7637Z" fill="#EAF1F9"/>
<path fill-rule="evenodd" clip-rule="evenodd" d="M35.5215 39.7635C37.0965 41.6535 34.5206 40.9605 36.309 43.7529C37.38 42.0582 36.8807 40.8597 36.7374 39.165C36.5844 39.3403 36.3982 39.4834 36.1895 39.5862C35.9808 39.6889 35.7537 39.7493 35.5215 39.7635Z" fill="#EAF1F9"/>
<path fill-rule="evenodd" clip-rule="evenodd" d="M60.5984 40.2612C60.0283 39.6627 60.1701 37.9673 59.0235 37.9673L59.0235 40.2612L60.5984 40.2612Z" fill="#EAF1F9"/>
<path fill-rule="evenodd" clip-rule="evenodd" d="M65.744 37.9673C65.8157 38.4658 66.1008 38.5666 66.1008 39.1651L66.8882 39.1651C67.1017 37.9673 66.3157 38.0673 65.744 37.9673Z" fill="#EAF1F9"/>
<path fill-rule="evenodd" clip-rule="evenodd" d="M38.8795 33.1785L39.4504 33.4769L40.2379 33.4769C40.0615 32.6894 40.0221 31.7106 39.8158 30.9775C39.9593 31.2682 40.1851 31.5102 40.4651 31.6736C40.7451 31.837 41.067 31.9145 41.3907 31.8965C41.1017 30.8672 40.5434 30.1758 39.4062 30.2183C39.4726 30.3714 39.5517 30.5186 39.6425 30.6585C39.6055 30.5227 39.5403 30.3961 39.4512 30.2871C39.3622 30.178 39.2513 30.0889 39.1256 30.0254C39 29.9619 38.8623 29.9255 38.7217 29.9186C38.5811 29.9117 38.4406 29.9344 38.3093 29.9852C38.3224 30.141 38.326 30.2975 38.3203 30.4538C37.8478 30.5325 37.7588 30.1151 37.7249 29.6387C36.9493 29.7718 37.1658 31.1633 37.0635 32.1524C38.0037 32.4052 38.236 31.7657 38.3321 30.9585C38.2746 32.228 37.9982 33.8211 38.666 33.977L38.8795 33.1785Z" fill="#EAF1F9"/>
<path fill-rule="evenodd" clip-rule="evenodd" d="M57.4556 33.9771L55.5269 33.9771C55.7411 35.1748 56.4546 35.6734 56.3144 37.4696C57.2421 37.068 57.1705 35.2725 57.4556 33.9771Z" fill="#EAF1F9"/>
<path fill-rule="evenodd" clip-rule="evenodd" d="M65.7439 37.4697C66.0098 37.278 66.2219 37.021 66.3598 36.7237C66.4977 36.4264 66.5568 36.0986 66.5314 35.7718C65.8896 35.5734 65.818 36.2718 65.3171 36.2718C65.3872 36.7703 65.7439 36.8704 65.7439 37.4697Z" fill="#EAF1F9"/>
<path fill-rule="evenodd" clip-rule="evenodd" d="M15.5151 36.8703C16.3026 37.0679 16.0876 34.2716 15.1583 35.1748L15.1583 36.2718C15.5151 36.1718 15.5151 36.5702 15.5151 36.8703Z" fill="#EAF1F9"/>
<path fill-rule="evenodd" clip-rule="evenodd" d="M12.7999 32.2817C13.1582 32.1817 13.1582 32.5793 13.1582 32.8786C14.0859 29.7869 9.80031 30.8846 12.014 33.9771C12.5148 33.7771 12.7999 33.2787 12.7999 32.2817Z" fill="#EAF1F9"/>
<path fill-rule="evenodd" clip-rule="evenodd" d="M7.72757 28.888C7.94546 29.4277 8.06656 30.0017 8.08518 30.5835L8.87267 30.5835C8.80101 30.085 9.01595 30.085 9.30103 29.985L9.30103 28.888C8.82853 28.9817 8.62138 28.7888 8.47806 28.3501C8.76857 28.0948 8.99368 27.7736 9.13453 27.4134C9.27538 27.0532 9.32793 26.6644 9.28766 26.2798C8.50017 26.6412 7.9749 27.3453 7.98357 28.714C7.90875 28.7912 7.84649 28.888 7.72757 28.888Z" fill="#EAF1F9"/>
<path fill-rule="evenodd" clip-rule="evenodd" d="M62.601 30.5841C63.0995 30.3856 62.8861 29.1886 62.9578 28.29C62.7857 28.5364 62.5435 28.7254 62.2626 28.8321C61.9816 28.9389 61.675 28.9585 61.3828 28.8885C61.2426 31.3825 62.4569 29.5871 62.601 30.5841Z" fill="#EAF1F9"/>
<path fill-rule="evenodd" clip-rule="evenodd" d="M76.5783 26.4427C77.3556 25.3953 76.7996 22.6564 78.421 22.6761C78.2927 21.7225 77.7556 22.2083 77.7603 22.6761C76.5744 22.7848 76.3633 21.6523 75.1136 21.8374C74.8206 22.5831 74.5332 23.3337 73.7929 23.5124C74.019 24.8819 75.6829 24.429 75.8404 25.8859C75.3246 26.6655 75.5924 28.6162 75.5365 29.9856C75.8932 29.9856 75.8215 29.2886 75.8932 28.8886C77.3178 29.6367 77.0075 28.0381 76.5783 26.4427Z" fill="#EAF1F9"/>
<path fill-rule="evenodd" clip-rule="evenodd" d="M41.8089 27.7905C42.0046 28.0046 42.2531 28.1633 42.5295 28.2509C42.806 28.3385 43.1006 28.3519 43.3839 28.2897C43.2405 27.3928 42.0979 27.8913 42.5964 26.0942C42.0947 26.295 41.8089 26.7944 41.8089 27.7905Z" fill="#EAF1F9"/>
<path fill-rule="evenodd" clip-rule="evenodd" d="M11.2281 26.0942L11.2281 27.192L12.0156 27.192L12.0156 26.0942L11.2281 26.0942Z" fill="#EAF1F9"/>
<path fill-rule="evenodd" clip-rule="evenodd" d="M25.7321 26.5937C26.233 26.3953 26.3755 25.5967 26.8763 25.4967C26.6238 24.9681 26.501 24.3869 26.5181 23.8013C26.1613 24.1013 25.8755 24.3997 25.3038 24.2989C26.0212 25.4967 25.0179 25.4968 25.7321 26.5937Z" fill="#EAF1F9"/>
<path fill-rule="evenodd" clip-rule="evenodd" d="M62.1719 23.7979C63.3146 23.2986 62.3137 21.7032 62.9594 21.5032C62.8877 20.9047 62.1719 21.1047 62.1719 20.3062C60.8143 20.6093 61.9569 22.5032 62.1719 23.7979Z" fill="#EAF1F9"/>
<path fill-rule="evenodd" clip-rule="evenodd" d="M49.2397 21.5065L49.2397 20.3096L48.4522 20.3096L48.4522 21.5065L49.2397 21.5065Z" fill="#EAF1F9"/>
<path fill-rule="evenodd" clip-rule="evenodd" d="M73.174 19.8107C73.4606 18.0144 72.7447 17.7167 72.7447 16.4189C72.2082 17.4909 71.8239 18.6325 71.6029 19.8107L73.174 19.8107Z" fill="#EAF1F9"/>
<path fill-rule="evenodd" clip-rule="evenodd" d="M10.7996 18.1149C11.1564 18.0148 11.2281 18.3156 11.2281 18.6133C12.0156 18.9141 11.8005 16.0209 10.7996 16.9179L10.7996 18.1149Z" fill="#EAF1F9"/>
<path fill-rule="evenodd" clip-rule="evenodd" d="M32.377 16.9175C31.9478 17.0175 32.0911 18.0144 32.0195 18.6129C32.6636 18.8129 32.7337 18.2145 32.8069 17.516C32.4486 17.616 32.4486 17.316 32.377 16.9175Z" fill="#EAF1F9"/>
<path fill-rule="evenodd" clip-rule="evenodd" d="M46.5235 18.1147C46.4908 17.9335 46.417 17.7621 46.3078 17.6138C47.5182 18.8478 48.2946 17.2988 47.6418 15.3837C47.4843 13.2228 46.5046 16.5342 44.9981 15.3837C45.2147 15.9182 45.48 16.4317 45.7904 16.9177L45.3092 16.9177L45.3092 18.6131C45.6659 18.3155 45.9534 18.0147 46.5235 18.1147Z" fill="#EAF1F9"/>
<path fill-rule="evenodd" clip-rule="evenodd" d="M28.0907 16.9175C28.4482 15.4212 30.5201 16.319 30.0193 13.5257C29.2318 14.4227 29.5192 13.4257 28.4482 13.5257C28.019 14.2242 28.019 15.5204 28.0907 16.9175Z" fill="#EAF1F9"/>
<path fill-rule="evenodd" clip-rule="evenodd" d="M55.527 15.8207L56.6705 15.8207C56.4547 15.3222 56.2413 14.8237 56.6705 14.6229C56.098 14.2244 56.098 12.8275 55.0955 12.9275C54.812 14.5229 55.6695 14.4268 55.527 15.8207Z" fill="#EAF1F9"/>
<path fill-rule="evenodd" clip-rule="evenodd" d="M62.6011 14.6227C62.457 13.9242 61.6002 14.2242 61.0261 14.125C60.8844 15.0212 61.3845 15.0211 61.3845 15.8204L62.172 15.8204C62.1003 15.1219 62.246 14.8203 62.6011 14.6227Z" fill="#EAF1F9"/>
<path fill-rule="evenodd" clip-rule="evenodd" d="M53.1684 9.53662L51.5935 9.53662C51.7368 10.6336 52.4518 10.9313 52.3809 12.3291C53.2401 12.3291 53.2401 10.9313 53.1684 9.53662Z" fill="#EAF1F9"/>
<path fill-rule="evenodd" clip-rule="evenodd" d="M86.1071 12.329C85.4645 11.9305 86.178 9.63658 84.892 10.1343L84.892 12.329L86.1071 12.329Z" fill="#EAF1F9"/>
<path fill-rule="evenodd" clip-rule="evenodd" d="M92.3944 65.3998L92.9662 65.6006L93.5371 65.3998C93.7099 65.1542 93.9522 64.966 94.2329 64.8593C94.5136 64.7527 94.8198 64.7324 95.1121 64.8013C95.1628 63.3838 94.7627 61.9868 93.9694 60.811L93.7552 61.6104L93.1836 61.4104C92.6578 62.6745 92.3894 64.0307 92.3944 65.3998Z" fill="#EAF1F9"/>
<path fill-rule="evenodd" clip-rule="evenodd" d="M53.5251 58.5172C53.8834 58.1188 54.026 56.821 53.5251 55.624C53.1468 55.8693 52.8412 56.2116 52.6402 56.6152C52.4393 57.0188 52.3503 57.469 52.3825 57.9187C52.9535 57.9187 53.5251 57.8179 53.5251 58.5172Z" fill="#EAF1F9"/>
<path fill-rule="evenodd" clip-rule="evenodd" d="M50.8115 56.2224C50.7391 55.6239 50.3824 55.9247 50.454 56.2224C50.0217 55.7528 49.7465 55.1601 49.6665 54.5269C49.0948 54.7277 49.3097 55.9247 49.2381 56.8209C50.0972 57.0217 50.3107 56.4232 50.8115 56.2224Z" fill="#EAF1F9"/>
<path fill-rule="evenodd" clip-rule="evenodd" d="M39.4504 43.1549C38.7369 44.1527 39.5937 44.7512 39.8079 45.9482C40.1662 45.6473 40.523 45.3497 40.5954 45.9482C41.1656 45.8482 40.4513 42.9549 39.4504 43.1549Z" fill="#EAF1F9"/>
<path fill-rule="evenodd" clip-rule="evenodd" d="M85.6778 37.9675C86.2495 40.86 84.4635 40.4607 84.5351 42.5563C85.1769 42.7547 85.177 42.0586 85.6778 41.9578L86.1069 41.9578L86.2495 40.9608L86.8921 41.4585C87.1092 41.3361 87.294 41.1636 87.4309 40.9554C87.5679 40.7472 87.6532 40.5093 87.6796 40.2615L87.2512 40.2615L87.2512 39.7638C86.6787 39.2629 86.6787 37.8675 85.6778 37.9675Z" fill="#EAF1F9"/>
<path fill-rule="evenodd" clip-rule="evenodd" d="M41.3773 35.1748C41.5915 36.3702 42.0207 36.3703 42.5924 35.7718C42.9499 35.6734 43.0208 34.5763 42.5924 33.9771C42.1648 34.3763 42.1648 35.3741 41.3773 35.1748Z" fill="#EAF1F9"/>
<path fill-rule="evenodd" clip-rule="evenodd" d="M35.5215 36.2721C36.0916 36.3705 36.6641 36.3706 36.7358 35.7721C37.8793 34.6744 35.3782 36.7706 35.5215 34.5767C34.9498 34.8743 35.6632 35.3744 35.5215 36.2721Z" fill="#EAF1F9"/>
<path fill-rule="evenodd" clip-rule="evenodd" d="M69.6027 35.7721C70.6737 35.5737 69.1018 34.7743 69.6027 33.4773C68.5301 33.8774 68.6018 32.6804 67.6726 32.8788C68.1431 33.8145 68.5493 34.7812 68.8884 35.7721C69.1759 35.3745 69.5302 35.0752 69.6027 35.7721Z" fill="#EAF1F9"/>
<path fill-rule="evenodd" clip-rule="evenodd" d="M92.7511 29.4867C91.3935 28.5898 92.5378 31.3823 91.6085 31.1823L91.7518 32.0815L91.6668 32.1114L91.6172 31.7311C91.6172 31.8886 91.6455 31.976 91.6533 32.1162L91.1809 32.2816C92.0377 33.9771 91.2526 35.1749 93.1811 35.7718C93.8245 34.3763 93.8245 30.0852 92.7511 29.4867Z" fill="#EAF1F9"/>
<path fill-rule="evenodd" clip-rule="evenodd" d="M67.2434 32.2817C67.03 31.7808 66.815 31.2823 67.2434 31.1791C67.1733 30.4822 66.8867 30.8815 66.8867 31.1791C66.2441 30.8815 66.5291 29.3836 65.3117 29.9821C65.0298 32.1816 65.959 32.5793 67.2434 32.2817Z" fill="#EAF1F9"/>
<path fill-rule="evenodd" clip-rule="evenodd" d="M69.2451 29.487C69.1018 28.29 70.3878 29.587 70.3878 29.9855C71.0304 29.587 70.3161 29.1886 70.817 27.7908C70.2444 28.6901 69.1735 27.6907 68.8884 26.5937C68.2442 26.5937 69.0302 29.2886 69.2451 29.9855C69.3088 29.9819 69.3687 29.9541 69.4125 29.9077C69.4563 29.8614 69.4808 29.8 69.4808 29.7362C69.4808 29.6725 69.4563 29.6111 69.4125 29.5647C69.3687 29.5184 69.3088 29.4905 69.2451 29.487Z" fill="#EAF1F9"/>
<path fill-rule="evenodd" clip-rule="evenodd" d="M36.3074 26.5935C36.2228 26.6249 36.1321 26.6363 36.0423 26.6269C35.9525 26.6174 35.8662 26.5874 35.79 26.539C35.7137 26.4907 35.6496 26.4254 35.6028 26.3482C35.556 26.2711 35.5277 26.1842 35.5199 26.0942C35.0915 26.5935 35.3765 27.092 35.1623 28.8882C36.164 29.0883 36.1641 27.6905 36.3074 26.5935Z" fill="#EAF1F9"/>
<path fill-rule="evenodd" clip-rule="evenodd" d="M44.9525 25.4967C45.3093 26.0944 45.666 25.6968 46.8803 26.0945C46.8803 24.8983 45.8093 25.2983 46.0928 23.8013C45.236 23.6005 45.666 25.3959 44.9525 25.4967Z" fill="#EAF1F9"/>
<path fill-rule="evenodd" clip-rule="evenodd" d="M35.9508 24.9006C36.7383 24.7022 35.3066 23.4044 36.7383 23.2052C36.6123 22.6878 36.3054 22.2325 35.8732 21.9215C35.441 21.6104 34.9119 21.4641 34.3813 21.5089C34.3073 23.502 35.6634 23.4044 35.9508 24.9006Z" fill="#EAF1F9"/>
<path fill-rule="evenodd" clip-rule="evenodd" d="M88.823 23.2028C88.3938 21.4065 89.5365 22.5035 88.823 19.811C88.3222 20.1087 88.1064 21.008 88.0355 22.105C88.2494 22.2058 88.434 22.3596 88.5718 22.5517C88.7096 22.7438 88.7961 22.9679 88.823 23.2028Z" fill="#EAF1F9"/>
<path fill-rule="evenodd" clip-rule="evenodd" d="M8.07175 15.512C9.10652 17.1382 11.2729 13.9897 11.2706 12.0312C9.38058 12.0832 9.30578 14.4355 8.05051 15.2947C7.9253 14.404 7.69217 13.7693 7.72761 15.2214L7.72761 16.9177C8.15364 17.2839 8.16783 16.3531 8.07175 15.512Z" fill="#EAF1F9"/>
<path fill-rule="evenodd" clip-rule="evenodd" d="M51.2399 13.5259C50.5256 13.6267 50.3106 14.5228 50.4524 15.8206C50.7375 16.3191 51.5234 16.1191 51.5951 16.9176C52.5259 16.4191 50.5256 15.5206 51.2399 13.5259Z" fill="#EAF1F9"/>
<path fill-rule="evenodd" clip-rule="evenodd" d="M64.958 11.8281C65.4581 12.6251 65.7455 11.9281 66.8866 11.8281C66.5536 11.1125 66.4297 10.3173 66.5291 9.53418C65.6006 9.7342 65.6006 11.332 64.958 11.8281Z" fill="#EAF1F9"/>
</g>
<defs>
<linearGradient id="paint0_linear" x1="52" y1="11.25" x2="52" y2="78.75" gradientUnits="userSpaceOnUse">
<stop stop-color="#5893CE"/>
<stop offset="1" stop-color="#ABC9E6"/>
</linearGradient>
<linearGradient id="paint1_linear" x1="52" y1="11.25" x2="52" y2="78.75" gradientUnits="userSpaceOnUse">
<stop stop-color="#5893CE"/>
<stop offset="1" stop-color="#ABC9E6"/>
</linearGradient>
</defs>
</svg>
