<svg width="765" height="559" viewBox="0 0 765 559" fill="none" xmlns="http://www.w3.org/2000/svg">
<g filter="url(#filter0_d)">
<path d="M734.703 10.5669L612.013 508.903H452.97L405.256 291.922C402.48 281.32 398.819 263.522 394.275 238.529C389.731 213.536 386.196 190.69 383.672 169.989C379.38 205.584 372.438 244.083 362.845 285.484L313.239 508.903H154.195L30.7472 10.5669H160.633L214.783 260.492C226.901 315.778 235.231 359.704 239.775 392.27C242.805 369.046 248.107 337.616 255.679 297.98C263.253 258.346 270.449 225.402 277.265 199.147L321.191 10.5669H445.774L488.564 199.147C495.128 227.168 502.198 260.87 509.77 300.252C517.344 339.634 522.646 370.308 525.674 392.27C527.948 369.55 536.026 325.876 549.91 261.25L604.818 10.5669H734.703Z" fill="#5D96D0"/>
</g>
<defs>
<filter id="filter0_d" x="0.747192" y="0.566895" width="763.956" height="558.336" filterUnits="userSpaceOnUse" color-interpolation-filters="sRGB">
<feFlood flood-opacity="0" result="BackgroundImageFix"/>
<feColorMatrix in="SourceAlpha" type="matrix" values="0 0 0 0 0 0 0 0 0 0 0 0 0 0 0 0 0 0 127 0"/>
<feOffset dy="20"/>
<feGaussianBlur stdDeviation="15"/>
<feColorMatrix type="matrix" values="0 0 0 0 0.0431373 0 0 0 0 0.0705882 0 0 0 0 0.196078 0 0 0 0.2 0"/>
<feBlend mode="normal" in2="BackgroundImageFix" result="effect1_dropShadow"/>
<feBlend mode="normal" in="SourceGraphic" in2="effect1_dropShadow" result="shape"/>
</filter>
</defs>
</svg>
