<svg width="481" height="559" viewBox="0 0 481 559" fill="none" xmlns="http://www.w3.org/2000/svg">
<g filter="url(#filter0_d)">
<mask id="mask0" mask-type="alpha" maskUnits="userSpaceOnUse" x="30" y="10" width="421" height="499">
<path d="M318.142 10.2121H451V306.114C451 370.625 432.838 420.564 396.513 455.933C360.189 491.052 308.19 508.612 240.517 508.612C172.844 508.612 120.845 491.551 84.5206 457.427C48.6938 423.055 30.7803 373.613 30.7803 309.102V10.2121H164.011V298.642C164.011 333.014 170.356 358.17 183.044 374.112C195.982 390.052 215.637 398.022 242.01 398.022C268.382 398.022 287.664 390.176 299.856 374.485C312.047 358.793 318.142 333.387 318.142 298.267V10.2121Z" fill="url(#paint0_linear)"/>
</mask>
<g mask="url(#mask0)">
<path d="M318.142 10.2121H451V306.114C451 370.625 432.838 420.564 396.513 455.933C360.189 491.052 308.19 508.612 240.517 508.612C172.844 508.612 120.845 491.551 84.5206 457.427C48.6938 423.055 30.7803 373.613 30.7803 309.102V10.2121H164.011V298.642C164.011 333.014 170.356 358.17 183.044 374.112C195.982 390.052 215.637 398.022 242.01 398.022C268.382 398.022 287.664 390.176 299.856 374.485C312.047 358.793 318.142 333.387 318.142 298.267V10.2121Z" fill="url(#paint1_linear)"/>
<path d="M643.793 324.882L450.641 517.756L463.224 530.324L656.375 337.449L643.793 324.882Z" fill="#2E78C1"/>
<path d="M644.156 293.434L419.167 518.132L431.01 529.959L655.999 305.261L644.156 293.434Z" fill="#2E78C1"/>
<path d="M387.689 518.499C387.689 518.499 388.678 517.488 390.535 515.584C392.417 513.703 395.176 510.95 398.686 507.441L427.782 478.383C451.86 454.335 483.963 422.273 516.07 390.211L644.488 261.957L655.665 273.12C655.665 273.12 591.455 337.244 527.247 401.372L438.957 489.548L409.863 518.603L401.712 526.745L398.789 529.589L387.689 518.499Z" fill="#2E78C1"/>
<path d="M644.86 230.523L356.171 518.838L366.608 529.261L655.296 240.946L644.86 230.523Z" fill="#2E78C1"/>
<path d="M324.653 519.166C324.653 519.166 325.866 517.878 328.216 515.535C330.567 513.193 334.055 509.804 338.392 505.372C340.581 503.185 343.009 500.76 345.649 498.125C346.969 496.803 348.339 495.427 349.797 494.034C351.255 492.642 352.653 491.09 354.199 489.586C360.31 483.498 367.211 476.629 374.732 469.138L484.891 359.065C524.969 319.061 565.045 279.055 595.102 249.048L615.579 228.556C618.642 225.515 621.46 222.626 624.164 220.059C626.757 217.371 629.199 214.962 631.388 212.773L641.587 202.64C642.737 201.445 643.629 200.537 644.242 199.936L645.161 199.018L655.003 208.848C655.003 208.848 654.688 209.159 654.082 209.764C653.477 210.369 652.581 211.263 651.377 212.416C649.041 214.765 645.601 218.216 641.229 222.601C639.037 224.789 636.626 227.229 633.937 229.815C631.356 232.518 628.463 235.332 625.42 238.391C619.31 244.478 612.416 251.348 604.893 258.842L494.734 368.9C454.656 408.903 414.578 448.907 384.519 478.913L364.045 499.418C362.544 500.962 360.982 502.358 359.589 503.813C358.196 505.267 356.817 506.645 355.495 507.956L348.237 515.205C343.799 519.527 340.428 523.036 338.061 525.368C335.693 527.701 334.424 528.926 334.424 528.926L324.653 519.166Z" fill="#2E78C1"/>
<path d="M645.492 167.537L293.098 519.463L302.276 528.63L654.671 176.703L645.492 167.537Z" fill="#2E78C1"/>
<path d="M261.545 519.759C261.545 519.759 261.912 519.374 262.624 518.633C263.337 517.891 264.418 516.816 265.854 515.44C267.257 514.031 268.947 512.251 271.042 510.275C273.044 508.196 275.391 505.86 278.017 503.238C283.356 498.073 289.626 491.597 296.97 484.315L321.57 459.78L453.656 327.873C501.685 279.904 549.716 231.936 585.736 195.959C594.735 186.962 602.981 178.706 610.293 171.394L629.274 152.501C631.873 149.848 634.194 147.482 636.281 145.503L639.08 142.646C639.958 141.793 640.754 141.02 641.469 140.328C644.228 137.466 645.748 135.985 645.748 135.985L654.406 144.633C654.406 144.633 652.926 146.151 650.055 148.907L647.737 151.293C646.862 152.144 645.901 153.079 644.879 154.087C642.889 156.176 640.521 158.497 637.872 161.084C632.629 166.341 626.26 172.722 618.958 180.039L594.348 204.574L462.265 336.485L330.186 468.398C321.178 477.395 312.938 485.651 305.627 492.963C298.315 500.276 291.849 506.558 286.679 511.888C284.051 514.511 281.714 516.861 279.63 518.856C277.647 520.948 275.863 522.633 274.459 524.036C273.079 525.472 272.006 526.555 271.262 527.264C270.518 527.974 270.136 528.341 270.136 528.341L261.545 519.759Z" fill="#2E78C1"/>
<path d="M646.08 104.502L229.992 520.052L237.986 528.036L654.075 112.486L646.08 104.502Z" fill="#2E78C1"/>
<path d="M198.437 520.347C198.437 520.347 200.122 518.537 203.458 515.32C205.037 513.617 207.137 511.675 209.506 509.291C211.82 506.85 214.642 504.207 217.65 501.097C229.898 488.865 247.398 471.389 268.398 450.421L422.377 296.642L576.356 142.862C577.704 141.586 578.997 140.285 580.249 138.97L584.086 135.195L587.775 131.44C589.021 130.237 590.261 129.055 591.422 127.826C593.789 125.41 596.215 123.177 598.41 120.845C599.513 119.679 600.669 118.606 601.78 117.523C602.891 116.44 603.907 115.284 605.008 114.252L627.094 92.1866C633.226 86.0788 638.046 81.2788 641.329 78.0049C642.997 76.3905 644.175 75.061 645.057 74.2462L646.37 72.9933L653.771 80.3841L652.516 81.6953C651.702 82.5767 650.369 83.7579 648.751 85.4173L634.552 99.6357L612.458 121.695C611.427 122.794 610.29 123.819 609.185 124.915C608.081 126.011 607.016 127.181 605.849 128.284C603.513 130.473 601.278 132.897 598.859 135.26C597.628 136.426 596.445 137.659 595.239 138.905C594.001 140.118 592.748 141.346 591.48 142.589C590.234 143.852 588.974 145.129 587.7 146.421C586.384 147.671 585.085 148.967 583.803 150.31L429.824 304.089C373.829 360.008 317.833 415.925 275.845 457.869C254.85 478.841 237.354 496.319 225.106 508.551C221.989 511.55 219.343 514.382 216.899 516.686C214.512 519.052 212.562 521.148 210.862 522.726C207.642 526.058 205.829 527.744 205.829 527.744L198.437 520.347Z" fill="#2E78C1"/>
<path d="M166.884 520.643C166.884 520.643 168.706 518.721 172.236 515.225C175.766 511.73 180.91 506.57 187.463 500.019C200.582 486.915 219.327 468.197 241.815 445.738C286.794 400.815 346.767 340.918 406.74 281.024L646.634 41.4411L653.517 48.317L413.624 287.9C353.652 347.794 293.677 407.691 248.698 452.611L194.346 506.892L179.119 522.101C175.615 525.625 173.694 527.444 173.694 527.444L166.884 520.643Z" fill="#2E78C1"/>
<path d="M646.57 10.2121L135.255 520.865L141.62 527.222L652.935 16.5692L646.57 10.2121Z" fill="#2E78C1"/>
<path d="M103.667 521.13C103.667 521.13 105.611 519.084 109.373 515.357L125.6 499.149C139.581 485.189 159.555 465.241 183.523 441.304L359.286 265.763L614.944 10.4352L620.866 16.3465L365.208 271.674L189.445 447.212L131.522 505.059L115.293 521.265C111.565 525.023 109.513 526.963 109.513 526.963L103.667 521.13Z" fill="#2E78C1"/>
<path d="M583.358 10.6971L72.0342 521.341L77.4379 526.738L588.762 16.0941L583.358 10.6971Z" fill="#2E78C1"/>
<path d="M551.767 10.956L40.4431 521.6L45.329 526.48L556.653 15.8358L551.767 10.956Z" fill="#2E78C1"/>
<path d="M520.098 11.1364L8.78296 521.789L13.2974 526.298L524.612 15.645L520.098 11.1364Z" fill="#2E78C1"/>
<path d="M488.524 11.4127L-22.8979 521.959L-18.8279 526.025L492.594 15.4792L488.524 11.4127Z" fill="#2E78C1"/>
<path d="M456.804 11.5408L-54.5117 522.195L-50.8101 525.892L460.506 15.2376L456.804 11.5408Z" fill="#2E78C1"/>
<path d="M425.141 11.7259L-54.6472 490.893L-51.3171 494.219L428.471 15.0517L425.141 11.7259Z" fill="#2E78C1"/>
<path d="M-54.5005 459.233C-54.5005 459.233 -52.7388 457.499 -49.4374 454.235C-46.1626 450.956 -41.3597 446.139 -35.2473 440.012L15.4907 389.343L169.47 235.563C225.462 179.644 281.459 123.727 323.448 81.7836C334.028 71.3806 343.514 61.624 352.104 53.1736L374.201 31.108L382.397 22.9708C384.733 20.5434 386.765 18.5391 388.436 16.9313C390.108 15.3235 391.272 13.9823 392.162 13.1726L393.475 11.9164L396.437 14.8753C396.437 14.8753 396.009 15.3202 395.179 16.1866C394.35 17.0529 393.036 18.2492 391.414 19.9053C389.793 21.5613 387.799 23.6123 385.369 25.9381C382.996 28.3206 380.27 31.058 377.216 34.1219L355.122 56.1776C346.654 64.7579 336.891 74.2313 326.475 84.7992C284.482 126.738 228.492 182.663 172.496 238.579C116.499 294.494 60.5132 350.418 18.5168 392.358C-2.47466 413.334 -19.9745 430.805 -32.2228 443.037L-46.4679 457.209C-49.7276 460.504 -51.4726 462.266 -51.4726 462.266L-54.5005 459.233Z" fill="#2E78C1"/>
<path d="M361.767 12.0503L-54.3076 427.616L-51.6428 430.277L364.432 14.7116L361.767 12.0503Z" fill="#2E78C1"/>
<path d="M-54.2036 395.912L-53.0842 394.827C-52.3402 394.119 -51.2492 393.048 -49.8528 391.639C-48.4565 390.229 -46.7616 388.45 -44.6696 386.462C-42.7011 384.353 -40.2654 382.102 -37.663 379.464C-36.3818 378.132 -35.0121 376.724 -33.5241 375.313C-32.036 373.901 -30.613 372.292 -28.9748 370.763C-25.8051 367.609 -22.3435 364.225 -18.7501 360.506C-11.4232 353.207 -3.15538 344.975 5.86481 335.993L137.951 204.074C185.975 156.103 234 108.131 270.021 72.1486C288.038 54.1666 303.052 39.1802 313.562 28.6938C316.126 26.0081 318.554 23.7472 320.579 21.6963C322.572 19.6104 324.322 17.8926 325.76 16.5198C328.501 13.6408 330.078 12.2079 330.078 12.2079L332.445 14.5738C332.445 14.5738 331.015 16.1416 328.131 18.8856C326.755 20.3201 325.035 22.0678 322.948 24.0588C320.893 26.0798 318.627 28.5039 315.941 31.068L272.428 74.5528L140.327 206.447C92.2915 254.412 44.2611 302.373 8.23872 338.361C-0.753105 347.367 -8.9959 355.626 -16.3028 362.942C-20.028 366.517 -23.4229 369.976 -26.5742 373.15C-28.1056 374.783 -29.6988 376.224 -31.1318 377.692C-32.5648 379.16 -33.9445 380.546 -35.2874 381.825C-37.9332 384.431 -40.187 386.862 -42.294 388.823C-44.2842 390.912 -46.0492 392.61 -47.4789 393.996C-48.9086 395.382 -49.9613 396.482 -50.6719 397.225L-51.7563 398.345L-54.2036 395.912Z" fill="#2E78C1"/>
<path d="M298.333 12.3171L-54.0559 364.249L-51.909 366.394L300.48 14.4612L298.333 12.3171Z" fill="#2E78C1"/>
<path d="M-53.9517 332.554C-53.9517 332.554 -52.6588 331.341 -50.3149 328.995C-49.1471 327.829 -47.6941 326.378 -45.9908 324.677C-44.2642 323.001 -42.4124 320.945 -40.1519 318.829C-31.3903 310.072 -18.8702 297.566 -3.84597 282.563L106.367 172.53C146.433 132.514 186.501 92.4982 216.552 62.487C231.577 47.479 244.097 34.9767 252.862 26.2231C257.259 21.8596 260.627 18.3458 263.038 16.0599C265.385 13.7174 266.636 12.4645 266.636 12.4645L268.488 14.3139C268.488 14.3139 267.237 15.5668 264.888 17.9093C262.601 20.3135 259.084 23.6789 254.712 28.0724C245.947 36.8243 233.425 49.33 218.401 64.3381C188.349 94.3475 148.283 134.365 108.215 174.381L-1.96419 284.428L-38.2702 320.69C-40.3905 322.949 -42.4508 324.8 -44.1274 326.521C-45.8307 328.221 -47.277 329.669 -48.4515 330.84C-50.8003 333.182 -52.0148 334.472 -52.0148 334.472L-53.9517 332.554Z" fill="#2E78C1"/>
<path d="M234.899 12.5846L-53.8047 300.885L-52.1757 302.512L236.528 14.2116L234.899 12.5846Z" fill="#2E78C1"/>
<path d="M203.236 12.7708L-53.7686 269.111L-52.3634 270.517L204.641 14.176L203.236 12.7708Z" fill="#2E78C1"/>
<path d="M171.387 12.7712L-53.6191 237.454L-52.3617 238.71L172.644 14.0272L171.387 12.7712Z" fill="#2E78C1"/>
<path d="M139.667 12.9021L-53.603 205.66L-52.4938 206.769L140.777 14.0115L139.667 12.9021Z" fill="#2E78C1"/>
<path d="M107.761 12.847L-53.4011 174.054L-52.4378 175.014L108.725 13.8076L107.761 12.847Z" fill="#2E78C1"/>
<path d="M76.0659 13.0009L-53.4817 142.164L-52.5942 143.052L76.9534 13.8888L76.0659 13.0009Z" fill="#2E78C1"/>
<path d="M44.2003 12.9836L-53.3901 110.448L-52.575 111.262L45.0154 13.7977L44.2003 12.9836Z" fill="#2E78C1"/>
</g>
</g>
<defs>
<filter id="filter0_d" x="0.780273" y="0.212097" width="480.22" height="558.4" filterUnits="userSpaceOnUse" color-interpolation-filters="sRGB">
<feFlood flood-opacity="0" result="BackgroundImageFix"/>
<feColorMatrix in="SourceAlpha" type="matrix" values="0 0 0 0 0 0 0 0 0 0 0 0 0 0 0 0 0 0 127 0"/>
<feOffset dy="20"/>
<feGaussianBlur stdDeviation="15"/>
<feColorMatrix type="matrix" values="0 0 0 0 0.0431373 0 0 0 0 0.0705882 0 0 0 0 0.196078 0 0 0 0.2 0"/>
<feBlend mode="normal" in2="BackgroundImageFix" result="effect1_dropShadow"/>
<feBlend mode="normal" in="SourceGraphic" in2="effect1_dropShadow" result="shape"/>
</filter>
<linearGradient id="paint0_linear" x1="240.637" y1="-237.12" x2="240.637" y2="468.632" gradientUnits="userSpaceOnUse">
<stop stop-color="#2D62A2"/>
<stop offset="1" stop-color="#092E5B"/>
</linearGradient>
<linearGradient id="paint1_linear" x1="391" y1="9.99993" x2="59.9998" y2="289" gradientUnits="userSpaceOnUse">
<stop stop-color="#6197D7"/>
<stop offset="1" stop-color="#4C8AC8"/>
</linearGradient>
</defs>
</svg>
