<svg width="175" height="310" viewBox="0 0 175 310" fill="none" xmlns="http://www.w3.org/2000/svg">
<path d="M128.35 119.893L80.5551 122.754L33.0408 118.877L110.143 3.03079L128.35 119.893Z" stroke="#6099D1"/>
<path d="M81.4992 125.565L94.6552 124.784L90.392 140.968L81.4992 125.565Z" stroke="black"/>
<g clip-path="url(#clip0)">
<mask id="mask0" mask-type="alpha" maskUnits="userSpaceOnUse" x="35" y="6" width="98" height="140">
<path d="M114.076 6.31627L64.5398 125.351L35.7911 123.939L114.076 6.31627Z" fill="#0C3160"/>
<path d="M114.076 6.31612L132.565 124.992L98.8395 127.017L84.1864 127.887L114.076 6.31612Z" fill="#0C3160"/>
<path d="M114.076 6.31614L84.1864 127.887L94.0912 145.043L64.5398 125.351L114.076 6.31614Z" fill="#072A55"/>
<path d="M98.8395 127.018L94.0912 145.043L84.1864 127.888L98.8395 127.018Z" fill="#052042"/>
</mask>
<g mask="url(#mask0)">
<path d="M114.076 6.31627L64.5399 125.351L35.7912 123.939L114.076 6.31627Z" fill="url(#paint0_linear)"/>
<path d="M114.076 6.3161L132.565 124.992L98.8396 127.017L84.1865 127.887L114.076 6.3161Z" fill="url(#paint1_linear)"/>
<path d="M114.076 6.31614L84.1864 127.887L94.0912 145.043L64.5398 125.351L114.076 6.31614Z" fill="#457EB6"/>
<path d="M98.8395 127.018L94.0912 145.043L84.1864 127.888L98.8395 127.018Z" fill="#2E669C"/>
<path fill-rule="evenodd" clip-rule="evenodd" d="M113.102 36.3016L111.993 36.9419L112.75 38.2543L113.861 37.6131L113.102 36.3016Z" fill="#A7C6E5"/>
<path fill-rule="evenodd" clip-rule="evenodd" d="M114.641 44.6126C115.586 45.028 116.585 44.4327 117.736 43.5415C117.427 43.4406 117.159 43.2425 116.971 42.9768C115.955 43.8195 115.08 43.7862 114.611 44.175C114.579 44.0212 114.597 43.8613 114.662 43.7181C114.726 43.5749 114.835 43.4558 114.971 43.3778C113.615 42.4579 113.492 44.9744 114.068 45.6492C114.174 45.6197 114.273 45.5693 114.36 45.501C114.446 45.4326 114.518 45.3478 114.572 45.2513C114.625 45.1547 114.659 45.0485 114.671 44.9389C114.683 44.8292 114.673 44.7184 114.641 44.6126Z" fill="#A7C6E5"/>
<path fill-rule="evenodd" clip-rule="evenodd" d="M89.8299 36.9263L90.3344 37.8001L91.4409 37.1613L90.9364 36.2874L89.8299 36.9263Z" fill="#A7C6E5"/>
<path fill-rule="evenodd" clip-rule="evenodd" d="M129.478 110.715L128.371 111.354L128.876 112.229L129.984 111.59L129.478 110.715Z" fill="#A7C6E5"/>
<path fill-rule="evenodd" clip-rule="evenodd" d="M127.767 112.87C128.374 112.423 127.776 111.804 127.564 111.238C126.601 111.634 126.849 112.201 126.155 112.633C126.564 113.033 127.425 112.298 127.767 112.87Z" fill="#A7C6E5"/>
<path fill-rule="evenodd" clip-rule="evenodd" d="M128.524 114.181C127.781 111.812 126.161 118.31 127.97 114.501C127.997 114.448 128.533 114.216 128.524 114.181Z" fill="#A7C6E5"/>
<path fill-rule="evenodd" clip-rule="evenodd" d="M123.938 113.914C124.258 114.227 123.96 114.452 123.637 114.672C124.024 115.131 124.859 114.459 125.554 114.148C125.328 113.287 124.644 113.576 123.938 113.914Z" fill="#A7C6E5"/>
<path fill-rule="evenodd" clip-rule="evenodd" d="M94.44 69.2107C92.9043 69.9218 92.9712 70.8618 93.7871 71.9159C94.3801 71.0665 95.1634 70.2523 94.44 69.2107Z" fill="#A7C6E5"/>
<path fill-rule="evenodd" clip-rule="evenodd" d="M76.5881 49.8111C75.1066 49.1142 73.6595 51.7467 74.5803 52.7194L76.7931 51.4419C75.8102 51.1701 75.5806 50.7208 76.5881 49.8111Z" fill="#A7C6E5"/>
<path fill-rule="evenodd" clip-rule="evenodd" d="M77.1513 55.8969C75.9425 54.8845 75.5173 57.1871 74.3824 57.4956C76.1538 58.8386 75.8507 56.7699 77.1513 55.8969Z" fill="#A7C6E5"/>
<path fill-rule="evenodd" clip-rule="evenodd" d="M110.193 119.521C110.42 119.187 110.543 118.793 110.546 118.389C110.902 118.166 111.429 117.107 111.718 118.186C112.047 117.677 112.517 117.275 113.069 117.028C112.243 116.812 111.714 116.048 110.423 116.857C110.11 117.171 110.473 117.55 110.495 117.881C110.432 117.458 110.277 117.054 110.041 116.697C109.085 117.492 107.746 118.23 108.579 119.287C109.096 119.096 109.005 118.813 108.881 118.53C110.272 118.053 108.603 119.599 110.193 119.521Z" fill="#A7C6E5"/>
<path fill-rule="evenodd" clip-rule="evenodd" d="M63.2857 38.2755C62.7874 37.0269 61.6883 37.282 60.3148 38.2415C61.1651 38.6043 61.9417 39.1478 63.2857 38.2755Z" fill="#A7C6E5"/>
<path fill-rule="evenodd" clip-rule="evenodd" d="M118.366 137.518C117.826 137.972 118.492 138.602 117.761 139.03C118.978 140.023 118.877 139.042 120.231 138.189C119.978 137.042 118.813 138.178 118.366 137.518Z" fill="#A7C6E5"/>
<path fill-rule="evenodd" clip-rule="evenodd" d="M114.089 142.9C115.278 143.793 115.773 141.332 116.606 140.864C115.417 139.968 114.921 142.431 114.089 142.9Z" fill="#A7C6E5"/>
<path fill-rule="evenodd" clip-rule="evenodd" d="M89.727 98.1403C91.2273 96.6028 87.9539 98.5024 87.2583 98.9831C85.7562 100.521 89.0302 98.6176 89.727 98.1403Z" fill="#A7C6E5"/>
<path fill-rule="evenodd" clip-rule="evenodd" d="M66.3809 67.9376C66.4533 68.0548 66.5552 68.1507 66.6766 68.2157C66.2526 68.1744 65.8285 68.2924 65.4868 68.5467C65.686 69.5019 65.5229 69.2195 66.2226 69.8212C67.0138 69.3644 66.3019 68.8953 67.4381 68.4259L67.2062 68.3462C67.7773 68.2591 68.3212 68.0437 68.797 67.716C69.2727 67.3884 69.6681 66.9569 69.953 66.4544C69.3296 65.5319 67.4981 67.6262 66.3809 67.9376Z" fill="#A7C6E5"/>
<path fill-rule="evenodd" clip-rule="evenodd" d="M112.28 147.438C114.055 146.894 113.355 145.995 114.797 145.402C114.485 144.634 110.663 146.612 112.28 147.438Z" fill="#A7C6E5"/>
<path fill-rule="evenodd" clip-rule="evenodd" d="M104.063 137.04C104.196 137.668 106.532 137.622 105.975 136.516C106.701 136.476 107.127 137.19 108.138 136.433C107.827 135.617 106.542 135.846 107.382 135.123C106.591 134.283 104.247 136.475 104.063 137.04Z" fill="#A7C6E5"/>
<path fill-rule="evenodd" clip-rule="evenodd" d="M101.543 139.075L102.651 138.435L102.148 137.563L101.039 138.203L101.543 139.075Z" fill="#A7C6E5"/>
<path fill-rule="evenodd" clip-rule="evenodd" d="M54.6842 56.6339C55.3923 53.0346 50.3194 56.7992 53.5778 57.2726L54.6842 56.6339Z" fill="#A7C6E5"/>
<path fill-rule="evenodd" clip-rule="evenodd" d="M56.553 63.7102C55.2183 65.1321 58.0787 64.7227 58.9753 64.0616C58.5616 62.9583 57.0897 64.5004 56.553 63.7102Z" fill="#A7C6E5"/>
<path fill-rule="evenodd" clip-rule="evenodd" d="M59.8835 68.1946C59.5755 67.9015 59.076 68.0803 58.8219 67.6402L57.7175 68.2778L58.7275 70.0272C59.125 69.417 58.7172 68.6925 59.8835 68.1946Z" fill="#A7C6E5"/>
<path fill-rule="evenodd" clip-rule="evenodd" d="M47.1868 67.9527C47.6436 68.9506 49.266 67.0144 50.21 66.7898C49.6528 66.5619 49.0296 66.5554 48.4677 66.7715C47.9058 66.9877 47.4477 67.4101 47.1868 67.9527Z" fill="#A7C6E5"/>
<path fill-rule="evenodd" clip-rule="evenodd" d="M87.4907 139.037C89.2019 142.672 86.4364 136.791 87.4907 139.037V139.037Z" fill="#A7C6E5"/>
<path fill-rule="evenodd" clip-rule="evenodd" d="M82.5005 135.509C84.196 134.955 83.1153 133.996 84.2109 133.357C83.5001 132.534 81.5309 134.778 82.5005 135.509Z" fill="#A7C6E5"/>
<path fill-rule="evenodd" clip-rule="evenodd" d="M39.9328 66.8994C41.3023 66.4305 40.2419 65.6113 41.0928 65.0645C42.1221 65.1715 42.0629 64.734 42.7531 64.1059C42.4795 64.0381 42.2223 63.9155 41.9972 63.7457C41.7721 63.5759 41.5837 63.3623 41.4434 63.1178C39.9537 64.2321 39.4502 65.4926 39.9328 66.8994Z" fill="#A7C6E5"/>
<path fill-rule="evenodd" clip-rule="evenodd" d="M77.7165 133.614C77.2018 133.119 76.1169 134.052 75.2463 134.456C75.9842 135.379 77.3032 134.605 77.7165 133.614Z" fill="#A7C6E5"/>
<path fill-rule="evenodd" clip-rule="evenodd" d="M70.8077 130.611C71.9052 131.071 73.4914 130.3 74.5904 130.758C75.8286 130.139 73.9425 129.065 73.8793 128.255C72.4848 128.985 71.1759 129.729 70.8077 130.611Z" fill="#A7C6E5"/>
<path fill-rule="evenodd" clip-rule="evenodd" d="M57.946 101.929L56.837 102.569L57.3415 103.443L58.4506 102.803L57.946 101.929Z" fill="#A7C6E5"/>
<path fill-rule="evenodd" clip-rule="evenodd" d="M72.3324 146.041C75.0176 146.957 75.5927 140.951 72.1821 143.215C71.489 144.489 74.2134 144.494 72.3324 146.041Z" fill="#A7C6E5"/>
<path fill-rule="evenodd" clip-rule="evenodd" d="M61.8912 124.112C61.0389 123.153 59.7307 125.324 60.7303 125.946L62.3948 124.985C61.8277 124.794 61.2743 124.591 61.8912 124.112Z" fill="#A7C6E5"/>
<path fill-rule="evenodd" clip-rule="evenodd" d="M56.1443 119.275C57.6808 118.565 57.6117 117.623 56.7977 116.57C55.258 117.28 55.8937 118.305 56.1443 119.275Z" fill="#A7C6E5"/>
<path fill-rule="evenodd" clip-rule="evenodd" d="M60.937 127.576L62.0439 126.937L61.5393 126.063L60.4324 126.702L60.937 127.576Z" fill="#A7C6E5"/>
<path fill-rule="evenodd" clip-rule="evenodd" d="M55.9999 129.26C57.1391 129.741 59.5558 129.838 60.3824 127.895C59.1889 127.684 57.6935 128.223 55.9999 129.26Z" fill="#A7C6E5"/>
<path fill-rule="evenodd" clip-rule="evenodd" d="M40.7148 100.229L39.9583 98.9189C39.6316 99.5083 39.1435 99.9925 38.5514 100.314C39.0982 100.714 39.7769 100.801 40.7148 100.229Z" fill="#A7C6E5"/>
<path fill-rule="evenodd" clip-rule="evenodd" d="M55.7006 130.017C54.8641 128.809 52.459 130.484 53.7376 131.732C54.9988 131.25 55.0282 130.584 55.7006 130.017Z" fill="#A7C6E5"/>
<path fill-rule="evenodd" clip-rule="evenodd" d="M50.7093 126.489C51.0966 126.947 51.9294 126.276 52.621 125.968C52.4003 125.105 51.7142 125.392 51.0097 125.732C51.3279 126.048 51.0327 126.273 50.7093 126.489Z" fill="#A7C6E5"/>
<path fill-rule="evenodd" clip-rule="evenodd" d="M62.1073 144.952C61.9074 144.825 61.6821 144.743 61.4473 144.712C61.2125 144.681 60.9739 144.701 60.7477 144.772L60.2942 143.986C58.858 144.577 59.5486 145.479 57.7759 146.02C58.6077 146.391 59.6826 146.147 60.99 145.325C61.3882 145.298 61.773 145.17 62.1073 144.952Z" fill="#A7C6E5"/>
<path fill-rule="evenodd" clip-rule="evenodd" d="M54.5473 138.253L55.0506 139.125L56.1577 138.486L55.6543 137.614L54.5473 138.253Z" fill="#A7C6E5"/>
<path fill-rule="evenodd" clip-rule="evenodd" d="M42.6429 118.915C41.0802 119.887 38.8799 120.772 38.4668 121.911C40.489 122.029 43.5862 121.58 42.6429 118.915Z" fill="#A7C6E5"/>
<path fill-rule="evenodd" clip-rule="evenodd" d="M49.3531 133.098C48.6496 132.72 47.7004 132.966 46.6327 133.501C47.6334 135.082 48.0758 134.136 49.3531 133.098Z" fill="#A7C6E5"/>
<path fill-rule="evenodd" clip-rule="evenodd" d="M45.7751 128.175C46.9009 127.28 44.8685 125.606 44.2621 125.554C42.4206 127.083 44.8385 127.621 45.7751 128.175Z" fill="#A7C6E5"/>
<path fill-rule="evenodd" clip-rule="evenodd" d="M43.055 128.579C42.9452 128.667 42.9273 128.768 42.8315 128.858C42.459 128.828 42.0887 128.939 41.7947 129.17C42.4679 129.724 41.3055 130.146 41.138 130.618C41.2307 130.717 41.3523 130.784 41.4855 130.81C41.6188 130.835 41.7568 130.818 41.8795 130.76C41.8171 131.038 41.8059 131.325 41.8466 131.607C43.6978 130.808 44.1006 129.799 43.055 128.579Z" fill="#A7C6E5"/>
<path fill-rule="evenodd" clip-rule="evenodd" d="M41.0904 130.297C40.8392 129.502 40.136 129.845 39.7825 129.305C38.1753 130.276 36.7516 131.263 38.0219 132.651C39.3129 131.071 40.1085 131.92 41.0904 130.297Z" fill="#A7C6E5"/>
<path fill-rule="evenodd" clip-rule="evenodd" d="M36.4043 126.016C37.2557 126.974 38.5655 124.8 37.56 124.182C36.9231 124.754 37.1349 125.454 36.4043 126.016Z" fill="#A7C6E5"/>
<path fill-rule="evenodd" clip-rule="evenodd" d="M43.1691 145.407C41.8455 143.648 40.2164 147.724 43.1691 145.407V145.407Z" fill="#A7C6E5"/>
<path fill-rule="evenodd" clip-rule="evenodd" d="M117.006 10.4581L118.67 9.49706C118.749 7.755 115.457 9.65543 117.006 10.4581Z" fill="#A7C6E5"/>
<path fill-rule="evenodd" clip-rule="evenodd" d="M129.749 74.74C129.863 74.5887 130.233 73.2086 129.55 73.1064C128.993 73.0268 129.02 75.7132 129.749 74.74Z" fill="#A7C6E5"/>
<path fill-rule="evenodd" clip-rule="evenodd" d="M126.021 73.3979C125.752 72.4219 123.132 74.2153 124.614 74.7927L125.721 74.1539C125.404 73.8408 125.7 73.6153 126.021 73.3979Z" fill="#A7C6E5"/>
<path fill-rule="evenodd" clip-rule="evenodd" d="M116.895 58.8684C112.23 59.0332 115.919 62.39 116.895 58.8684V58.8684Z" fill="#A7C6E5"/>
<path fill-rule="evenodd" clip-rule="evenodd" d="M86.1343 11.9758L85.6306 11.1034L84.52 11.7446L85.0237 12.617L86.1343 11.9758Z" fill="#A7C6E5"/>
<path fill-rule="evenodd" clip-rule="evenodd" d="M119.573 72.4617C118.587 73.5166 118.337 74.6818 116.202 75.5726C117.778 77.2014 121.612 74.4688 119.573 72.4617Z" fill="#A7C6E5"/>
<path fill-rule="evenodd" clip-rule="evenodd" d="M109.797 67.0399C110.182 67.4993 111.02 66.8234 111.714 66.5153C111.488 65.6559 110.808 65.9416 110.101 66.2833C110.415 66.5944 110.122 66.8197 109.797 67.0399Z" fill="#A7C6E5"/>
<path fill-rule="evenodd" clip-rule="evenodd" d="M117.063 80.9001C117.642 80.3648 116.838 79.4785 116.306 79.5893C114.879 79.8854 115.948 81.9277 117.063 80.9001Z" fill="#A7C6E5"/>
<path fill-rule="evenodd" clip-rule="evenodd" d="M112.026 78.5648C112.409 79.3903 113.238 79.0946 113.589 79.9938C114.615 79.4762 114.449 78.784 115.552 78.2776C114.688 77.3109 112.498 77.3665 112.026 78.5648Z" fill="#A7C6E5"/>
<path fill-rule="evenodd" clip-rule="evenodd" d="M89.2488 73.6595L90.3592 73.0183L89.603 71.7085L88.4926 72.3496L89.2488 73.6595Z" fill="#A7C6E5"/>
<path fill-rule="evenodd" clip-rule="evenodd" d="M94.563 102.046L93.4549 102.685C94.1294 105.134 96.868 101.788 94.563 102.046Z" fill="#A7C6E5"/>
<path fill-rule="evenodd" clip-rule="evenodd" d="M38.2229 7.0199C38.6073 7.4839 39.445 6.80738 40.1406 6.49733C39.9127 5.63643 39.2342 5.92072 38.5284 6.26232C38.8435 6.57629 38.5463 6.8027 38.2229 7.0199Z" fill="#A7C6E5"/>
<path fill-rule="evenodd" clip-rule="evenodd" d="M112.925 141.53L113.43 142.403L115.094 141.442C114.82 141.374 114.563 141.251 114.338 141.08C114.113 140.91 113.925 140.696 113.785 140.451C113.384 140.795 113.487 141.208 112.925 141.53Z" fill="#A7C6E5"/>
<path fill-rule="evenodd" clip-rule="evenodd" d="M79.65 96.676C78.3643 99.1821 82.1801 97.1767 79.65 96.676V96.676Z" fill="#A7C6E5"/>
<path fill-rule="evenodd" clip-rule="evenodd" d="M89.8493 130.972C90.1581 131.267 90.654 131.092 90.9047 131.529L92.0168 130.887C91.7367 129.808 90.7442 130.514 89.8493 130.972Z" fill="#A7C6E5"/>
<path fill-rule="evenodd" clip-rule="evenodd" d="M79.9668 115.13C80.5721 114.686 79.9719 114.066 79.7634 113.502C78.7964 113.894 79.0464 114.466 78.3492 114.897C78.7637 115.293 79.626 114.558 79.9668 115.13Z" fill="#A7C6E5"/>
<path fill-rule="evenodd" clip-rule="evenodd" d="M74.6246 113.557C74.3248 113.799 74.2959 113.914 74.3946 113.954L73.9975 114.107C74.2096 114.054 74.421 114.007 74.6334 113.959C74.7417 113.94 74.8484 113.913 74.9528 113.878C75.3988 113.778 75.8137 113.571 76.1622 113.275L76.001 113.337C76.9063 112.589 75.3033 113.006 74.6246 113.557Z" fill="#A7C6E5"/>
<path fill-rule="evenodd" clip-rule="evenodd" d="M77.9073 125.637L76.8029 126.275L77.0921 126.776C76.2729 126.998 75.8456 128.643 77.1591 128.425C77.6973 127.97 77.0329 127.34 77.7607 126.911C77.7519 126.905 77.7434 126.907 77.735 126.901L78.4112 126.51L77.9073 125.637Z" fill="#A7C6E5"/>
<path fill-rule="evenodd" clip-rule="evenodd" d="M72.9186 122.113C72.3925 120.579 70.1909 123.25 69.3908 122.402C68.1726 124.169 71.7417 122.828 72.9186 122.113Z" fill="#A7C6E5"/>
<path fill-rule="evenodd" clip-rule="evenodd" d="M66.3343 143.968C62.3685 142.537 63.2066 147.175 66.3343 143.968V143.968Z" fill="#A7C6E5"/>
<path fill-rule="evenodd" clip-rule="evenodd" d="M123.811 7.13879C123.15 6.66045 122.352 6.51395 121.693 6.03038C121.151 6.48674 121.817 7.11632 121.088 7.54326C121.663 8.23506 122.615 7.99151 123.811 7.13879Z" fill="#A7C6E5"/>
<path fill-rule="evenodd" clip-rule="evenodd" d="M117.162 4.57051C115.838 2.80824 114.212 6.888 117.162 4.57051V4.57051Z" fill="#A7C6E5"/>
<path fill-rule="evenodd" clip-rule="evenodd" d="M117.58 33.4482C118.54 32.6737 116.909 33.095 116.222 33.65C115.264 34.4258 116.896 34.0032 117.58 33.4482Z" fill="#A7C6E5"/>
<path fill-rule="evenodd" clip-rule="evenodd" d="M98.1192 7.40962C99.3834 6.92874 99.4116 6.26538 100.081 5.69424C99.8136 4.82093 96.5296 6.7058 98.1192 7.40962Z" fill="#A7C6E5"/>
<path fill-rule="evenodd" clip-rule="evenodd" d="M110.832 33.2697C109.492 34.1308 111.52 34.8431 111.84 35.016C113.4 33.72 112.004 33.148 110.832 33.2697Z" fill="#A7C6E5"/>
<path fill-rule="evenodd" clip-rule="evenodd" d="M130.705 68.9718C132.003 68.4927 131.4 67.7384 131.055 67.0207C130.488 67.604 130.242 68.2365 130.705 68.9718Z" fill="#A7C6E5"/>
<path fill-rule="evenodd" clip-rule="evenodd" d="M115.371 41.1311C113.846 39.3419 112.222 43.4172 115.371 41.1311V41.1311Z" fill="#A7C6E5"/>
<path fill-rule="evenodd" clip-rule="evenodd" d="M100.247 21.325C99.619 20.3996 97.7863 22.4967 96.6689 22.8089C98.0421 24.0954 98.0665 22.0713 100.247 21.325Z" fill="#A7C6E5"/>
<path fill-rule="evenodd" clip-rule="evenodd" d="M132.074 81.5751L132.833 82.8886L134.497 81.9276C134.045 80.9141 133.236 80.7985 132.074 81.5751Z" fill="#A7C6E5"/>
<path fill-rule="evenodd" clip-rule="evenodd" d="M121.434 64.422C121.55 64.1309 122.787 65.3971 122.745 65.4136C123.694 65.0269 122.162 62.6041 121.434 64.422Z" fill="#A7C6E5"/>
<path fill-rule="evenodd" clip-rule="evenodd" d="M111.948 45.4365C111.748 43.8013 110.271 45.3744 109.23 45.8441C109.807 46.5347 110.759 46.2867 111.948 45.4365Z" fill="#A7C6E5"/>
<path fill-rule="evenodd" clip-rule="evenodd" d="M89.201 7.31652C89.1148 7.24139 89.0466 7.14786 89.0015 7.04283C88.9563 6.9378 88.9353 6.82397 88.9401 6.70975C88.9448 6.59552 88.9752 6.48391 89.0289 6.38301C89.0827 6.28211 89.1585 6.1945 89.2507 6.12681C88.7247 5.6627 87.8802 5.99973 87.3864 5.45322C85.763 6.44113 87.4128 8.9128 89.201 7.31652Z" fill="#A7C6E5"/>
<path fill-rule="evenodd" clip-rule="evenodd" d="M90.1616 10.2574C88.9464 9.26606 89.0508 10.2447 87.6956 11.0965C88.4317 12.0219 89.7512 11.2511 90.1616 10.2574Z" fill="#A7C6E5"/>
<path fill-rule="evenodd" clip-rule="evenodd" d="M87.091 12.6143L85.9846 13.2531C86.0713 13.3284 86.1399 13.4222 86.1853 13.5277C86.2307 13.6331 86.2518 13.7474 86.247 13.8621C86.2422 13.9768 86.2116 14.089 86.1575 14.1903C86.1035 14.2915 86.0273 14.3793 85.9347 14.4471C86.4463 14.9417 87.5327 14.01 88.4039 13.6041C88.1495 12.8091 87.445 13.1542 87.091 12.6143Z" fill="#A7C6E5"/>
<path fill-rule="evenodd" clip-rule="evenodd" d="M116.803 71.7527L119.02 70.4727C118.345 68.1575 114.794 69.9304 116.803 71.7527Z" fill="#A7C6E5"/>
<path fill-rule="evenodd" clip-rule="evenodd" d="M95.6206 35.0629C94.2826 36.4839 97.1472 36.0722 98.0419 35.4127C98.0021 33.364 96.0053 36.2362 95.6206 35.0629Z" fill="#A7C6E5"/>
<path fill-rule="evenodd" clip-rule="evenodd" d="M118.216 76.7636C119.159 77.2336 120.432 77.7286 120.94 76.3587C120.738 74.7196 119.258 76.2941 118.216 76.7636Z" fill="#A7C6E5"/>
<path fill-rule="evenodd" clip-rule="evenodd" d="M121.401 84.8258C121.653 85.6229 122.355 85.2777 122.709 85.8181C123.112 85.4748 123.007 85.0618 123.566 84.7408C123.012 84.3443 122.341 84.2538 121.401 84.8258Z" fill="#A7C6E5"/>
<path fill-rule="evenodd" clip-rule="evenodd" d="M103.392 49.7952C100.78 49.1482 102.29 52.1977 103.392 49.7952V49.7952Z" fill="#A7C6E5"/>
<path fill-rule="evenodd" clip-rule="evenodd" d="M95.6772 40.2717C96.592 39.6048 96.5044 38.7947 95.7714 37.889C94.8632 38.5528 94.9469 39.3658 95.6772 40.2717Z" fill="#A7C6E5"/>
<path fill-rule="evenodd" clip-rule="evenodd" d="M129.723 99.2399C128.514 101.352 132.467 100.44 129.723 99.2399V99.2399Z" fill="#A7C6E5"/>
<path fill-rule="evenodd" clip-rule="evenodd" d="M114.891 72.276C112.078 73.0875 113.05 76.0124 115.348 74.3425C114.822 73.6017 115.49 73.0328 114.891 72.276Z" fill="#A7C6E5"/>
<path fill-rule="evenodd" clip-rule="evenodd" d="M105.308 55.6784L104.803 54.8028C103.503 55.2813 104.11 56.0349 104.453 56.7525C104.853 56.4107 104.753 55.9969 105.308 55.6784Z" fill="#A7C6E5"/>
<path fill-rule="evenodd" clip-rule="evenodd" d="M106.824 64.7021C107.138 64.9965 107.635 64.8184 107.886 65.2538L108.993 64.615C108.714 63.5335 107.721 64.239 106.824 64.7021Z" fill="#A7C6E5"/>
<path fill-rule="evenodd" clip-rule="evenodd" d="M69.5547 5.26058C71.5822 6.18462 71.2122 3.87778 73.4321 3.022C72.7292 1.94149 71.0754 3.22648 69.6035 4.07074C69.6897 4.14587 69.7579 4.23928 69.8031 4.34428C69.8483 4.44929 69.8692 4.56315 69.8645 4.67737C69.8598 4.79159 69.8296 4.90326 69.776 5.00421C69.7224 5.10516 69.6467 5.19277 69.5547 5.26058Z" fill="#A7C6E5"/>
<path fill-rule="evenodd" clip-rule="evenodd" d="M85.3876 27.5739C85.413 27.5218 85.9553 27.2863 85.9457 27.2517C85.2038 24.8842 83.5807 31.3831 85.3876 27.5739Z" fill="#A7C6E5"/>
<path fill-rule="evenodd" clip-rule="evenodd" d="M72.9824 7.36359L74.093 6.72239L73.5888 5.84903L72.4782 6.49023L72.9824 7.36359Z" fill="#A7C6E5"/>
<path fill-rule="evenodd" clip-rule="evenodd" d="M79.3921 22.2997C79.7922 21.9571 79.6887 21.5438 80.2483 21.2228C79.6941 20.8263 79.022 20.7337 78.0829 21.3079C78.333 22.1039 79.0399 21.7581 79.3921 22.2997Z" fill="#A7C6E5"/>
<path fill-rule="evenodd" clip-rule="evenodd" d="M85.5989 35.607L85.0944 34.7331C83.7947 35.2102 84.3989 35.9669 84.7428 36.6838C85.1415 36.3426 85.0428 35.9267 85.5989 35.607Z" fill="#A7C6E5"/>
<path fill-rule="evenodd" clip-rule="evenodd" d="M95.8947 61.1136C96.6595 60.6207 97.4199 60.1372 97.8064 60.5904C98.4826 60.021 97.6367 59.2319 97.352 58.5237C96.8376 59.8264 94.8023 59.1399 95.8947 61.1136Z" fill="#A7C6E5"/>
<path fill-rule="evenodd" clip-rule="evenodd" d="M121.623 112.071C122.075 113.075 123.7 111.134 124.645 110.909C123.945 109.833 121.984 111.069 121.623 112.071Z" fill="#A7C6E5"/>
<path fill-rule="evenodd" clip-rule="evenodd" d="M101.8 75.1773C101.548 74.3803 100.84 74.7263 100.485 74.1887C99.3119 74.6343 100.825 76.6443 101.8 75.1773Z" fill="#A7C6E5"/>
<path fill-rule="evenodd" clip-rule="evenodd" d="M95.1416 66.2048L96.25 65.5649L95.7467 64.6931L94.6382 65.333L95.1416 66.2048Z" fill="#A7C6E5"/>
<path fill-rule="evenodd" clip-rule="evenodd" d="M63.265 13.5529C63.5397 13.6206 63.7978 13.7433 64.0236 13.9137C64.2495 14.0841 64.4383 14.2987 64.5788 14.5442C65.217 13.9677 65.0068 13.2734 65.7351 12.7114C65.5186 12.5996 65.2819 12.5327 65.0389 12.5146C64.7959 12.4966 64.5517 12.5278 64.3211 12.6064C64.0904 12.685 63.8779 12.8093 63.6965 12.9719C63.515 13.1346 63.3682 13.3321 63.265 13.5529Z" fill="#A7C6E5"/>
<path fill-rule="evenodd" clip-rule="evenodd" d="M68.0081 23.0476C68.4705 22.2886 69.1544 21.6897 69.9678 21.3315C68.2307 20.7628 67.0378 20.8419 68.0081 23.0476Z" fill="#A7C6E5"/>
<path fill-rule="evenodd" clip-rule="evenodd" d="M98.6756 78.7265L99.1796 79.5993C99.6065 79.2468 99.8034 79.4688 99.9894 79.7165C101.164 79.2698 99.6476 77.2602 98.6756 78.7265Z" fill="#A7C6E5"/>
<path fill-rule="evenodd" clip-rule="evenodd" d="M116.433 113.322C117.954 113.554 117.129 114.381 117.695 115.507C119.784 115.188 117.752 111.668 116.433 113.322Z" fill="#A7C6E5"/>
<path fill-rule="evenodd" clip-rule="evenodd" d="M79.4102 47.9128C78.2254 49.9716 82.3773 48.5579 79.4102 47.9128V47.9128Z" fill="#A7C6E5"/>
<path fill-rule="evenodd" clip-rule="evenodd" d="M92.5261 70.6307C91.2257 71.1075 91.8342 71.8624 92.1756 72.5774C92.5762 72.2358 92.4733 71.8222 93.0289 71.5014L92.5261 70.6307Z" fill="#A7C6E5"/>
<path fill-rule="evenodd" clip-rule="evenodd" d="M86.8308 64.5981C84.1843 65.8154 86.963 67.8197 86.6343 69.373C88.2678 68.2753 88.5757 66.9851 89.7519 65.8232C87.9364 65.3372 87.7537 65.7438 86.8308 64.5981Z" fill="#A7C6E5"/>
<path fill-rule="evenodd" clip-rule="evenodd" d="M135.096 145.646C132.486 144.999 133.998 148.045 135.096 145.646V145.646Z" fill="#A7C6E5"/>
<path fill-rule="evenodd" clip-rule="evenodd" d="M78.5618 55.3932C78.6556 55.5354 78.759 55.6711 78.8711 55.7994C78.2164 56.4866 77.8727 57.2198 77.2008 57.9025C77.8666 58.616 79.979 57.1786 79.4318 56.2045C80.0307 56.3227 80.5287 55.35 81.8357 54.6682C80.9911 54.2924 79.6861 55.0666 78.5618 55.3932Z" fill="#A7C6E5"/>
<path fill-rule="evenodd" clip-rule="evenodd" d="M55.3557 8.8034C55.1051 8.00898 54.4019 8.35259 54.045 7.81374C52.87 8.26047 54.3858 10.2733 55.3557 8.8034Z" fill="#A7C6E5"/>
<path fill-rule="evenodd" clip-rule="evenodd" d="M114.169 115.794C114.247 114.049 110.956 115.949 112.505 116.755L114.169 115.794Z" fill="#A7C6E5"/>
<path fill-rule="evenodd" clip-rule="evenodd" d="M60.9552 23.6241C59.6538 24.1043 60.2612 24.8571 60.6008 25.5786C61.0023 25.2338 60.9027 24.8175 61.4606 24.4996L60.9552 23.6241Z" fill="#A7C6E5"/>
<path fill-rule="evenodd" clip-rule="evenodd" d="M49.8127 5.59855C49.4324 3.71935 46.9716 6.20345 46.7886 6.7599C47.2414 7.76151 48.8688 5.82447 49.8127 5.59855Z" fill="#A7C6E5"/>
<path fill-rule="evenodd" clip-rule="evenodd" d="M49.3588 9.93643L50.4693 9.29531L49.9647 8.42138L48.8542 9.0625L49.3588 9.93643Z" fill="#A7C6E5"/>
<path fill-rule="evenodd" clip-rule="evenodd" d="M54.3026 21.0585L55.4107 20.4188L54.9058 19.5443L53.7978 20.1841L54.3026 21.0585Z" fill="#A7C6E5"/>
<path fill-rule="evenodd" clip-rule="evenodd" d="M74.7826 55.2466L73.6755 55.8857L74.1798 56.7592L75.2868 56.12L74.7826 55.2466Z" fill="#A7C6E5"/>
<path fill-rule="evenodd" clip-rule="evenodd" d="M113.17 126.851C113.83 127.333 114.624 127.482 115.288 127.96C116.41 127.075 114.549 124.972 113.17 126.851Z" fill="#A7C6E5"/>
<path fill-rule="evenodd" clip-rule="evenodd" d="M92.2392 90.5974C92.6242 91.0576 93.4616 90.3806 94.1503 90.0767C93.3257 90.0083 93.0492 88.5623 91.7341 89.7225C92.3 89.9159 92.8555 90.1188 92.2392 90.5974Z" fill="#A7C6E5"/>
<path fill-rule="evenodd" clip-rule="evenodd" d="M88.0015 81.9783C86.7254 82.9502 88.9465 83.6895 89.8623 82.6496C89.3382 82.1887 88.4971 82.5231 88.0015 81.9783Z" fill="#A7C6E5"/>
<path fill-rule="evenodd" clip-rule="evenodd" d="M122.606 147.031C123.882 148.306 124.439 146.361 125.375 145.432C124.165 144.423 124.31 146.805 122.606 147.031Z" fill="#A7C6E5"/>
<path fill-rule="evenodd" clip-rule="evenodd" d="M77.968 69.715C78.4642 70.9661 79.5641 70.7063 80.94 69.7475C80.4399 68.4993 79.3469 68.7565 77.968 69.715Z" fill="#A7C6E5"/>
<path fill-rule="evenodd" clip-rule="evenodd" d="M53.6075 31.362C53.6944 31.437 53.7633 31.5306 53.8089 31.636C53.8545 31.7414 53.8757 31.8557 53.8709 31.9704C53.8661 32.0851 53.8353 32.1972 53.781 32.2984C53.7268 32.3996 53.6504 32.4872 53.5575 32.5547C54.936 33.2389 55.6483 30.4951 57.1832 29.8788C56.2884 29.6324 55.7096 28.5794 54.8164 28.3357C53.9167 30.141 53.5892 30.5146 52.2464 31.5631C52.51 31.9789 53.126 31.5082 53.6075 31.362Z" fill="#A7C6E5"/>
<path fill-rule="evenodd" clip-rule="evenodd" d="M63.6909 42.4308C61.7605 42.0521 61.3298 45.2706 63.5944 44.819C65.2762 44.2614 62.0076 42.9858 63.6909 42.4308Z" fill="#A7C6E5"/>
<path fill-rule="evenodd" clip-rule="evenodd" d="M44.7275 10.8612L43.0629 11.8223L43.8203 13.1341C44.7867 12.7406 44.5354 12.1705 45.2321 11.735L44.7275 10.8612Z" fill="#A7C6E5"/>
<path fill-rule="evenodd" clip-rule="evenodd" d="M53.5055 27.3445C52.935 27.9264 52.6885 28.5624 53.1539 29.2953C53.7256 28.7106 53.9665 28.0792 53.5055 27.3445Z" fill="#A7C6E5"/>
<path fill-rule="evenodd" clip-rule="evenodd" d="M81.9543 77.8954C80.9393 78.5508 82.4031 79.5617 81.0475 80.1689C82.4773 81.0981 83.4329 78.7014 81.9543 77.8954Z" fill="#A7C6E5"/>
<path fill-rule="evenodd" clip-rule="evenodd" d="M111.158 129.762C110.607 129.364 109.931 129.275 108.989 129.849C109.386 131.641 110.71 130.854 111.158 129.762Z" fill="#A7C6E5"/>
<path fill-rule="evenodd" clip-rule="evenodd" d="M79.3816 74.7233C78.0162 74.0017 77.4443 74.0108 76.1111 75.4484C76.3846 75.5161 76.6415 75.6386 76.8661 75.8087C77.0908 75.9787 77.2786 76.1927 77.418 76.4375C78.4441 75.9214 78.2804 75.2294 79.3816 74.7233Z" fill="#A7C6E5"/>
<path fill-rule="evenodd" clip-rule="evenodd" d="M77.8756 78.5046C78.1232 79.3022 78.8301 78.9564 79.1835 79.4952C79.5873 79.1532 79.4824 78.7421 80.0394 78.4226C79.4844 78.0224 78.8169 77.9306 77.8756 78.5046Z" fill="#A7C6E5"/>
<path fill-rule="evenodd" clip-rule="evenodd" d="M61.4313 51.308L62.5398 50.668L62.0353 49.7941L60.9267 50.4341L61.4313 51.308Z" fill="#A7C6E5"/>
<path fill-rule="evenodd" clip-rule="evenodd" d="M40.8027 14.2927C39.2759 12.506 37.6485 16.5792 40.8027 14.2927V14.2927Z" fill="#A7C6E5"/>
<path fill-rule="evenodd" clip-rule="evenodd" d="M82.5169 90.3842C83.7744 88.1559 79.0561 90.9744 82.5169 90.3842V90.3842Z" fill="#A7C6E5"/>
<path fill-rule="evenodd" clip-rule="evenodd" d="M77.1284 90.0016C78.3996 89.826 78.2212 87.6264 79.3412 88.7241C80.923 86.38 75.0617 88.1986 77.1284 90.0016Z" fill="#A7C6E5"/>
<path fill-rule="evenodd" clip-rule="evenodd" d="M69.4156 80.477C70.7916 79.8691 71.8874 79.9702 73.5401 78.6762C72.4796 76.6363 73.0102 76.6989 71.5237 75.1838C70.716 76.9297 68.6019 78.4922 69.4156 80.477Z" fill="#A7C6E5"/>
<path fill-rule="evenodd" clip-rule="evenodd" d="M50.1439 43.2631C50.8651 44.7886 53.2192 45.0434 53.9194 43.4115C52.7572 43.1212 51.6358 42.7249 50.1439 43.2631Z" fill="#A7C6E5"/>
<path fill-rule="evenodd" clip-rule="evenodd" d="M88.4204 104.45C85.8093 103.804 87.3224 106.852 88.4204 104.45V104.45Z" fill="#A7C6E5"/>
<path fill-rule="evenodd" clip-rule="evenodd" d="M46.6126 37.1469C47.6328 36.6315 47.4722 35.9377 48.5731 35.4324C48.3039 34.56 45.0235 36.4428 46.6126 37.1469Z" fill="#A7C6E5"/>
<path fill-rule="evenodd" clip-rule="evenodd" d="M99.1677 125.619C98.5893 124.927 97.6378 125.175 96.4483 126.025C97.0226 126.716 97.9764 126.471 99.1677 125.619Z" fill="#A7C6E5"/>
<path fill-rule="evenodd" clip-rule="evenodd" d="M51.7621 49.9005C53.1243 50.6212 53.6978 50.6105 55.0333 49.1757C54.5477 47.442 52.1871 48.7313 51.7621 49.9005Z" fill="#A7C6E5"/>
<path fill-rule="evenodd" clip-rule="evenodd" d="M59.2746 64.2004C59.8099 65.7127 61.266 64.9095 62.8008 63.9124C61.6105 64.049 60.9643 62.8192 59.2746 64.2004Z" fill="#A7C6E5"/>
<path fill-rule="evenodd" clip-rule="evenodd" d="M77.5326 93.2618C75.5883 94.315 75.5961 95.6498 76.1293 97.0586C76.1036 97.0893 76.0874 97.1267 76.0827 97.1664C76.0779 97.2061 76.0847 97.2464 76.1023 97.2823C75.4551 97.5297 76.0437 96.8757 75.6659 96.5264L74.5454 97.1734L75.1461 98.2137C75.8552 98.0554 76.499 97.6837 76.9907 97.1487C76.9568 97.1288 76.9215 97.1114 76.885 97.0967C77.1737 96.7643 77.0553 96.3741 76.8826 95.9717C77.7713 95.9511 78.6321 95.6575 79.3482 95.1308C78.9148 94.9933 78.5224 94.7506 78.2055 94.4245C77.8887 94.0984 77.6575 93.699 77.5326 93.2618Z" fill="#A7C6E5"/>
<path fill-rule="evenodd" clip-rule="evenodd" d="M75.0117 88.8957C74.5601 87.883 73.7543 87.7656 72.594 88.5437C73.4207 88.6074 73.6926 90.0539 75.0117 88.8957Z" fill="#A7C6E5"/>
<path fill-rule="evenodd" clip-rule="evenodd" d="M62.5592 76.2829C64.1804 77.2494 64.4309 76.6657 66.3892 75.2355C65.9982 73.3569 63.8519 75.8875 62.5592 76.2829Z" fill="#A7C6E5"/>
<path fill-rule="evenodd" clip-rule="evenodd" d="M41.0706 33.9433L42.1796 33.303L41.6739 32.4271L40.5648 33.0674L41.0706 33.9433Z" fill="#A7C6E5"/>
<path fill-rule="evenodd" clip-rule="evenodd" d="M81.7269 109.482C82.6612 111.284 83.8139 109.817 84.9981 108.757C84.1549 108.378 83.0646 108.619 81.7269 109.482Z" fill="#A7C6E5"/>
<path fill-rule="evenodd" clip-rule="evenodd" d="M34.313 27.3587C34.9293 27.5972 35.846 27.0756 36.1761 28.0294C37.854 26.7382 36.0473 25.8504 34.313 27.3587Z" fill="#A7C6E5"/>
<path fill-rule="evenodd" clip-rule="evenodd" d="M98.1737 143.083C98.7269 143.48 99.3989 143.572 100.336 142.998C99.7885 142.598 99.1146 142.507 98.1737 143.083Z" fill="#A7C6E5"/>
<path fill-rule="evenodd" clip-rule="evenodd" d="M71.335 92.766C70.8795 91.7618 69.2555 93.7002 68.317 93.9258C69.5221 95.4966 70.8852 94.0002 71.335 92.766Z" fill="#A7C6E5"/>
<path fill-rule="evenodd" clip-rule="evenodd" d="M50.9637 62.5931C51.7036 63.5142 53.0227 62.743 53.4284 61.7507C52.6926 60.8258 51.3715 61.5996 50.9637 62.5931Z" fill="#A7C6E5"/>
<path fill-rule="evenodd" clip-rule="evenodd" d="M46.3244 57.1167C47.0273 57.4932 47.9772 57.2464 49.0454 56.7108C48.8429 55.0758 47.3645 56.65 46.3244 57.1167Z" fill="#A7C6E5"/>
<path fill-rule="evenodd" clip-rule="evenodd" d="M93.1359 140.75C92.1195 142.668 95.106 141.785 95.8548 140.344C95.5645 138.931 93.4237 142.164 93.1359 140.75Z" fill="#A7C6E5"/>
<path fill-rule="evenodd" clip-rule="evenodd" d="M91.8182 133.355C90.9688 132.994 90.1899 132.45 88.8473 133.325C87.9909 135.367 90.1376 134.62 90.914 135.624C92.2683 135.023 90.8026 134.008 91.8182 133.355Z" fill="#A7C6E5"/>
<path fill-rule="evenodd" clip-rule="evenodd" d="M71.4477 103.184L73.6626 101.905L73.6572 101.896C74.0596 101.653 74.5024 101.484 74.9645 101.397C74.4414 101.373 73.9172 101.389 73.3966 101.445L72.9052 100.594C71.3838 101.309 70.6134 102.13 71.4477 103.184Z" fill="#A7C6E5"/>
<path fill-rule="evenodd" clip-rule="evenodd" d="M57.4729 75.1435C57.07 75.7527 57.4794 76.4762 56.312 76.9768C56.7213 77.3723 57.5811 76.638 57.9234 77.2116C58.3264 76.8694 58.2215 76.4534 58.7784 76.134C58.5049 76.0663 58.2481 75.9435 58.0236 75.7732C57.7991 75.6029 57.6118 75.3886 57.4729 75.1435Z" fill="#A7C6E5"/>
<path fill-rule="evenodd" clip-rule="evenodd" d="M49.7577 65.6161C52.379 64.7962 49.6841 63.2061 50.7113 62.1526C48.5814 61.7586 48.0466 65.2113 49.7577 65.6161Z" fill="#A7C6E5"/>
<path fill-rule="evenodd" clip-rule="evenodd" d="M82.2387 123.163C82.8181 123.853 83.7666 123.608 84.961 122.754C84.4355 121.245 82.6675 121.999 82.2387 123.163Z" fill="#A7C6E5"/>
<path fill-rule="evenodd" clip-rule="evenodd" d="M81.3312 119.026C83.6286 119.704 81.3717 116.006 81.3312 119.026V119.026Z" fill="#A7C6E5"/>
<path fill-rule="evenodd" clip-rule="evenodd" d="M65.7432 90.751C64.5741 90.4078 61.0899 90.3712 62.4213 92.6689C63.8769 92.916 63.6247 91.5025 65.7432 90.751Z" fill="#A7C6E5"/>
<path fill-rule="evenodd" clip-rule="evenodd" d="M73.8213 111.133C75.0857 110.653 75.1145 109.989 75.7839 109.418C74.8091 107.762 71.9795 109.492 73.8213 111.133Z" fill="#A7C6E5"/>
<path fill-rule="evenodd" clip-rule="evenodd" d="M79.1637 119.112C78.5019 118.633 77.7098 118.486 77.0491 118.005C75.9248 118.889 77.7854 120.992 79.1637 119.112Z" fill="#A7C6E5"/>
<path fill-rule="evenodd" clip-rule="evenodd" d="M58.0828 86.4384C57.6135 87.5139 58.9975 88.681 60.7555 87.2236C60.2492 85.9921 59.4671 85.4616 58.0828 86.4384Z" fill="#A7C6E5"/>
<path fill-rule="evenodd" clip-rule="evenodd" d="M66.9599 100.53C66.2187 101.092 67.5193 101.946 66.6101 102.48C66.9961 102.94 67.8324 102.267 68.5228 101.956C68.1397 101.137 67.3131 101.429 66.9599 100.53Z" fill="#A7C6E5"/>
<path fill-rule="evenodd" clip-rule="evenodd" d="M56.6202 82.6209C55.4499 81.5189 56.2683 80.7032 55.6626 79.6817C53.2015 80.2579 55.2918 81.4986 53.3946 82.1528C54.1706 83.0607 54.9381 83.9937 56.6202 82.6209Z" fill="#A7C6E5"/>
<path fill-rule="evenodd" clip-rule="evenodd" d="M37.3563 51.8112C36.2484 52.8955 38.2357 53.3475 38.8121 52.5223C38.9915 52.4881 39.1584 52.4673 39.2427 52.6135C39.6768 52.2998 39.2991 51.9519 39.2023 51.6304C39.0209 51.6955 38.8644 51.8161 38.7555 51.9751C38.3106 51.8665 37.6456 52.3038 37.3563 51.8112Z" fill="#A7C6E5"/>
<path fill-rule="evenodd" clip-rule="evenodd" d="M76.2474 124.291C76.6327 124.752 77.4692 124.078 78.1645 123.768C77.8899 123.701 77.6318 123.578 77.406 123.408C77.1802 123.238 76.9915 123.023 76.8513 122.778C76.3125 123.234 76.9742 123.865 76.2474 124.291Z" fill="#A7C6E5"/>
<path fill-rule="evenodd" clip-rule="evenodd" d="M59.5524 96.6555C61.6372 97.3148 62.0812 92.5495 58.7953 95.3441C59.3859 95.4768 60.3475 96.0432 59.5524 96.6555Z" fill="#A7C6E5"/>
<path fill-rule="evenodd" clip-rule="evenodd" d="M46.6898 74.3769C45.8362 74.0215 45.275 72.9389 43.7208 74.3446C44.2182 75.593 45.3137 75.3378 46.6898 74.3769Z" fill="#A7C6E5"/>
<path fill-rule="evenodd" clip-rule="evenodd" d="M35.0944 60.6873C35.7681 60.6989 36.4314 60.5192 37.0071 60.169C37.621 58.7229 36.2532 58.4681 35.492 57.5448C33.8997 58.3788 34.5193 59.5351 35.0944 60.6873Z" fill="#A7C6E5"/>
<path fill-rule="evenodd" clip-rule="evenodd" d="M78.3219 139.399C78.777 140.4 80.3986 138.462 81.3422 138.236C80.2124 136.804 79.1939 138.885 78.3219 139.399Z" fill="#A7C6E5"/>
<path fill-rule="evenodd" clip-rule="evenodd" d="M68.8409 120.413C70.8491 119.712 66.2889 118.963 67.0759 117.355C65.8606 118.911 62.8789 120.216 63.9048 122.099C66.0661 122.537 67.7447 118.621 68.8409 120.413Z" fill="#A7C6E5"/>
<path fill-rule="evenodd" clip-rule="evenodd" d="M37.4676 68.6373C38.3221 69.5935 39.6303 67.4241 38.6274 66.8019C37.2587 67.2723 38.3213 68.0917 37.4676 68.6373Z" fill="#A7C6E5"/>
<path fill-rule="evenodd" clip-rule="evenodd" d="M32.9655 58.7061C32.643 58.4443 32.1808 58.535 31.9197 58.1309C30.9025 58.517 31.9006 60.0666 32.817 59.5264C32.8366 61.6458 35.8377 60.626 33.0267 58.3857C33.0006 58.4914 32.9802 58.5983 32.9655 58.7061Z" fill="#A7C6E5"/>
<path fill-rule="evenodd" clip-rule="evenodd" d="M81.4503 142.253C81.0548 140.044 78.6688 142.819 77.6723 142.105C76.2279 144.664 81.1071 143.941 81.4503 142.253Z" fill="#A7C6E5"/>
<path fill-rule="evenodd" clip-rule="evenodd" d="M81.9055 144.322C79.2917 143.681 80.8028 146.726 81.9055 144.322V144.322Z" fill="#A7C6E5"/>
<path fill-rule="evenodd" clip-rule="evenodd" d="M62.5391 115.898C62.7853 115.132 64.504 114.583 63.4433 113.628C62.1922 114.247 61.8874 115.004 62.5391 115.898Z" fill="#A7C6E5"/>
<path fill-rule="evenodd" clip-rule="evenodd" d="M58.1025 112.054L58.6071 112.928C59.0328 112.574 59.2299 112.795 59.4125 113.042C60.589 112.595 59.0761 110.587 58.1025 112.054Z" fill="#A7C6E5"/>
<path fill-rule="evenodd" clip-rule="evenodd" d="M33.2443 79.2288C34.6201 80.5846 35.7292 78.2748 36.5682 77.3098C35.7736 76.4729 33.4321 78.664 33.2443 79.2288Z" fill="#A7C6E5"/>
<path fill-rule="evenodd" clip-rule="evenodd" d="M46.5642 103.572C45.6516 104.237 45.7356 105.051 46.4627 105.961C47.9938 104.668 47.3503 105.039 49.2337 104.361C48.909 102.677 47.0627 104.815 46.5642 103.572Z" fill="#A7C6E5"/>
<path fill-rule="evenodd" clip-rule="evenodd" d="M37.4851 87.8461C37.9345 88.855 38.7401 88.9724 39.9023 88.1983C39.0732 88.1318 38.8001 86.6868 37.4851 87.8461Z" fill="#A7C6E5"/>
<path fill-rule="evenodd" clip-rule="evenodd" d="M58.8685 126.17C58.617 125.374 57.9115 125.72 57.5575 125.18C56.3844 125.626 57.9015 127.636 58.8685 126.17Z" fill="#A7C6E5"/>
<path fill-rule="evenodd" clip-rule="evenodd" d="M54.7902 126.778C53.4901 127.256 54.0962 128.01 54.4361 128.729C54.6406 128.532 54.8091 128.301 54.934 128.046C55.6926 128.024 56.4154 126.505 55.5943 126C55.299 126.308 55.0855 126.684 54.9734 127.095L54.7902 126.778Z" fill="#A7C6E5"/>
<path fill-rule="evenodd" clip-rule="evenodd" d="M50.3538 122.933C49.4635 123.873 52.1917 124.642 53.2799 124.157C53.026 122.658 51.846 123.475 51.4639 122.292C51.1268 122.845 50.7759 123.393 50.3538 122.933Z" fill="#A7C6E5"/>
<path fill-rule="evenodd" clip-rule="evenodd" d="M44.0006 113.205C44.0872 113.28 44.1557 113.374 44.2011 113.479C44.2465 113.585 44.2675 113.699 44.2627 113.813C44.2579 113.928 44.2272 114.04 44.1731 114.141C44.1191 114.242 44.0429 114.33 43.9503 114.397C44.6608 115.439 45.9003 113.443 46.1647 113.119C45.8574 112.827 45.3579 113.005 45.105 112.567L44.0006 113.205Z" fill="#A7C6E5"/>
<path fill-rule="evenodd" clip-rule="evenodd" d="M37.7438 101.092C37.0324 100.053 35.7986 102.047 35.529 102.371C36.6511 103.469 36.4724 101.27 37.7438 101.092Z" fill="#A7C6E5"/>
<path fill-rule="evenodd" clip-rule="evenodd" d="M53.5916 136.206C50.9763 135.563 52.4877 138.613 53.5916 136.206V136.206Z" fill="#A7C6E5"/>
<path fill-rule="evenodd" clip-rule="evenodd" d="M37.6016 111.077L38.7127 110.436L38.2081 109.562L37.097 110.203L37.6016 111.077Z" fill="#A7C6E5"/>
<path fill-rule="evenodd" clip-rule="evenodd" d="M39.9184 113.814C39.2868 112.904 37.9842 113.682 36.6455 114.54C37.2798 115.446 38.5826 114.672 39.9184 113.814Z" fill="#A7C6E5"/>
<path fill-rule="evenodd" clip-rule="evenodd" d="M45.518 134.862C45.5521 134.875 45.5927 134.862 45.6231 134.888C45.6856 134.814 45.7327 134.728 45.7615 134.636C45.7903 134.543 45.8003 134.446 45.7909 134.35C45.8065 134.318 45.812 134.314 45.8285 134.28C45.8558 134.233 46.3974 133.995 46.3825 133.96C46.106 133.072 45.7051 133.431 45.4069 134.026C44.6963 133.954 43.982 134.117 43.3723 134.489C44.2541 134.797 43.5797 134.998 44.5032 135.534C44.6398 135.281 44.8423 135.07 45.0894 134.923C44.9506 135.495 45.032 135.742 45.518 134.862Z" fill="#A7C6E5"/>
<path fill-rule="evenodd" clip-rule="evenodd" d="M123.037 116.183C123.339 114.784 122.008 120.944 123.037 116.183V116.183Z" fill="#A7C6E5"/>
<path fill-rule="evenodd" clip-rule="evenodd" d="M64.0561 58.7957C67.4063 55.9383 64.5048 55.5161 64.0561 58.7957V58.7957Z" fill="#A7C6E5"/>
<path fill-rule="evenodd" clip-rule="evenodd" d="M69.5 129.621L68.9003 130.065L68.694 129.501C68.1479 129.803 67.9578 129.215 67.6376 128.945L66.9814 128.454L66.0223 128.715C64.998 129.233 65.1653 129.923 64.061 130.432L64.1864 130.529C63.9579 130.605 63.7341 130.679 63.5025 130.752L64.2217 130.556L64.7139 130.928L64.0065 131.625C64.6717 132.104 65.465 132.253 66.1263 132.731L66.834 132.034L67.4864 132.529C67.8697 132.05 68.2575 131.572 68.0912 131.017C68.6359 130.717 68.8295 131.3 69.1515 131.567C69.7212 130.985 69.9627 130.354 69.5 129.621Z" fill="#A7C6E5"/>
<path fill-rule="evenodd" clip-rule="evenodd" d="M72.5691 127.264L72.9763 127.323C72.7675 127.122 72.4717 127.158 72.1679 127.207L72.32 126.825C72.2446 126.755 72.1594 126.696 72.067 126.65C72.9612 125.96 74.2252 124.983 72.067 126.65C71.4822 126.25 70.6399 126.49 69.6031 127.234L70.2517 127.732L69.5475 128.427L69.7994 128.864L70.5039 128.169L70.6116 128.98C71.9265 130.005 71.7974 127.63 72.5691 127.264Z" fill="#A7C6E5"/>
<path fill-rule="evenodd" clip-rule="evenodd" d="M72.9274 131.718C71.5523 130.583 72.1121 132.839 71.5157 133.117C72.5585 134.201 71.996 131.946 72.9274 131.718Z" fill="#A7C6E5"/>
<path fill-rule="evenodd" clip-rule="evenodd" d="M64.1709 125.946C63.5288 126.334 62.9891 126.87 62.5971 127.51C63.1538 127.739 63.7772 127.746 64.3393 127.531C64.9014 127.315 65.3595 126.892 65.6197 126.349C65.5273 125.886 65.3092 125.691 65.027 125.665C65.277 124.832 64.3221 124.825 64.1709 125.946Z" fill="#A7C6E5"/>
<path fill-rule="evenodd" clip-rule="evenodd" d="M60.8819 122.364C60.5737 122.071 60.0772 122.25 59.8255 121.809C60.7856 121.181 61.3006 121.672 62.2919 120.967C61.9978 119.92 61.244 120.032 60.7291 119.541C60.1485 120.206 58.1799 123.755 60.8819 122.364Z" fill="#A7C6E5"/>
<path fill-rule="evenodd" clip-rule="evenodd" d="M55.047 132.723L55.5559 133.107C55.572 133.131 55.5921 133.152 55.6152 133.169L55.6377 133.208L53.2837 132.866C54.0057 133.258 54.8421 133.385 55.6482 133.226L55.7185 133.348L55.8029 134.032C56.0266 134.389 56.5041 134.105 56.9416 133.919L53.0872 137.641C54.5595 136.485 56.2743 135.78 57.7773 134.746C57.7172 134.354 57.6798 133.958 57.6653 133.562C57.6414 133.474 57.6158 133.379 57.59 133.29L58.2683 133.189C58.2386 132.907 58.2781 132.622 58.3832 132.358C58.4882 132.095 58.6558 131.861 58.8713 131.677C57.9681 130.817 55.6867 131.105 55.047 132.723Z" fill="#A7C6E5"/>
<path fill-rule="evenodd" clip-rule="evenodd" d="M55.3589 144.774C56.9067 143.8 55.3169 142.371 54.6994 141.077C53.9337 141.57 53.1708 142.057 52.7882 141.598C51.7055 142.393 54.2908 142.308 52.4345 143.55L53.0909 144.042C52.1368 144.488 51.9391 145.226 51.6971 145.952L52.4799 144.88C53.0357 145.85 54.7202 144.001 55.3589 144.774Z" fill="#A7C6E5"/>
<path fill-rule="evenodd" clip-rule="evenodd" d="M47.2403 131.988C46.855 131.165 46.0288 131.46 45.6727 130.562C45.0398 131.073 45.6182 131.752 46.1767 131.435C46.4092 131.87 45.6971 132.166 45.3255 132.511C45.7126 132.97 46.5462 132.296 47.2403 131.988Z" fill="#A7C6E5"/>
<path fill-rule="evenodd" clip-rule="evenodd" d="M109.544 60.1959C109.943 59.8566 109.841 59.4416 110.396 59.1215C110.943 58.8209 111.135 59.4075 111.458 59.6763L113.119 58.7174C112.82 57.4584 108.244 58.701 109.544 60.1959Z" fill="#A7C6E5"/>
<path fill-rule="evenodd" clip-rule="evenodd" d="M72.4091 114.836C72.0808 115.424 71.5931 115.907 71.0022 116.229C71.3535 118.191 73.3588 116.01 74.225 116.699C75.2548 116.044 72.8401 115.327 72.4091 114.836Z" fill="#A7C6E5"/>
<path fill-rule="evenodd" clip-rule="evenodd" d="M49.751 126.75C52.1343 128.603 53.1621 126.024 49.751 126.75V126.75Z" fill="#A7C6E5"/>
<path fill-rule="evenodd" clip-rule="evenodd" d="M115.761 25.1825C114.155 25.3083 114.33 27.508 113.546 26.4613C112.66 27.3891 115.734 27.2929 116.769 26.9272L115.761 25.1825Z" fill="#A7C6E5"/>
<path fill-rule="evenodd" clip-rule="evenodd" d="M131.409 65.0698C130.089 63.6542 129.753 66.4562 128.435 65.0388C127.181 66.5686 130.261 66.0456 131.409 65.0698Z" fill="#A7C6E5"/>
<path fill-rule="evenodd" clip-rule="evenodd" d="M134.899 85.1892C137.145 85.7651 135.334 83.4764 134.444 83.1178C132.569 84.3627 136.775 83.942 134.899 85.1892Z" fill="#A7C6E5"/>
<path fill-rule="evenodd" clip-rule="evenodd" d="M109.002 77.4242C109.766 76.9338 110.529 76.4461 110.918 76.9001C111.775 76.0439 108.908 75.6285 107.694 76.4314C107.968 76.4996 108.225 76.6227 108.45 76.7934C108.675 76.9641 108.862 77.1787 109.002 77.4242Z" fill="#A7C6E5"/>
<path fill-rule="evenodd" clip-rule="evenodd" d="M57.7438 35.9613C60.1087 34.7548 59.5722 34.1428 61.6176 33.7248C60.3729 33.5258 56.251 33.8873 57.7438 35.9613Z" fill="#A7C6E5"/>
<path fill-rule="evenodd" clip-rule="evenodd" d="M120.541 144.729C125.498 141.027 118.182 146.091 120.541 144.729V144.729Z" fill="#A7C6E5"/>
<path fill-rule="evenodd" clip-rule="evenodd" d="M106.568 123.091C107.808 122.213 105.258 122.291 105.004 121.663C104.667 122.216 104.321 122.761 103.898 122.302C102.442 124.339 105.953 122.73 106.568 123.091Z" fill="#A7C6E5"/>
<path fill-rule="evenodd" clip-rule="evenodd" d="M75.1493 72.5081C74.3115 73.4932 75.9018 72.4204 76.2054 73.0615C77.7059 73.9943 76.2133 71.3826 75.1493 72.5081Z" fill="#A7C6E5"/>
<path fill-rule="evenodd" clip-rule="evenodd" d="M77.6329 90.8756C76.1773 92.3007 79.2449 90.9048 79.4969 91.5479C81.1618 89.5927 77.8786 91.5209 77.6329 90.8756Z" fill="#A7C6E5"/>
<path fill-rule="evenodd" clip-rule="evenodd" d="M62.6474 61.0889C61.9312 60.3927 60.6105 61.2114 60.2776 59.5441C59.2899 60.439 59.9526 61.4858 58.32 61.259C57.5962 61.9863 58.5447 61.7362 59.1241 61.3774C59.2101 61.4526 59.2781 61.5462 59.3231 61.6512C59.3682 61.7561 59.3891 61.8698 59.3844 61.984C59.3797 62.0981 59.3496 62.2098 59.2961 62.3108C59.2426 62.4117 59.1672 62.4993 59.0753 62.5672C59.4621 63.0077 59.7692 62.4947 59.6271 62.2486C60.8549 61.2998 61.2918 62.3508 62.6474 61.0889Z" fill="#A7C6E5"/>
<path fill-rule="evenodd" clip-rule="evenodd" d="M56.9084 62.6548C57.788 61.7433 55.9158 62.3207 56.3523 62.9759C55.5237 63.2718 55.265 62.1472 54.7902 61.5495C53.0645 62.9682 55.1806 63.0739 56.0515 63.7342C56.4482 63.3894 56.3477 62.9751 56.9084 62.6548Z" fill="#A7C6E5"/>
<path fill-rule="evenodd" clip-rule="evenodd" d="M38.1937 31.5241C38.1077 31.4483 38.0398 31.3541 37.9949 31.2486C37.9499 31.1431 37.9292 31.0289 37.9341 30.9144C37.9391 30.7998 37.9695 30.6877 38.0234 30.5865C38.0772 30.4852 38.1531 30.3973 38.2453 30.3292C37.4644 30.1371 36.8312 30.744 36.0267 31.6101C36.3398 31.9037 36.8336 31.7247 37.0868 32.1632L38.1937 31.5241Z" fill="#A7C6E5"/>
<path fill-rule="evenodd" clip-rule="evenodd" d="M80.7212 114.134C79.1342 115.622 81.8391 114.643 82.0334 115.127C83.4936 113.957 80.7902 114.935 80.7212 114.134Z" fill="#A7C6E5"/>
<path fill-rule="evenodd" clip-rule="evenodd" d="M46.9846 60.8127L46.8101 60.8398L47.1085 60.7925L46.9846 60.8127Z" fill="#A7C6E5"/>
<path fill-rule="evenodd" clip-rule="evenodd" d="M45.6497 61.0234L46.8103 60.8389L45.6497 61.0234Z" fill="#A7C6E5"/>
<path fill-rule="evenodd" clip-rule="evenodd" d="M43.2438 111.894C41.7684 110.954 41.8601 113.341 43.1941 113.087C43.7784 112.641 43.2506 112.473 42.943 112.652C42.6286 112.337 42.922 112.114 43.2438 111.894Z" fill="#A7C6E5"/>
<path fill-rule="evenodd" clip-rule="evenodd" d="M42.8765 124L42.9781 123.966C42.9518 123.972 42.9217 123.958 42.8947 123.962C42.9521 123.764 42.99 123.561 43.0081 123.355L43.2878 123.839L44.4083 123.192C44.3752 123.11 44.3213 123.039 44.252 122.984C44.1827 122.929 44.1003 122.893 44.013 122.88L44.0454 122.882C43.8284 122.747 43.599 122.564 43.3643 122.397C43.0682 122.494 42.7852 122.627 42.5221 122.794L43.3836 122.845C43.2986 123.02 43.1722 123.172 43.0154 123.288C43.0231 123.21 43.043 123.159 43.047 123.074L42.5195 122.796L42.544 122.203C40.225 122.16 39.6874 123.212 37.6095 123.886C39.0338 124.222 37.8804 124.467 38.6171 125.631C40.8348 124.79 42.3803 125.39 42.8765 124Z" fill="#A7C6E5"/>
<path fill-rule="evenodd" clip-rule="evenodd" d="M34.7276 108.658L36.388 107.699C36.3077 107.607 36.1932 107.591 36.1007 107.526C36.3251 107.184 36.5235 106.788 36.7001 107.255C37.0556 107.111 36.9742 106.97 36.9588 106.79L36.6585 106.27C36.3316 106.597 36.0263 106.945 35.7442 107.311C34.8539 107.009 33.6619 107.455 32.6091 107.549C32.7419 109.357 34.5975 106.849 34.7276 108.658Z" fill="#A7C6E5"/>
<path fill-rule="evenodd" clip-rule="evenodd" d="M130.741 18.2531C131.356 17.8629 131.989 17.4742 131.999 17.2362L130.741 18.2531Z" fill="#A7C6E5"/>
<path fill-rule="evenodd" clip-rule="evenodd" d="M80.2383 54.2089C80.7545 53.8462 81.2946 53.5186 81.8549 53.2285C82.3137 52.7257 81.9771 52.1272 82.098 51.6073L80.2383 54.2089Z" fill="#A7C6E5"/>
<path fill-rule="evenodd" clip-rule="evenodd" d="M72.4122 85.4206L72.6378 86.455C72.6752 86.2764 72.6743 86.092 72.6355 85.9137C72.5966 85.7355 72.5206 85.5674 72.4122 85.4206Z" fill="#A7C6E5"/>
<path fill-rule="evenodd" clip-rule="evenodd" d="M82.3933 59.686C82.7678 60.0836 83.2356 60.3814 83.7542 60.5524L82.3933 59.686Z" fill="#A7C6E5"/>
<path fill-rule="evenodd" clip-rule="evenodd" d="M75.5924 58.5651C75.0828 58.454 74.5814 58.3081 74.0918 58.1283C73.626 58.3004 73.1747 58.5093 72.742 58.7529L75.5924 58.5651Z" fill="#A7C6E5"/>
<path fill-rule="evenodd" clip-rule="evenodd" d="M83.89 76.7776L85.1266 76.3584C84.6834 76.3807 84.2553 76.5258 83.89 76.7776Z" fill="#A7C6E5"/>
<path fill-rule="evenodd" clip-rule="evenodd" d="M67.6739 47.4136C67.2379 47.1528 66.7512 46.988 66.2463 46.9304C65.6724 47.3767 65.0236 47.7175 64.3304 47.9367C64.2596 48.1026 64.2458 48.2874 64.2913 48.462C64.3367 48.6365 64.4388 48.7911 64.5815 48.9014C64.6873 48.9368 64.7981 48.9727 64.9048 49.0096L67.6739 47.4136Z" fill="#A7C6E5"/>
<path fill-rule="evenodd" clip-rule="evenodd" d="M67.6055 55.5822L66.8773 56.0026L67.3815 56.876L68.4916 56.2351L67.9873 55.3617L67.618 55.5749L68.059 54.4672C67.7918 54.8213 67.387 55.2194 67.6055 55.5822Z" fill="#A7C6E5"/>
<path fill-rule="evenodd" clip-rule="evenodd" d="M114.722 144.885C114.881 145.117 115.103 145.299 115.362 145.408C115.62 145.517 115.905 145.548 116.182 145.499L114.722 144.885Z" fill="#A7C6E5"/>
<path fill-rule="evenodd" clip-rule="evenodd" d="M41.317 27.9746C41.7224 28.027 42.0713 28.2216 42.5242 28.1508L41.317 27.9746Z" fill="#A7C6E5"/>
<path fill-rule="evenodd" clip-rule="evenodd" d="M67.2295 85.9588C66.8921 86.0052 66.0697 86.2892 65.5401 85.916L67.6566 87.0265C67.5417 86.4215 67.4507 86.1258 67.2295 85.9588Z" fill="#A7C6E5"/>
<path fill-rule="evenodd" clip-rule="evenodd" d="M50.5546 56.1302L49.0969 58.7195C49.6049 58.5993 50.0909 58.4002 50.5372 58.1293C50.1563 57.4504 51.7064 56.3606 50.5546 56.1302Z" fill="#A7C6E5"/>
<path fill-rule="evenodd" clip-rule="evenodd" d="M65.9599 97.6797C65.2444 98.166 64.4002 98.4282 63.535 98.4326L66.2048 99.2223C66.2984 99.1683 66.3941 99.113 66.4919 99.0565C66.6878 98.847 66.8124 98.5808 66.8478 98.2962C66.6277 97.9986 66.3157 97.7819 65.9599 97.6797Z" fill="#A7C6E5"/>
<path fill-rule="evenodd" clip-rule="evenodd" d="M40.0852 67.417C40.3453 68.0825 40.4471 68.6742 40.9932 68.3492L40.0852 67.417Z" fill="#A7C6E5"/>
<path fill-rule="evenodd" clip-rule="evenodd" d="M70.805 121.899C70.1154 121.914 69.4305 122.017 68.7668 122.205L70.805 121.899Z" fill="#A7C6E5"/>
<path fill-rule="evenodd" clip-rule="evenodd" d="M57.1907 104.719C56.9802 104.507 56.7513 104.314 56.5065 104.143C56.6064 104.058 56.7181 103.989 56.8381 103.937C56.5601 103.153 56.0513 102.881 55.1159 103.544C55.0097 104.008 55.4468 104.084 55.7419 104.154C55.0138 104.38 54.3758 104.831 53.9188 105.441L57.1907 104.719Z" fill="#A7C6E5"/>
<path fill-rule="evenodd" clip-rule="evenodd" d="M44.7838 117.122C44.0572 117.427 43.4608 117.978 43.099 118.678L44.7838 117.122Z" fill="#A7C6E5"/>
<path fill-rule="evenodd" clip-rule="evenodd" d="M87.2595 69.5702L86.9308 70.9231C87.2721 70.4618 87.5749 70.0047 87.2595 69.5702Z" fill="#A7C6E5"/>
<path fill-rule="evenodd" clip-rule="evenodd" d="M79.8033 132.116L79.4266 134.664C79.46 134.27 80.1083 133.792 80.4999 133.3C80.309 132.883 80.0756 132.486 79.8033 132.116Z" fill="#A7C6E5"/>
<path fill-rule="evenodd" clip-rule="evenodd" d="M68.9006 130.065C69.4979 129.489 70.035 128.854 70.5032 128.169L68.9006 130.065Z" fill="#A7C6E5"/>
<path fill-rule="evenodd" clip-rule="evenodd" d="M66.9814 128.454L66.9031 127.042C66.8157 127.512 66.8425 127.996 66.9814 128.454Z" fill="#A7C6E5"/>
<path fill-rule="evenodd" clip-rule="evenodd" d="M63.0554 131.885L64.7143 130.928C63.961 131.161 63.2511 131.465 63.0554 131.885Z" fill="#A7C6E5"/>
<path fill-rule="evenodd" clip-rule="evenodd" d="M66.2277 134.09C65.8725 134.231 65.5484 134.44 65.2738 134.706C65.332 135.527 65.7507 135.451 66.1977 135.299C66.3279 135.5 66.5041 135.666 66.7116 135.785C66.9191 135.904 67.1519 135.971 67.3908 135.982L67.3364 135.597C67.3614 135.666 67.3794 135.737 67.39 135.81C68.529 134.965 68.0705 134.006 67.1013 133.926L66.8343 132.034C66.9102 132.772 66.6923 133.511 66.2277 134.09Z" fill="#A7C6E5"/>
<path fill-rule="evenodd" clip-rule="evenodd" d="M66.9814 128.454C67.7061 128.427 68.4199 128.269 69.0886 127.988L66.9814 128.454Z" fill="#A7C6E5"/>
<path fill-rule="evenodd" clip-rule="evenodd" d="M70.7216 142.604L73.3346 138.182C72.0023 139.613 71.0193 140.973 70.7216 142.604Z" fill="#A7C6E5"/>
<path fill-rule="evenodd" clip-rule="evenodd" d="M50.0299 129.794L48.5479 129.778C49.0378 129.863 49.5383 129.868 50.0299 129.794Z" fill="#A7C6E5"/>
<path fill-rule="evenodd" clip-rule="evenodd" d="M48.559 142.585L51.1843 143.428C50.4079 142.876 49.7212 142.222 48.559 142.585Z" fill="#A7C6E5"/>
<path fill-rule="evenodd" clip-rule="evenodd" d="M53.0909 144.042L51.1815 143.429C51.4411 143.656 51.7445 143.827 52.0729 143.933C52.4012 144.038 52.7476 144.075 53.0909 144.042Z" fill="#A7C6E5"/>
<path fill-rule="evenodd" clip-rule="evenodd" d="M30.5827 122.279C31.041 122.079 31.4392 121.762 31.738 121.361C32.5917 121.615 32.2394 123.125 33.6699 122.604L34.3383 124.609C34.6236 124.333 34.8466 123.999 34.9928 123.63C34.6503 123.175 34.2367 122.376 33.4967 122.084L34.185 121.783C34.4185 121.716 34.6356 121.601 34.8226 121.446C35.1659 121.414 35.4975 121.304 35.7921 121.125C35.5865 120.998 35.3555 120.918 35.1155 120.891C35.1449 120.304 34.6734 119.645 35.642 119.192C35.3671 119.126 35.1088 119.005 34.8831 118.834C34.6573 118.664 34.4689 118.45 34.3296 118.204L34.2844 118.23C34.311 118.099 34.0808 118.075 33.9404 118.157C33.9208 117.665 34.9904 117.236 34.1304 116.66C33.5656 117.05 33.0376 117.354 32.8083 117.109C32.1105 117.575 33.023 118.242 32.2885 118.796C32.3193 118.824 32.3633 118.791 32.3987 118.802C32.3776 118.926 32.3474 118.995 32.3234 119.103C32.2473 118.987 32.1561 118.881 32.0524 118.79C31.5231 118.979 30.9882 119.149 30.4627 119.353C30.1992 119.222 29.8121 119.416 29.4499 119.73L28.2356 117.627C27.9834 118.427 27.8096 119.007 28.0605 119.365C28.5306 119.545 29.0356 119.451 29.4074 119.767C29.1644 119.966 28.9495 120.198 28.7684 120.455C28.9487 120.669 29.3628 120.409 29.71 120.283C29.8442 120.798 29.5767 121.153 29.4815 121.508C29.7574 121.876 30.1431 122.146 30.5827 122.279ZM33.9952 118.415C33.4383 118.762 32.9247 118.997 32.58 118.808C32.9436 118.67 33.4399 118.131 33.9952 118.415Z" fill="#A7C6E5"/>
<path fill-rule="evenodd" clip-rule="evenodd" d="M91.3763 54.9596L92.1095 53.6637C91.8105 54.0624 91.5641 54.498 91.3763 54.9596Z" fill="#A7C6E5"/>
<path fill-rule="evenodd" clip-rule="evenodd" d="M87.9059 96.274L88.3897 97.7425C88.3279 97.2257 88.1634 96.7264 87.9059 96.274Z" fill="#A7C6E5"/>
<path fill-rule="evenodd" clip-rule="evenodd" d="M86.2494 62.3124C86.3924 63.6412 87.9191 63.2209 88.8945 63.6982L86.2494 62.3124Z" fill="#A7C6E5"/>
<path fill-rule="evenodd" clip-rule="evenodd" d="M61.4828 53.3164C61.3826 53.1287 61.2282 52.9754 61.0399 52.8764C60.8515 52.7774 60.6378 52.7373 60.4263 52.7612L61.4828 53.3164Z" fill="#A7C6E5"/>
<path fill-rule="evenodd" clip-rule="evenodd" d="M46.762 42.272C47.3605 42.2864 48.295 41.5887 49.0318 40.7014L45.0817 40.8271C45.9509 40.944 46.6382 41.3211 46.762 42.272Z" fill="#A7C6E5"/>
<path fill-rule="evenodd" clip-rule="evenodd" d="M42.9902 40.8918C42.7533 40.5361 42.4185 40.2565 42.0262 40.0869L42.9902 40.8918Z" fill="#A7C6E5"/>
<path fill-rule="evenodd" clip-rule="evenodd" d="M42.0641 42.1771C42.5074 41.8652 42.8328 41.4129 42.9876 40.8934L42.0641 42.1771Z" fill="#A7C6E5"/>
<path fill-rule="evenodd" clip-rule="evenodd" d="M41.0777 43.5494L42.0657 42.1794C41.5844 42.5987 41.1017 42.9939 41.0777 43.5494Z" fill="#A7C6E5"/>
<path fill-rule="evenodd" clip-rule="evenodd" d="M61.9633 87.4006L61.1046 88.4769C61.4491 88.1687 61.7394 87.8049 61.9633 87.4006Z" fill="#A7C6E5"/>
<path fill-rule="evenodd" clip-rule="evenodd" d="M56.1104 96.6974C56.0688 96.9167 56.0711 97.142 56.1172 97.3604C56.1634 97.5787 56.2525 97.7858 56.3793 97.9695C56.7147 97.3347 57.6381 96.8016 58.0585 97.3772C58.4926 97.0635 58.0923 96.9805 57.8951 97.0943C57.5795 96.395 58.1564 95.8733 57.1597 95.8204C56.8299 96.0108 57.0583 96.2562 57.0646 96.5688C56.646 96.3604 56.4089 96.4182 56.2547 96.5655L55.5753 94.877C55.5437 95.5267 55.7323 96.1681 56.1104 96.6974Z" fill="#A7C6E5"/>
<path fill-rule="evenodd" clip-rule="evenodd" d="M55.5743 94.8756L57.432 92.3465C56.6373 93.1035 55.8405 93.8903 55.5743 94.8756Z" fill="#A7C6E5"/>
<path fill-rule="evenodd" clip-rule="evenodd" d="M53.9273 94.0845C54.114 94.3433 54.3625 94.5514 54.6502 94.6896C54.9379 94.8278 55.2556 94.8918 55.5744 94.8758L53.9273 94.0845Z" fill="#A7C6E5"/>
<path fill-rule="evenodd" clip-rule="evenodd" d="M51.9946 93.1563L53.9268 94.0847C53.5706 93.5763 53.3978 92.9621 53.4364 92.3426C52.9322 92.1912 52.4184 92.7382 51.9946 93.1563Z" fill="#A7C6E5"/>
<path fill-rule="evenodd" clip-rule="evenodd" d="M50.9932 89.3449C51.9505 89.5426 52.935 89.5726 53.9027 89.4337L50.5552 88.7461C50.6907 88.9531 50.8369 89.1529 50.9932 89.3449Z" fill="#A7C6E5"/>
<path fill-rule="evenodd" clip-rule="evenodd" d="M47.3204 108.084C47.0943 107.621 46.778 107.208 46.3901 106.869C45.5945 107.012 44.8223 107.264 44.0948 107.616L47.3204 108.084Z" fill="#A7C6E5"/>
<path fill-rule="evenodd" clip-rule="evenodd" d="M45.2583 110.052C45.953 109.796 46.3037 109.167 46.7468 108.632L45.2583 110.052Z" fill="#A7C6E5"/>
<path fill-rule="evenodd" clip-rule="evenodd" d="M51.4152 105.494C51.6078 104.507 50.0457 103.827 50.9206 102.805L47.3205 108.085C47.5447 107.951 47.7933 107.863 48.0517 107.826C48.3102 107.789 48.5735 107.804 48.8262 107.869C50.0431 107.58 50.5803 106.271 51.4152 105.494Z" fill="#A7C6E5"/>
<path fill-rule="evenodd" clip-rule="evenodd" d="M35.4391 94.7539L37.2858 95.8239C37.3433 95.3384 36.3517 94.9386 35.4391 94.7539Z" fill="#A7C6E5"/>
<path fill-rule="evenodd" clip-rule="evenodd" d="M44.8161 122.927L44.0454 122.882C44.333 123.061 44.6004 123.149 44.8161 122.927Z" fill="#A7C6E5"/>
<path fill-rule="evenodd" clip-rule="evenodd" d="M37.0209 111.995C36.5918 112.245 36.1758 112.518 35.7746 112.811L37.0209 111.995Z" fill="#A7C6E5"/>
<path fill-rule="evenodd" clip-rule="evenodd" d="M41.1408 126.797L38.4189 127.203C39.5688 127.314 40.2208 127.4 41.1408 126.797Z" fill="#A7C6E5"/>
<path fill-rule="evenodd" clip-rule="evenodd" d="M79.1542 43.3803L76.8156 44.4399C77.6679 44.2176 78.5466 44.0363 79.1542 43.3803Z" fill="#A7C6E5"/>
<path fill-rule="evenodd" clip-rule="evenodd" d="M79.5769 82.756C79.5215 82.8488 79.4502 82.9313 79.3665 82.9996C79.4817 83.0177 79.5991 83.0184 79.7145 83.0018C80.0234 83.5443 80.431 84.0243 80.9161 84.4172L79.8643 82.9895C80.1506 82.9629 80.4225 82.9641 80.5269 83.3359C81.0494 82.7201 81.0411 82.0944 80.3216 82.0673C80.0344 82.1956 79.7948 82.4109 79.6365 82.6827L79.2093 82.1026C79.3149 82.3336 79.4554 82.5383 79.5769 82.756Z" fill="#A7C6E5"/>
<path fill-rule="evenodd" clip-rule="evenodd" d="M129.388 7.11252C129.635 6.77988 129.457 6.31747 130.208 5.94571C129.886 5.69026 129.332 5.94744 128.982 5.64741C127.906 6.5206 128.93 6.62173 129.388 7.11252Z" fill="#A7C6E5"/>
<path fill-rule="evenodd" clip-rule="evenodd" d="M131.295 12.2412L130.695 11.2008C130.366 11.7094 129.896 12.1118 129.343 12.3592C129.615 12.8305 130.105 12.613 130.339 13.1713C130.577 12.7881 130.906 12.4687 131.295 12.2412Z" fill="#A7C6E5"/>
<path fill-rule="evenodd" clip-rule="evenodd" d="M124.982 5.56589C125.156 5.71635 124.921 5.91535 124.722 6.03008C124.979 6.32277 125.517 5.88604 126.006 5.66617C125.866 5.11861 125.443 5.2995 124.982 5.56589Z" fill="#A7C6E5"/>
<path fill-rule="evenodd" clip-rule="evenodd" d="M122.324 15.722C120.625 16.8907 123.34 16.2668 122.529 16.9909C122.949 17.5666 123.809 16.3151 124.044 16.1158C123.611 15.6711 122.843 15.8614 122.324 15.722Z" fill="#A7C6E5"/>
<path fill-rule="evenodd" clip-rule="evenodd" d="M113.84 10.6145C115.002 10.1944 114.61 9.66627 115.521 9.2663C114.93 8.85209 113.25 9.44408 112.98 10.0397C113.155 10.0736 113.32 10.1418 113.468 10.2405C113.615 10.3393 113.742 10.4664 113.84 10.6145Z" fill="#A7C6E5"/>
<path fill-rule="evenodd" clip-rule="evenodd" d="M120.529 34.3768C120.665 34.6135 121.099 34.2998 121.394 34.193C121.974 33.9836 122.104 34.6639 122.388 35.0061C123.477 33.9999 121.925 34.2039 122.217 33.0277C121.3 33.4293 121.693 33.9571 120.529 34.3768Z" fill="#A7C6E5"/>
<path fill-rule="evenodd" clip-rule="evenodd" d="M111.854 15.852C111.397 16.4297 110.914 16.9606 111.269 17.5765C111.994 17.1581 112.316 17.4127 112.949 16.9843C112.891 16.7118 112.757 16.4611 112.564 16.2609C112.37 16.0607 112.124 15.919 111.854 15.852Z" fill="#A7C6E5"/>
<path fill-rule="evenodd" clip-rule="evenodd" d="M114.022 20.5156C113.768 20.8832 113.431 21.1855 113.038 21.3978C113.372 21.5193 113.678 21.594 113.831 22.0092C115.069 21.4204 114.831 20.5512 114.022 20.5156Z" fill="#A7C6E5"/>
<path fill-rule="evenodd" clip-rule="evenodd" d="M112.798 27.0738L112.007 27.5306C112.275 27.6905 112.012 27.8422 111.841 28.0042L112.114 28.4765C112.443 28.2864 112.524 28.4273 112.606 28.5694L113.398 28.1126C113.196 27.9151 113.394 27.8007 113.63 27.6014L113.357 27.1296C113.053 27.3663 112.879 27.2148 112.798 27.0738Z" fill="#A7C6E5"/>
<path fill-rule="evenodd" clip-rule="evenodd" d="M118.03 36.1353L116.909 36.7822L117.345 37.5375L118.466 36.8906L118.03 36.1353Z" fill="#A7C6E5"/>
<path fill-rule="evenodd" clip-rule="evenodd" d="M113.074 36.2266L113.537 37.0287C113.945 36.6689 113.859 36.2145 114.357 35.8619C114.101 35.5705 113.564 36.0077 113.074 36.2266Z" fill="#A7C6E5"/>
<path fill-rule="evenodd" clip-rule="evenodd" d="M105.774 22.8222C106.043 22.9812 105.806 23.1808 105.608 23.2952C105.838 23.5403 106.403 23.1512 106.864 22.8848C106.752 22.3838 106.263 22.6028 105.774 22.8222Z" fill="#A7C6E5"/>
<path fill-rule="evenodd" clip-rule="evenodd" d="M133.248 74.6691C133.487 74.2863 133.815 73.9673 134.205 73.7395C133.719 73.203 133.261 72.712 132.089 73.574C132.263 74.4829 133.029 73.9788 133.248 74.6691Z" fill="#A7C6E5"/>
<path fill-rule="evenodd" clip-rule="evenodd" d="M120.129 52.8576C119.953 52.7067 120.19 52.5065 120.387 52.3927C120.219 51.7962 118.457 53.0045 119.404 53.2759L120.129 52.8576Z" fill="#A7C6E5"/>
<path fill-rule="evenodd" clip-rule="evenodd" d="M95.3433 11.6021C94.6541 10.8673 94.3027 13.1475 93.9226 11.7287C93.0385 12.176 94.2695 12.7873 94.2901 13.2782C95.1357 12.9169 95.1693 12.5189 95.6424 12.1202C95.2435 12.037 94.9079 11.9159 95.3433 11.6021Z" fill="#A7C6E5"/>
<path fill-rule="evenodd" clip-rule="evenodd" d="M128.6 83.205C127.619 83.3317 126.976 82.8248 125.759 83.4578C125.988 83.704 125.966 83.9677 125.664 84.2062C126.735 83.7789 128.07 84.2661 128.6 83.205Z" fill="#A7C6E5"/>
<path fill-rule="evenodd" clip-rule="evenodd" d="M83.5121 11.1966C84.5399 11.6096 84.5569 9.96437 85.655 9.58146L84.9195 8.30749C84.1092 9.06335 83.6078 10.0927 83.5121 11.1966Z" fill="#A7C6E5"/>
<path fill-rule="evenodd" clip-rule="evenodd" d="M132.191 94.5985C131.823 94.8736 131.504 94.9329 131.33 94.7805C130.829 95.1324 131.354 95.5851 131.507 96.0002C131.78 95.6505 132.114 95.3517 132.491 95.1177L132.191 94.5985Z" fill="#A7C6E5"/>
<path fill-rule="evenodd" clip-rule="evenodd" d="M132.562 103.005C132.23 103.312 131.939 103.659 131.694 104.039C131.195 103.469 130.558 103.248 129.522 104.017C130.204 105.162 130.588 107.05 132.448 105.241C132.305 104.921 132.14 104.613 131.952 104.317C132.324 103.88 132.671 103.358 133.026 103.808C133.55 103.19 132.819 103.297 132.562 103.005Z" fill="#A7C6E5"/>
<path fill-rule="evenodd" clip-rule="evenodd" d="M132.371 104.5L132.671 105.02L133.462 104.563L133.162 104.043L132.371 104.5Z" fill="#A7C6E5"/>
<path fill-rule="evenodd" clip-rule="evenodd" d="M103.278 60.195C103.67 60.7231 104.593 60.1903 105.489 59.6121C105.312 59.5841 105.145 59.5184 104.996 59.4193C104.848 59.3202 104.723 59.1902 104.63 59.0382C103.971 59.4169 104.029 59.824 103.278 60.195Z" fill="#A7C6E5"/>
<path fill-rule="evenodd" clip-rule="evenodd" d="M79.9123 18.8126C79.4307 18.5864 78.8214 18.7488 78.0962 19.1675C78.513 19.4304 79.0447 19.4383 79.4881 19.751C79.8255 19.4286 79.4509 19.079 79.9123 18.8126Z" fill="#A7C6E5"/>
<path fill-rule="evenodd" clip-rule="evenodd" d="M88.2604 36.7723C88.4904 37.0168 89.0945 36.5425 89.5171 36.3616C89.4036 35.8598 88.9815 36.0418 88.4917 36.2601C88.6949 36.4583 88.4979 36.5721 88.2604 36.7723Z" fill="#A7C6E5"/>
<path fill-rule="evenodd" clip-rule="evenodd" d="M73.5601 10.3981L74.2852 9.97945L73.9849 9.45927L73.2598 9.87793L73.5601 10.3981Z" fill="#A7C6E5"/>
<path fill-rule="evenodd" clip-rule="evenodd" d="M80.121 26.9343C80.324 27.1334 80.1253 27.2481 79.8893 27.4461C80.1188 27.6909 80.6567 27.2555 81.1465 27.0359C81.0327 26.5349 80.6097 26.7153 80.121 26.9343Z" fill="#A7C6E5"/>
<path fill-rule="evenodd" clip-rule="evenodd" d="M79.1884 32.3188C79.7045 32.1471 80.0713 30.8028 79.148 31.3358C78.9846 31.0529 79.4729 30.8333 79.7091 30.6345C80.58 29.2502 77.8413 31.964 78.0571 31.2735C77.0113 32.5063 79.1906 31.5623 79.1884 32.3188Z" fill="#A7C6E5"/>
<path fill-rule="evenodd" clip-rule="evenodd" d="M120.589 107.527C120.982 108.054 121.904 107.522 122.801 106.944C122.544 106.652 122.594 106.434 122.896 106.196C122.091 105.715 121.899 107.21 120.589 107.527Z" fill="#A7C6E5"/>
<path fill-rule="evenodd" clip-rule="evenodd" d="M94.9216 61.2429C95.0537 61.1666 95.5842 61.1759 95.387 61.2897C97.398 59.7514 91.399 62.8994 94.9216 61.2429Z" fill="#A7C6E5"/>
<path fill-rule="evenodd" clip-rule="evenodd" d="M126.888 125.285C127.471 126.145 127.849 124.668 128.309 125.158C128.506 124.909 128.611 124.599 128.603 124.282C128.596 123.964 128.478 123.659 128.27 123.419C127.468 124.007 128.09 124.78 126.888 125.285Z" fill="#A7C6E5"/>
<path fill-rule="evenodd" clip-rule="evenodd" d="M97.4225 72.5749L98.2131 72.1184L97.9128 71.5983L97.1222 72.0547L97.4225 72.5749Z" fill="#A7C6E5"/>
<path fill-rule="evenodd" clip-rule="evenodd" d="M111.288 110.442C111.704 110.706 112.379 110.506 113.104 110.087C113.259 109.747 112.894 109.266 113.394 108.913C112.15 108.434 112.321 110.098 111.288 110.442Z" fill="#A7C6E5"/>
<path fill-rule="evenodd" clip-rule="evenodd" d="M110.44 113.387C110.379 113.601 110.365 113.825 110.4 114.044C110.436 114.264 110.52 114.473 110.646 114.656C111.345 114.364 111.95 113.884 112.394 113.269C112.091 113.1 111.746 113.022 111.4 113.042C111.054 113.063 110.721 113.183 110.44 113.387Z" fill="#A7C6E5"/>
<path fill-rule="evenodd" clip-rule="evenodd" d="M83.298 68.9616C84.141 69.3551 84.5521 69.3078 85.509 68.3787C85.3415 68.3535 85.181 68.2936 85.0379 68.203C84.8948 68.1123 84.7722 67.9928 84.6778 67.8522C83.9919 68.1837 84.0499 68.5906 83.298 68.9616Z" fill="#A7C6E5"/>
<path fill-rule="evenodd" clip-rule="evenodd" d="M65.617 33.9249C65.2413 33.5758 64.6318 33.7384 63.8013 34.2796C64.0589 34.572 64.0076 34.7896 63.7063 35.0281C64.471 35.5922 64.8115 34.202 65.617 33.9249Z" fill="#A7C6E5"/>
<path fill-rule="evenodd" clip-rule="evenodd" d="M55.2217 16.8327C55.59 16.5577 55.2788 16.17 55.1536 15.8019L53.6383 16.6767C54.0953 17.9235 54.8184 16.4358 55.2217 16.8327Z" fill="#A7C6E5"/>
<path fill-rule="evenodd" clip-rule="evenodd" d="M124.347 139.148C124.605 139.44 125.144 139.003 125.631 138.785C125.491 138.236 125.03 138.503 124.54 138.721C124.743 138.92 124.546 139.034 124.347 139.148Z" fill="#A7C6E5"/>
<path fill-rule="evenodd" clip-rule="evenodd" d="M94.1566 86.8566C94.5246 86.581 94.1206 86.1839 94.5809 85.9181C93.8816 85.3134 93.9263 86.6102 93.0656 86.793C93.362 87.0012 93.9659 86.5263 94.1566 86.8566Z" fill="#A7C6E5"/>
<path fill-rule="evenodd" clip-rule="evenodd" d="M69.4585 42.4042C68.3068 42.6919 68.4821 42.8417 67.2187 43.6974C68.5073 43.647 68.3812 43.2773 68.706 44.6004C69.7336 43.944 70.0816 43.1771 69.4585 42.4042Z" fill="#A7C6E5"/>
<path fill-rule="evenodd" clip-rule="evenodd" d="M56.2856 31.7613C55.5217 32.2654 56.8731 32.9327 55.7658 33.4486C56.8999 33.7384 58.1771 31.9933 58.6333 31.4151C58.1087 30.9605 56.5515 32.6772 56.2856 31.7613Z" fill="#A7C6E5"/>
<path fill-rule="evenodd" clip-rule="evenodd" d="M100.757 106.202L100.457 105.682C99.585 105.997 99.9502 106.479 100.168 106.856C100.471 106.62 100.428 106.392 100.757 106.202Z" fill="#A7C6E5"/>
<path fill-rule="evenodd" clip-rule="evenodd" d="M85.6624 80.0567C85.4014 79.4521 84.9084 79.3587 84.079 79.9007C85.0305 80.4832 83.0014 80.7746 83.9545 81.3597C84.9761 80.3891 84.9957 80.8806 85.6624 80.0567Z" fill="#A7C6E5"/>
<path fill-rule="evenodd" clip-rule="evenodd" d="M80.7304 71.5141C80.3058 70.626 79.2905 71.149 78.2846 71.5391L79.0198 72.8125C79.4075 71.9631 80.2665 72.5366 80.7304 71.5141Z" fill="#A7C6E5"/>
<path fill-rule="evenodd" clip-rule="evenodd" d="M50.3461 19.6473C51.1097 19.144 49.8241 18.4381 49.7762 17.8998L48.3264 18.7368L49.0619 20.0107C49.3103 19.6793 50.0918 18.5991 50.3461 19.6473Z" fill="#A7C6E5"/>
<path fill-rule="evenodd" clip-rule="evenodd" d="M41.4907 6.13582L41.9265 6.89063C42.1599 6.50565 42.5022 6.1984 42.9101 6.0078C42.7806 5.32586 42.0842 5.79315 41.4907 6.13582Z" fill="#A7C6E5"/>
<path fill-rule="evenodd" clip-rule="evenodd" d="M104.23 126.977L103.11 127.624C103.277 127.649 103.438 127.709 103.581 127.799C103.724 127.89 103.847 128.009 103.941 128.15C104.177 127.952 104.2 127.686 104.529 127.496L104.23 126.977Z" fill="#A7C6E5"/>
<path fill-rule="evenodd" clip-rule="evenodd" d="M51.1836 41.9456C51.3847 42.1437 51.1214 42.2956 50.9243 42.4095C51.1795 42.7025 51.7189 42.2649 52.2077 42.0459C52.0931 41.5447 51.6434 41.6801 51.1836 41.9456Z" fill="#A7C6E5"/>
<path fill-rule="evenodd" clip-rule="evenodd" d="M39.1077 25.4431C39.2752 25.4683 39.4357 25.5281 39.5788 25.6188C39.7219 25.7094 39.8445 25.829 39.9388 25.9697C40.6094 25.4577 40.5345 24.8726 41.4836 24.3842C40.7954 23.651 39.882 24.8081 39.1077 25.4431Z" fill="#A7C6E5"/>
<path fill-rule="evenodd" clip-rule="evenodd" d="M90.2426 110.511C89.9402 110.749 90.0101 111.022 89.6814 111.212L89.9817 111.732C90.3498 111.458 90.6676 111.399 90.8427 111.55C91.7363 110.97 90.4825 110.625 90.2426 110.511Z" fill="#A7C6E5"/>
<path fill-rule="evenodd" clip-rule="evenodd" d="M85.6104 102.488C85.4439 102.961 84.2803 103.382 84.9536 103.938C85.4325 103.094 85.414 103.672 86.4694 103.062L86.1691 102.542C85.8656 102.781 85.7197 102.677 85.6104 102.488Z" fill="#A7C6E5"/>
<path fill-rule="evenodd" clip-rule="evenodd" d="M44.0163 29.5318C43.8745 28.9846 43.3852 29.2026 42.9248 29.4684C43.1002 29.6196 42.9287 29.7803 42.7321 29.8938C42.8964 30.1784 43.5279 29.7513 44.0163 29.5318Z" fill="#A7C6E5"/>
<path fill-rule="evenodd" clip-rule="evenodd" d="M109.575 144.91C109.381 144.865 109.2 144.775 109.048 144.646C109.284 144.547 109.505 144.419 109.709 144.265C110.666 143.492 109.037 143.911 108.349 144.465C108.037 144.715 108.016 144.833 108.131 144.869C107.984 145.168 108.044 145.48 107.594 145.74C108.414 146.398 108.334 145.499 109.575 144.91Z" fill="#A7C6E5"/>
<path fill-rule="evenodd" clip-rule="evenodd" d="M103.952 144.757C103.565 145.609 104.461 145.03 104.688 146.031C105.704 145.508 105.628 144.923 106.299 144.408C105.955 143.664 104.94 144.187 103.952 144.757Z" fill="#A7C6E5"/>
<path fill-rule="evenodd" clip-rule="evenodd" d="M61.2915 70.8411C60.9542 70.8753 60.6286 70.9837 60.3381 71.1585C60.5339 71.2748 60.7517 71.3493 60.9777 71.3774C60.921 71.4954 60.8975 71.6266 60.9095 71.757C60.9214 71.8873 60.9685 72.012 61.0457 72.1177L62.5616 71.2425C62.537 71.1555 62.4734 71.1548 62.4363 71.093C62.4623 71.078 62.4795 71.086 62.5057 71.0701C62.4697 71.0438 62.4195 71.0506 62.3821 71.0278C62.163 70.7493 61.849 70.6809 61.5939 70.4807C61.4957 70.5964 61.3906 70.7173 61.2915 70.8411Z" fill="#A7C6E5"/>
<path fill-rule="evenodd" clip-rule="evenodd" d="M54.2635 57.7841C53.8971 58.0587 54.3011 58.4559 53.8397 58.7223C54.0691 58.9672 54.608 58.5298 55.0957 58.3113C54.9143 57.8494 54.4545 58.1149 54.2635 57.7841Z" fill="#A7C6E5"/>
<path fill-rule="evenodd" clip-rule="evenodd" d="M97.0953 134.557C96.369 133.907 95.8889 134.75 95.0213 135.377C95.4216 135.461 95.7551 135.583 95.3216 135.898C95.6721 136.2 96.4464 135.563 97.0006 135.306C96.7445 135.012 96.8595 134.757 97.0953 134.557Z" fill="#A7C6E5"/>
<path fill-rule="evenodd" clip-rule="evenodd" d="M79.5371 111.909C78.5987 112.263 79.0032 112.658 79.1825 113.121C79.4844 112.884 79.4144 112.61 79.8365 112.428L79.5371 111.909Z" fill="#A7C6E5"/>
<path fill-rule="evenodd" clip-rule="evenodd" d="M91.8238 137.601C91.7108 137.099 91.2219 137.319 90.9654 137.027C90.054 137.427 91.845 138.091 90.3086 138.476C90.7291 139.051 91.6545 137.762 91.8238 137.601Z" fill="#A7C6E5"/>
<path fill-rule="evenodd" clip-rule="evenodd" d="M62.9788 89.3135C62.623 89.4565 62.6381 89.6364 62.7471 89.8253L63.0475 90.3454C63.6683 90.0501 63.5424 89.6817 64.0038 89.4153C63.7727 89.17 63.1695 89.6438 62.9788 89.3135Z" fill="#A7C6E5"/>
<path fill-rule="evenodd" clip-rule="evenodd" d="M89.0135 137.145L88.5507 136.344L87.1014 137.181C87.3778 137.966 88.2739 137.385 89.0135 137.145Z" fill="#A7C6E5"/>
<path fill-rule="evenodd" clip-rule="evenodd" d="M71.028 106.754C72.3466 105.993 69.7469 106.361 70.9212 105.809C70.9172 105.496 70.6524 105.649 70.4285 105.716L69.6378 106.173C69.7846 107.031 70.7282 106.235 71.028 106.754Z" fill="#A7C6E5"/>
<path fill-rule="evenodd" clip-rule="evenodd" d="M41.8431 58.0341C42.0413 57.9197 42.5727 57.9271 42.3745 58.0415C44.3865 56.5026 38.3204 59.6906 41.8431 58.0341Z" fill="#A7C6E5"/>
<path fill-rule="evenodd" clip-rule="evenodd" d="M81.8588 126.427L81.396 125.626L80.276 126.272C80.3458 126.547 80.5713 126.48 80.835 126.327C80.9324 126.649 80.5211 126.697 80.4397 126.556C79.416 127.523 81.2042 127.119 81.8588 126.427Z" fill="#A7C6E5"/>
<path fill-rule="evenodd" clip-rule="evenodd" d="M45.1129 64.4543L45.8375 64.0359L45.5372 63.5157L44.8125 63.9341L45.1129 64.4543Z" fill="#A7C6E5"/>
<path fill-rule="evenodd" clip-rule="evenodd" d="M77.5656 119.907L76.841 120.326L77.1413 120.846L77.8659 120.427L77.5656 119.907Z" fill="#A7C6E5"/>
<path fill-rule="evenodd" clip-rule="evenodd" d="M88.137 147.431C88.1852 147.154 88.2431 146.831 88.303 146.453C88.0248 146.185 87.8259 146.919 87.733 147.648C87.5283 147.905 87.5113 148.123 87.6035 148.306C86.7186 148.973 87.5511 149.156 88.0192 149.368C87.732 149.678 87.3686 149.907 86.9652 150.033C87.0795 150.114 87.2109 150.167 87.3491 150.189C87.3271 150.197 87.3236 150.203 87.2994 150.212C87.8781 150.779 88.111 150.463 88.3767 150.002C88.4893 150.13 88.573 150.305 88.6857 150.425C90.0569 149.759 90.0127 148.463 91.376 147.172C90.348 147.113 88.9302 147.918 88.137 147.431ZM87.8467 149.956C87.844 149.933 87.8637 149.924 87.8543 149.898C87.8944 149.88 87.903 149.922 87.9383 149.913C87.9161 149.925 87.8714 149.943 87.8464 149.956L87.8467 149.956Z" fill="#A7C6E5"/>
<path fill-rule="evenodd" clip-rule="evenodd" d="M67.5884 105.971C67.5053 105.714 67.3577 105.483 67.1597 105.3C66.9616 105.117 66.7199 104.988 66.4575 104.925C66.3853 105.018 66.3068 105.105 66.2225 105.187C66.2922 104.898 66.2856 104.596 66.2032 104.31C66.1208 104.024 65.9654 103.765 65.7525 103.557C63.9113 104.058 65.2125 105.018 65.6032 105.844C65.3376 106.163 65.206 106.49 65.541 106.838C66.1608 106.543 66.0639 106.222 66.498 105.908C66.6383 106.457 67.0599 106.276 67.5884 105.971Z" fill="#A7C6E5"/>
<path fill-rule="evenodd" clip-rule="evenodd" d="M80.811 134.96L81.2741 135.762C81.5046 135.373 81.8349 135.052 82.2307 134.832C82.0351 134.191 81.4314 134.665 80.811 134.96Z" fill="#A7C6E5"/>
<path fill-rule="evenodd" clip-rule="evenodd" d="M73.1404 133.851L73.6044 134.654C74.845 134.063 73.9977 133.356 75.5461 132.84C75.4752 132.77 75.3958 132.709 75.3099 132.659C75.5202 132.468 75.2327 132.357 75.3469 132.068C76.6007 128.917 73.3599 132.831 74.3879 132.984C74.0249 133.342 73.6029 133.636 73.1404 133.851Z" fill="#A7C6E5"/>
<path fill-rule="evenodd" clip-rule="evenodd" d="M54.3028 99.546L54.0025 99.0258L53.2741 99.4463L53.5745 99.9665L54.3028 99.546Z" fill="#A7C6E5"/>
<path fill-rule="evenodd" clip-rule="evenodd" d="M70.5838 138.096C70.7864 138.294 70.5232 138.446 70.3518 138.608C70.5821 138.853 71.1205 138.415 71.6082 138.197C71.4953 137.696 71.0069 137.915 70.5838 138.096Z" fill="#A7C6E5"/>
<path fill-rule="evenodd" clip-rule="evenodd" d="M40.8176 84.866C40.3545 84.0638 39.1195 84.9662 38.1142 85.3573C38.4526 85.791 37.9798 86.1902 38.3195 86.6259C39.5868 86.0808 39.3642 85.3902 40.8176 84.866Z" fill="#A7C6E5"/>
<path fill-rule="evenodd" clip-rule="evenodd" d="M44.619 92.3633C43.909 92.5201 43.2648 92.892 42.774 93.4285C42.9827 93.4664 43.177 93.5609 43.3357 93.7016C43.4944 93.8424 43.6114 94.024 43.6739 94.2267C44.1055 93.6024 45.2805 93.0502 44.619 92.3633Z" fill="#A7C6E5"/>
<path fill-rule="evenodd" clip-rule="evenodd" d="M47.8629 106.662C48.4946 106.235 48.4745 105.742 48.0534 105.165C47.2079 105.528 47.1088 105.963 46.7009 106.323C47.0278 106.577 47.6087 106.369 47.8629 106.662Z" fill="#A7C6E5"/>
<path fill-rule="evenodd" clip-rule="evenodd" d="M51.9364 115.385L52.6609 114.967C52.4588 114.769 52.6575 114.654 52.8928 114.455C52.7531 113.907 50.9901 115.114 51.9364 115.385Z" fill="#A7C6E5"/>
<path fill-rule="evenodd" clip-rule="evenodd" d="M62.445 143.173L62.8808 143.928C63.2875 143.567 63.2007 143.115 63.7004 142.761C63.4721 142.517 62.9064 142.907 62.445 143.173Z" fill="#A7C6E5"/>
<path fill-rule="evenodd" clip-rule="evenodd" d="M58.6572 138.438C58.8029 138.362 58.9264 138.25 59.0154 138.112C59.1043 137.974 59.1558 137.815 59.1645 137.651C59.4458 137.613 59.7217 137.543 59.9869 137.442C59.9287 134.818 58.4803 136.102 56.46 137.732C56.9539 137.665 57.4537 137.654 57.95 137.7C58.1126 137.767 58.2594 137.868 58.3812 137.995C58.5029 138.122 58.5969 138.273 58.6572 138.438Z" fill="#A7C6E5"/>
<path fill-rule="evenodd" clip-rule="evenodd" d="M49.0407 131.216L47.9202 131.863C48.2412 132.117 48.8239 131.907 49.0807 132.199C49.5137 131.886 49.1378 131.538 49.0407 131.216Z" fill="#A7C6E5"/>
<path fill-rule="evenodd" clip-rule="evenodd" d="M44.3611 140.462C43.8135 140.274 43.0456 140.466 42.1501 141.045C42.4062 141.336 42.3559 141.555 42.0546 141.794C42.9796 142.329 43.2099 140.749 44.3611 140.462Z" fill="#A7C6E5"/>
<path fill-rule="evenodd" clip-rule="evenodd" d="M45.2727 144.781C44.6417 145.208 44.6625 145.699 45.1492 146.239C45.5445 146.011 45.2224 145.756 45.2442 145.491C45.627 145.395 46.0388 145.346 46.2692 145.593C47.2908 144.622 45.4631 145.111 45.2727 144.781Z" fill="#A7C6E5"/>
<path fill-rule="evenodd" clip-rule="evenodd" d="M131.177 21.622C129.886 22.4296 132.485 22.0623 131.311 22.6156C131.336 22.6593 131.378 22.6912 131.426 22.7043C131.475 22.7174 131.527 22.7105 131.571 22.6853C131.615 22.66 131.646 22.6184 131.66 22.5697C131.673 22.5209 131.666 22.469 131.64 22.4252C132.156 22.2525 132.621 22.298 132.867 22.7235C133.685 22.3143 132.481 21.7504 132.526 21.2203C131.999 21.5248 131.434 21.9142 131.177 21.622Z" fill="#A7C6E5"/>
<path fill-rule="evenodd" clip-rule="evenodd" d="M128.302 42.6643C129.165 41.725 126.789 42.7828 126.81 41.7624C125.982 42.4321 125.25 43.2143 124.638 44.0863L124.967 43.8962L125.104 44.1328C125.709 43.657 125.941 43.9012 126.195 44.1962C127.509 43.876 127.59 42.1941 128.302 42.6643Z" fill="#A7C6E5"/>
<path fill-rule="evenodd" clip-rule="evenodd" d="M119.636 40.7447C118.818 41.1549 120.023 41.7169 120.043 42.2098L120.516 41.8102L120.931 42.0741C121.799 41.4466 121.138 40.7589 122.379 40.1688C121.722 39.7925 120.293 41.1207 119.636 40.7447Z" fill="#A7C6E5"/>
<path fill-rule="evenodd" clip-rule="evenodd" d="M99.6577 9.48829C99.4015 9.19716 99.1805 9.57587 99.2619 9.71684C98.9331 9.90664 98.8517 9.76564 98.7031 9.66207C97.7765 10.6375 99.6282 10.1975 99.6577 9.48829Z" fill="#A7C6E5"/>
<path fill-rule="evenodd" clip-rule="evenodd" d="M124.409 57.686C124.207 57.488 124.444 57.2879 124.641 57.1743C124.412 56.9295 123.807 57.4034 123.616 57.0725C123.181 57.3855 123.517 57.508 123.78 57.356C123.955 57.5058 123.784 57.6679 123.521 57.8199C123.685 58.1044 124.092 57.7425 124.409 57.686Z" fill="#A7C6E5"/>
<path fill-rule="evenodd" clip-rule="evenodd" d="M129.896 70.6889L130.687 70.2324C130.43 69.9416 130.212 69.5634 130.646 69.2494C130.479 68.654 128.6 71.1841 129.896 70.6889Z" fill="#A7C6E5"/>
<path fill-rule="evenodd" clip-rule="evenodd" d="M115.811 55.7281C116.113 55.4902 116.195 55.6317 116.277 55.7737C117.66 54.9751 114.996 55.3807 116.236 54.7896C115.377 54.2157 115.969 55.6988 115.416 55.9564C115.646 56.2012 115.893 55.8686 115.811 55.7281Z" fill="#A7C6E5"/>
<path fill-rule="evenodd" clip-rule="evenodd" d="M96.4011 31.6951L96.7015 32.2152C96.9217 31.8363 97.5371 31.2286 97.8215 31.5686C98.8357 31.0441 96.0691 30.8173 96.4011 31.6951Z" fill="#A7C6E5"/>
<path fill-rule="evenodd" clip-rule="evenodd" d="M124.483 78.6603L124.047 77.905L123.876 78.0669C124.067 78.3977 123.626 79.1553 124.483 78.6603Z" fill="#A7C6E5"/>
<path fill-rule="evenodd" clip-rule="evenodd" d="M123.063 78.788C123.403 78.639 123.687 78.387 123.876 78.0675C123.837 77.9401 123.676 77.91 123.525 77.8867C123.524 78.2164 123.161 78.4896 123.063 78.788Z" fill="#A7C6E5"/>
<path fill-rule="evenodd" clip-rule="evenodd" d="M123.525 77.8868C123.525 77.774 123.487 77.6646 123.416 77.577C123.092 77.8411 123.295 77.8537 123.525 77.8868Z" fill="#A7C6E5"/>
<path fill-rule="evenodd" clip-rule="evenodd" d="M133.864 99.1696C133.526 98.7357 132.138 100.292 132.783 100.801L133.905 100.154C133.291 100.004 133.155 99.7682 133.864 99.1696Z" fill="#A7C6E5"/>
<path fill-rule="evenodd" clip-rule="evenodd" d="M106.721 54.7462C105.854 55.3725 106.238 53.452 105.164 54.6372C105.119 55.1674 106.324 55.731 105.505 56.1405C106.841 56.6273 106.391 54.9353 107.051 54.5545C107.024 54.5137 106.983 54.4848 106.935 54.4736C106.887 54.4624 106.838 54.4699 106.795 54.4945C106.753 54.519 106.722 54.5588 106.708 54.6056C106.694 54.6524 106.699 54.7027 106.721 54.7462Z" fill="#A7C6E5"/>
<path fill-rule="evenodd" clip-rule="evenodd" d="M87.9712 24.8581C88.1073 25.0937 88.4757 24.8179 88.8318 24.6754C88.7741 24.843 88.7504 25.0204 88.762 25.1974C88.7736 25.3743 88.8204 25.5471 88.8996 25.7058C89.9938 25.0109 89.1142 23.945 87.9712 24.8581Z" fill="#A7C6E5"/>
<path fill-rule="evenodd" clip-rule="evenodd" d="M110.737 65.2019C110.962 64.8105 111.307 64.5014 111.721 64.3197C111.372 64.0169 110.816 64.2743 110.532 63.9348C110.01 64.5517 110.02 65.1755 110.737 65.2019Z" fill="#A7C6E5"/>
<path fill-rule="evenodd" clip-rule="evenodd" d="M99.0633 43.3094C98.8078 43.0158 98.8575 42.7991 99.1583 42.5609C98.4673 41.5131 97.9389 43.6429 96.9474 43.1438C96.3599 43.8007 98.1967 43.9359 99.0633 43.3094Z" fill="#A7C6E5"/>
<path fill-rule="evenodd" clip-rule="evenodd" d="M70.4379 6.66227C71.0717 7.30344 71.0928 5.97069 71.8871 5.8256C71.6853 5.62862 71.3945 5.73267 71.2576 5.49547L70.4664 5.95226C70.5364 6.22604 70.801 6.07325 70.9977 5.95973C71.1619 6.24427 70.6751 6.46289 70.4379 6.66227Z" fill="#A7C6E5"/>
<path fill-rule="evenodd" clip-rule="evenodd" d="M132.585 121.304C133.394 120.271 130.717 122.634 132.2 123.224C133.151 122.739 133.168 122.163 133.745 121.639C133.248 121.235 131.939 122.62 132.585 121.304Z" fill="#A7C6E5"/>
<path fill-rule="evenodd" clip-rule="evenodd" d="M98.2209 66.1982C97.748 66.5961 98.8891 66.4415 98.1924 66.9082C99.4581 67.1208 100.93 66.0214 99.9969 64.86C98.8449 65.1458 99.3038 66.7056 98.2209 66.1982Z" fill="#A7C6E5"/>
<path fill-rule="evenodd" clip-rule="evenodd" d="M70.5635 18.2943C70.951 18.4172 71.3689 18.4027 71.747 18.2533C72.125 18.1039 72.4399 17.8287 72.6388 17.4742C71.8379 17.3075 72.0383 18.2613 71.7798 16.9006C70.6835 17.2818 71.3547 17.8376 70.5635 18.2943Z" fill="#A7C6E5"/>
<path fill-rule="evenodd" clip-rule="evenodd" d="M131.585 125.657C132.086 125.305 131.282 124.825 131.874 124.483C131.524 124.182 131.189 124.817 131.286 125.138C130.984 125.374 130.902 125.233 130.754 125.13C129.78 125.881 131.564 125.167 131.585 125.657Z" fill="#A7C6E5"/>
<path fill-rule="evenodd" clip-rule="evenodd" d="M77.9407 34.4234C78.104 34.7064 78.7359 34.2798 79.2245 34.0594C79.1545 33.7857 78.863 33.8909 78.6653 34.005C78.4632 33.8075 78.6619 33.6928 78.9251 33.5409C78.2929 32.8988 78.5508 34.2598 77.9407 34.4234Z" fill="#A7C6E5"/>
<path fill-rule="evenodd" clip-rule="evenodd" d="M84.0978 45.8092L83.5873 44.9249C83.3339 45.1714 83.1499 45.4803 83.0537 45.8205C83.0067 45.7054 83.0021 45.5353 83.1184 45.2178C83.5549 44.1467 82.7816 45.8527 82.6946 46.1561C82.7444 46.1967 82.8198 46.1878 82.8756 46.216C82.7708 46.4271 82.6191 46.6115 82.4321 46.755C82.821 47.2171 83.6545 46.5417 84.3441 46.2358L84.1867 45.9632C84.2304 45.8443 84.2019 45.7949 84.0978 45.8092Z" fill="#A7C6E5"/>
<path fill-rule="evenodd" clip-rule="evenodd" d="M69.6696 25.4186C69.971 25.1815 70.1196 25.285 70.201 25.426C70.6351 25.1123 70.2573 24.7644 70.1606 24.4429C69.6872 24.8424 69.8116 25.2104 69.3404 25.61C69.3658 25.6537 69.4075 25.6855 69.4563 25.6984C69.5051 25.7113 69.557 25.7043 69.6007 25.679C69.6443 25.6536 69.6761 25.6118 69.689 25.563C69.7019 25.5142 69.695 25.4622 69.6696 25.4186Z" fill="#A7C6E5"/>
<path fill-rule="evenodd" clip-rule="evenodd" d="M57.7969 9.11546C56.7224 9.23297 56.7278 10.6142 56.2811 9.99063C55.7417 10.4283 56.8833 10.2734 56.1861 10.7391C56.8691 11.1617 58.6937 9.60549 57.7969 9.11546Z" fill="#A7C6E5"/>
<path fill-rule="evenodd" clip-rule="evenodd" d="M120.756 141.602C121.781 141.704 121.4 141.043 122.109 140.444C121.561 140.257 121.571 140.88 120.457 141.083L120.756 141.602Z" fill="#A7C6E5"/>
<path fill-rule="evenodd" clip-rule="evenodd" d="M115.525 132.538C115.507 132.521 115.481 132.528 115.462 132.516C115.412 132.602 115.37 132.66 115.525 132.538Z" fill="#A7C6E5"/>
<path fill-rule="evenodd" clip-rule="evenodd" d="M115.463 132.517C115.513 132.433 115.574 132.321 115.483 132.311C115.277 132.224 115.048 132.202 114.829 132.247C114.953 132.464 115.255 132.383 115.463 132.517Z" fill="#A7C6E5"/>
<path fill-rule="evenodd" clip-rule="evenodd" d="M115.481 132.312C115.602 132.368 115.799 132.254 115.853 132.348C116.366 131.864 115.531 132.093 115.39 131.546C114.556 131.776 114.949 132.304 115.481 132.312Z" fill="#A7C6E5"/>
<path fill-rule="evenodd" clip-rule="evenodd" d="M46.8275 16.1407C47.1782 16.4418 47.2349 15.7807 47.948 15.4938C47.2453 14.5817 46.0952 15.1763 45.2057 16.0707C45.385 16.5338 47.9895 14.6528 46.8275 16.1407Z" fill="#A7C6E5"/>
<path fill-rule="evenodd" clip-rule="evenodd" d="M112.114 131.047C111.884 130.801 111.907 130.536 112.209 130.298C111.619 129.884 111.416 131.511 110.598 131.922C111.112 132.505 111.039 131.164 112.114 131.047Z" fill="#A7C6E5"/>
<path fill-rule="evenodd" clip-rule="evenodd" d="M100.388 118.497C101.126 119.015 100.892 117.389 101.604 117.102L101.44 116.819L101.769 116.629C101.799 115.918 99.5581 117.212 100.609 116.292C99.0914 116.098 98.6689 118.105 99.104 118.859C99.0297 118.275 101.164 117.861 100.388 118.497Z" fill="#A7C6E5"/>
<path fill-rule="evenodd" clip-rule="evenodd" d="M108.047 131.002C109.409 130.469 108.43 129.838 109.099 129.325C108.87 129.08 108.623 129.413 108.771 129.515C108.294 129.603 108.021 129.13 107.284 129.68L108.047 131.002Z" fill="#A7C6E5"/>
<path fill-rule="evenodd" clip-rule="evenodd" d="M111.634 133.715C111.35 133.375 110.459 134.267 110.213 133.841C109.845 134.117 110.178 134.239 110.377 134.124C110.184 134.55 109.952 135.063 109.693 135.526C110.563 135.968 110.974 135.919 111.904 134.943C111.686 134.566 111.133 134.067 111.634 133.715Z" fill="#A7C6E5"/>
<path fill-rule="evenodd" clip-rule="evenodd" d="M76.3858 74.3359C76.2105 74.186 75.8542 74.3293 75.6897 74.0442L74.965 74.4626C75.144 74.9252 75.9386 74.7806 75.4281 75.2647C76.0346 75.8599 75.7762 74.4992 76.3858 74.3359Z" fill="#A7C6E5"/>
<path fill-rule="evenodd" clip-rule="evenodd" d="M71.1542 65.2746C70.7199 65.5891 70.0454 65.7892 69.6384 66.1497C70.4784 65.4761 71.7164 67.4676 71.1542 65.2746Z" fill="#A7C6E5"/>
<path fill-rule="evenodd" clip-rule="evenodd" d="M108.856 140.164C109.379 139.548 108.718 138.86 110.331 138.306C110.157 138.272 109.992 138.204 109.844 138.105C109.697 138.007 109.571 137.88 109.473 137.732C109.234 138.115 108.905 138.434 108.516 138.662C109.549 139.386 107.485 140.074 108.856 140.164Z" fill="#A7C6E5"/>
<path fill-rule="evenodd" clip-rule="evenodd" d="M76.1422 85.1754C76.2122 85.4492 76.4089 85.3356 76.6352 85.2688C76.7205 85.7216 75.5579 86.1418 76.5112 86.7275C76.7917 85.9989 76.8874 85.2514 77.7557 84.6218C77.4713 84.2818 76.6967 84.9212 76.1422 85.1754Z" fill="#A7C6E5"/>
<path fill-rule="evenodd" clip-rule="evenodd" d="M103.302 139.217L102.79 139.702L102.77 139.209L102.439 139.4L102.198 140.044L101.391 140.321C101.609 140.699 101.761 141.115 102.248 140.895L102.76 140.412L102.78 140.903L103.901 140.255C103.427 139.586 104.194 139.394 103.302 139.217Z" fill="#A7C6E5"/>
<path fill-rule="evenodd" clip-rule="evenodd" d="M94.801 137.583C94.5977 137.767 94.4344 137.99 94.3213 138.239C94.2083 138.488 94.148 138.758 94.1441 139.032L94.7929 138.784L94.8119 139.276C95.9237 139.829 98.3336 138.376 96.9162 137.747L96.5827 137.624L96.6164 137.227C96.2003 136.962 95.1374 138.013 94.801 137.583Z" fill="#A7C6E5"/>
<path fill-rule="evenodd" clip-rule="evenodd" d="M101.792 134.929C101.767 134.885 101.725 134.853 101.676 134.84C101.627 134.826 101.575 134.833 101.531 134.859C101.487 134.884 101.455 134.926 101.442 134.975C101.429 135.024 101.436 135.076 101.461 135.12C100.821 135.258 100.163 135.299 99.5103 135.24C99.0385 135.638 99.1631 136.007 98.6906 136.406C100.12 136.904 100.768 136.654 102.092 135.45C101.757 135.326 101.358 135.242 101.792 134.929Z" fill="#A7C6E5"/>
<path fill-rule="evenodd" clip-rule="evenodd" d="M94.2244 127.908C95.096 127.594 95.4505 128.208 95.9036 127.316C95.5694 127.195 95.2636 127.12 95.1097 126.705L93.9247 127.389C93.9776 127.433 94.0196 127.489 94.0475 127.551C94.0754 127.614 94.0885 127.683 94.0856 127.752C94.0827 127.821 94.0639 127.888 94.0308 127.948C93.9977 128.008 93.9512 128.06 93.8947 128.1C93.9216 128.141 93.9629 128.169 94.0105 128.181C94.058 128.192 94.108 128.184 94.1502 128.16C94.1924 128.135 94.2236 128.095 94.2374 128.049C94.2512 128.002 94.2465 127.951 94.2244 127.908Z" fill="#A7C6E5"/>
<path fill-rule="evenodd" clip-rule="evenodd" d="M96.428 132.487C96.5796 132.75 97.0662 132.247 97.3525 131.714C98.2027 132.428 99.3808 130.416 98.4122 129.818C98.0453 130.377 98.31 131.03 97.4527 131.52C97.5626 131.256 97.6206 131.007 97.5075 130.858C96.2139 131.354 96.2607 131.892 95.3374 132.426C95.5947 132.717 96.2023 132.242 96.6222 132.061C96.8233 132.259 96.6262 132.373 96.428 132.487Z" fill="#A7C6E5"/>
<path fill-rule="evenodd" clip-rule="evenodd" d="M74.9869 92.7639C74.7863 92.5655 74.9829 92.4519 75.2188 92.2526C73.2131 92.278 73.2493 92.9486 74.0338 92.9368C74.2622 93.1822 74.6303 92.9066 74.9869 92.7639Z" fill="#A7C6E5"/>
<path fill-rule="evenodd" clip-rule="evenodd" d="M37.4729 35.7008C37.3368 35.4651 36.9033 35.7772 36.585 35.8361C36.7866 36.0339 36.6173 36.1947 36.3525 36.3476C36.8575 36.4484 37.3818 36.3669 37.8322 36.1175C37.8765 36.1875 37.9333 36.2488 37.9997 36.2983C38.6332 35.7245 38.4259 35.0243 39.1546 34.4677C38.4175 33.6379 37.3419 35.1529 37.7194 35.976C37.5776 36.0387 37.4309 36.0896 37.2807 36.128C37.105 35.9763 37.2757 35.8146 37.4729 35.7008Z" fill="#A7C6E5"/>
<path fill-rule="evenodd" clip-rule="evenodd" d="M91.0281 130.131C91.5407 129.647 90.6793 129.829 90.565 129.329C90.3172 129.661 90.5862 129.821 90.4694 130.077C90.7971 129.887 90.9193 129.942 91.0281 130.131Z" fill="#A7C6E5"/>
<path fill-rule="evenodd" clip-rule="evenodd" d="M82.4993 115.359C81.8237 114.491 81.9629 116.865 81.3788 116.006C80.457 116.538 81.9205 116.637 82.4038 116.107C82.146 115.816 82.2618 115.559 82.4993 115.359Z" fill="#A7C6E5"/>
<path fill-rule="evenodd" clip-rule="evenodd" d="M80.2405 120.124C79.9929 120.456 79.1844 121.489 78.9572 120.488C78.5186 121.155 78.0347 121.792 77.5091 122.393C78.3561 123.1 80.9174 120.992 80.2405 120.124Z" fill="#A7C6E5"/>
<path fill-rule="evenodd" clip-rule="evenodd" d="M79.3355 123.73C79.3843 123.782 79.4211 123.845 79.443 123.914C79.4649 123.982 79.4715 124.055 79.4624 124.126C79.4534 124.197 79.4288 124.266 79.3905 124.327C79.3522 124.387 79.301 124.439 79.2405 124.478C79.5241 124.818 80.4152 123.926 80.6608 124.352C81.2229 124.717 80.7151 122.62 79.3355 123.73Z" fill="#A7C6E5"/>
<path fill-rule="evenodd" clip-rule="evenodd" d="M58.9362 93.7237C59.1657 93.9685 59.4135 93.6374 59.3316 93.4954C59.859 93.1909 60.3588 92.8407 60.6149 93.1318C61.6225 91.9841 59.5206 92.7572 59.2896 92.5098C57.9998 93.3211 59.6728 93.1735 58.9362 93.7237Z" fill="#A7C6E5"/>
<path fill-rule="evenodd" clip-rule="evenodd" d="M76.7845 122.812C76.4181 122.33 75.5086 123.8 75.0095 124.151C75.3058 124.358 75.9092 123.883 76.1005 124.215C77.0118 123.813 76.0599 123.23 76.7845 122.812Z" fill="#A7C6E5"/>
<path fill-rule="evenodd" clip-rule="evenodd" d="M60.609 98.2956C60.4727 98.0594 60.9616 97.841 61.1707 97.594C60.3008 97.153 59.6594 98.7821 59.0937 99.1705C59.3234 99.4158 59.571 99.0842 59.489 98.9422C60.0889 98.8899 60.6616 98.6682 61.1404 98.303C61.0978 98.0765 60.8727 98.1433 60.609 98.2956Z" fill="#A7C6E5"/>
<path fill-rule="evenodd" clip-rule="evenodd" d="M75.9191 127.4C76.2211 127.163 76.1782 126.936 76.5074 126.746L76.2071 126.225C75.5869 126.522 75.4641 127.221 75.0871 126.872C74.1149 127.625 75.9262 126.957 75.9191 127.4Z" fill="#A7C6E5"/>
<path fill-rule="evenodd" clip-rule="evenodd" d="M52.2524 94.6262L52.1666 94.1721C51.4737 93.1247 50.9725 95.3019 50.0201 94.7178C48.9249 96.1678 50.7726 96.1713 52.2998 95.1634L52.2524 94.6262Z" fill="#A7C6E5"/>
<path fill-rule="evenodd" clip-rule="evenodd" d="M82.0726 143.231C81.231 143.906 82.6093 144.62 83.3973 143.853C83.2336 143.57 82.7996 143.884 82.5096 143.988C82.713 143.427 82.3939 143.486 82.0726 143.231Z" fill="#A7C6E5"/>
<path fill-rule="evenodd" clip-rule="evenodd" d="M56.1894 107.077C56.558 106.803 56.2242 106.68 56.026 106.794C55.89 106.559 56.3127 106.378 56.6146 106.14C55.8493 105.575 55.5116 106.966 54.704 107.243C55.0527 107.543 55.8793 106.69 56.1894 107.077Z" fill="#A7C6E5"/>
<path fill-rule="evenodd" clip-rule="evenodd" d="M41.2384 89.0938C40.1506 90.0998 42.348 88.5793 42.0967 89.6684C42.7568 89.2873 42.6967 88.8808 43.4487 88.5098C43.021 88.0646 41.773 89.4094 41.2384 89.0938Z" fill="#A7C6E5"/>
<path fill-rule="evenodd" clip-rule="evenodd" d="M45.716 100.35C44.978 99.8325 45.4392 101.392 44.0071 101.651C44.3888 102.312 45.745 101.466 46.0154 100.869C45.6819 100.747 45.2819 100.664 45.716 100.35Z" fill="#A7C6E5"/>
<path fill-rule="evenodd" clip-rule="evenodd" d="M59.2678 130.772C59.1002 130.897 58.95 131.134 58.8726 131.679C59.0605 132.15 59.3155 132.592 59.6298 132.99C60.8806 133.17 60.5295 131.627 59.9508 130.957C60.1358 130.642 60.2006 130.257 59.9066 130.103C61.8057 128.588 59.8776 129.853 59.2678 130.772Z" fill="#A7C6E5"/>
<path fill-rule="evenodd" clip-rule="evenodd" d="M40.9399 137.276C40.9185 137.109 40.8464 136.952 40.7334 136.826C40.6204 136.701 40.4718 136.612 40.3073 136.574L41.9521 135.624L41.1943 134.312C39.7217 135.004 38.9791 135.805 39.7007 136.816C39.558 136.959 39.4084 137.03 39.2204 136.885C38.8529 137.16 39.1596 137.235 39.3568 137.121C39.2948 137.332 39.2872 137.556 39.3348 137.771C39.3823 137.986 39.4835 138.186 39.6288 138.351C40.3129 138.016 40.2548 137.61 40.9399 137.276Z" fill="#A7C6E5"/>
<path fill-rule="evenodd" clip-rule="evenodd" d="M50.3275 90.0736C49.8641 89.2709 47.5344 90.8677 47.226 91.5493C47.6306 91.9448 48.7856 90.8999 48.9166 91.891C49.3531 91.3051 49.9458 90.854 50.6267 90.5895C50.2926 90.4709 49.8931 90.3868 50.3275 90.0736Z" fill="#A7C6E5"/>
</g>
</g>
<path d="M93.4489 144.22C63.2279 252.899 72.0663 283.643 113 309" stroke="#2E669C" stroke-dasharray="6 7"/>
<defs>
<linearGradient id="paint0_linear" x1="59.2529" y1="37.9682" x2="98.4124" y2="105.794" gradientUnits="userSpaceOnUse">
<stop stop-color="#5491CE"/>
<stop offset="1" stop-color="#5D93C8"/>
</linearGradient>
<linearGradient id="paint1_linear" x1="76.5463" y1="27.9837" x2="132.557" y2="124.997" gradientUnits="userSpaceOnUse">
<stop stop-color="#5491CE"/>
<stop offset="1" stop-color="#5D93C8"/>
</linearGradient>
<clipPath id="clip0">
<rect width="126.608" height="126.608" fill="white" transform="translate(0.783386 63.3037) rotate(-30)"/>
</clipPath>
</defs>
</svg>
